<svg width="28" height="28" viewBox="0 0 28 28" fill="none" xmlns="http://www.w3.org/2000/svg">
<path d="M13.9307 0C21.6241 0.000116995 27.8613 6.23716 27.8613 13.9307C27.8612 21.6241 21.6241 27.8612 13.9307 27.8613C6.23716 27.8613 0.000117003 21.6241 0 13.9307C0 6.23709 6.23709 0 13.9307 0ZM14.5488 16.2539C14.5117 17.2627 13.6833 18.0519 12.7002 18.0117C11.7172 17.9736 10.9481 17.123 10.9873 16.1143C11.0246 15.131 11.8123 14.3555 12.7705 14.3555C12.9497 14.3555 13.127 14.3845 13.2959 14.4395V12.2148C13.1208 12.1895 12.9456 12.1769 12.7705 12.1748C10.6168 12.1748 8.86523 13.9725 8.86523 16.1826C8.86947 18.3947 10.6147 20.1883 12.7725 20.1904C14.9261 20.1904 16.6776 18.3926 16.6777 16.1826V11.7578C17.5371 12.3922 18.5697 12.7354 19.6289 12.7334V10.5547C19.0561 10.5567 18.4976 10.3857 18.0195 10.0664C17.1829 9.50601 16.6759 8.55199 16.6758 7.52637H14.5527L14.5488 16.2539Z" fill="#8F806C"/>
</svg>
