<svg width="24" height="24" viewBox="0 0 24 24" fill="none" xmlns="http://www.w3.org/2000/svg">
<rect x="0.5" y="0.5" width="23" height="23" rx="11.5" stroke="#8F806C"/>
<path d="M18.125 15.0625C18.125 15.5266 17.9405 15.9716 17.6123 16.2998C17.2841 16.628 16.8391 16.8125 16.375 16.8125H7.625C7.16087 16.8125 6.71588 16.628 6.3877 16.2998C6.05954 15.9716 5.875 15.5266 5.875 15.0625V10.0576L11.083 13.2617C11.3588 13.4314 11.6762 13.5215 12 13.5215C12.3238 13.5215 12.6412 13.4314 12.917 13.2617L18.125 10.0576V15.0625ZM16.375 7.1875C16.8391 7.1875 17.2841 7.37201 17.6123 7.7002C17.9405 8.02838 18.125 8.47337 18.125 8.9375V9.0293L12.459 12.5166C12.3211 12.6014 12.1619 12.6465 12 12.6465C11.8381 12.6465 11.6789 12.6014 11.541 12.5166L5.875 9.0293V8.9375C5.875 8.47337 6.05951 8.02838 6.3877 7.7002C6.71588 7.37201 7.16087 7.1875 7.625 7.1875H16.375Z" fill="#8F806C"/>
</svg>
