<svg width="127" height="52" viewBox="0 0 127 52" fill="none" xmlns="http://www.w3.org/2000/svg">
<path d="M53.2258 23.3363L52.1605 24.5316C51.5368 23.9426 50.6706 23.4315 49.562 22.9984C48.4533 22.5654 47.1887 22.3488 45.7681 22.3488C44.4516 22.3488 43.3082 22.6173 42.3381 23.1544C41.368 23.6914 40.883 24.5142 40.883 25.6229C40.883 26.0214 40.9523 26.3635 41.0908 26.6493C41.2294 26.9352 41.4676 27.1734 41.8054 27.3639C42.1432 27.5545 42.4507 27.7061 42.7279 27.8187C43.0051 27.9313 43.4338 28.0222 44.0142 28.0915C44.5945 28.1608 45.0362 28.2084 45.3394 28.2344C45.6425 28.2604 46.1319 28.2907 46.8075 28.3254C47.3965 28.36 47.8556 28.3903 48.1847 28.4163C48.5139 28.4423 48.986 28.5029 49.6009 28.5982C50.2159 28.6935 50.7096 28.8061 51.0821 28.936C51.4545 29.0659 51.8833 29.2522 52.3683 29.4947C52.8534 29.7372 53.2345 30.0187 53.5117 30.3392C53.7888 30.6597 54.0227 31.0625 54.2133 31.5475C54.4038 32.0326 54.4991 32.5783 54.4991 33.1846C54.4991 34.9862 53.7759 36.3461 52.3294 37.2642C50.8829 38.1824 49.0596 38.6414 46.8595 38.6414C43.5681 38.6414 40.6842 37.4894 38.2069 35.1854L39.2723 33.9901C41.5244 36.0862 44.0618 37.1343 46.8859 37.1343C48.5836 37.1343 49.9868 36.8181 51.0955 36.1858C52.2042 35.5535 52.7585 34.6224 52.7585 33.3924C52.7585 32.8381 52.6373 32.3617 52.3947 31.9633C52.1522 31.5648 51.8577 31.253 51.5113 31.0278C51.1648 30.8026 50.6971 30.6164 50.1081 30.4691C49.5191 30.3219 48.9994 30.2223 48.549 30.1703C48.0986 30.1183 47.5182 30.0664 46.808 30.0144C46.1324 29.9797 45.6083 29.9451 45.2359 29.9105C44.8634 29.8758 44.3654 29.8195 43.7417 29.7416C43.1181 29.6636 42.6244 29.5683 42.2606 29.4557C41.8968 29.3431 41.4897 29.1786 41.0393 28.962C40.5889 28.7455 40.2468 28.4986 40.0129 28.2214C39.779 27.9443 39.5755 27.5935 39.4023 27.169C39.229 26.7446 39.1424 26.2726 39.1424 25.7529C39.1424 24.8694 39.346 24.0985 39.753 23.4402C40.1601 22.7819 40.7058 22.2709 41.3901 21.9071C42.0744 21.5433 42.789 21.2791 43.5339 21.1145C44.2788 20.95 45.0497 20.8677 45.8465 20.8677C47.4056 20.8677 48.8305 21.1189 50.1211 21.6212C51.4117 22.1236 52.4467 22.6953 53.2263 23.3363H53.2258ZM62.3561 29.7026C62.3561 27.26 63.2569 25.1769 65.0585 23.4532C66.8602 21.7295 69.0602 20.8677 71.6587 20.8677C74.2746 20.8677 76.4915 21.7295 78.3104 23.4532C80.1294 25.1769 81.0389 27.26 81.0389 29.7026C81.0389 32.1798 80.1294 34.2889 78.3104 36.0299C76.4915 37.7709 74.2741 38.6414 71.6587 38.6414C69.0602 38.6414 66.8602 37.7709 65.0585 36.0299C63.2569 34.2889 62.3561 32.1798 62.3561 29.7026ZM64.201 29.7026C64.201 31.7467 64.9243 33.4877 66.3708 34.9256C67.8173 36.3634 69.5799 37.0823 71.6587 37.0823C73.7722 37.0823 75.5604 36.3634 77.0242 34.9256C78.488 33.4877 79.2199 31.7467 79.2199 29.7026C79.2199 27.6757 78.488 25.9521 77.0242 24.5316C75.5604 23.1111 73.7722 22.4008 71.6587 22.4008C69.5799 22.4008 67.8173 23.1111 66.3708 24.5316C64.9243 25.9521 64.201 27.6757 64.201 29.7026ZM90.6628 21.2575H92.4038V36.6661H103.318V38.2252H90.6633V21.2575H90.6628ZM111.252 38.2252H109.459L117.333 21.2575H119.048L126.921 38.2252H125.024L122.504 32.7164H113.747L111.252 38.2252ZM118.06 23.2843L114.396 31.3136H121.88L118.216 23.2843H118.06Z" fill="#F0E5CF"/>
<path d="M1.48807 29.9762H12.4278V16.1154H30.5107V7.23412H12.4278V5.29218H11.0809V28.6297H2.87393V5.24974H1.48807V29.9762ZM13.1718 31.4643H0V3.76123H4.36201V27.1412H9.59279V3.80367H13.9163V5.74562H31.9992V17.6034H13.9163V31.4643H13.1722H13.1718ZM12.4278 14.024V8.61956H29.2803V14.768H12.4278V14.024ZM13.9158 10.1076V13.2795H27.7922V10.1076H13.9158Z" fill="#F0E5CF"/>
<path d="M0.743992 30.7204H13.1717V16.8596H31.2547V6.49025H13.1717V4.5483H10.3368V27.8859H3.61794V4.50586H0.743992V30.7208V30.7204ZM13.1717 14.0242V9.36376H28.5363V14.0242H13.1717Z" fill="#F0E5CF"/>
<path d="M1.52485 36.6721H30.5111V28.6817H19.6061V23.2959H30.5111V21.949H18.254L18.2293 29.9818H29.2032V35.3252H1.52529V36.6721H1.52485ZM31.2552 38.1602H0.0367851V33.8371H27.7147V31.4699H16.7421L16.7759 20.4609H31.9988V24.784H21.0937V27.1932H31.9988V38.1597H31.2547L31.2552 38.1602Z" fill="#F0E5CF"/>
<path d="M0.780876 37.4163H31.2552V27.9378H20.3502V24.04H31.2552V21.2051H17.5152L17.4858 30.726H28.4588V34.5813H0.780876V37.4163Z" fill="#F0E5CF"/>
<path d="M47.724 1.19184V12.481C47.724 12.6595 47.7539 12.8387 47.8132 12.9873H44.2983V3.15761L42.064 4.34902V12.9873H39.5322V13.9704H47.0389L47.873 13.1064C48.0813 13.6127 48.6175 13.9704 49.2134 13.9704H49.9578V0L47.724 1.19184ZM64.4644 12.9873H63.4519V8.66816C63.4519 5.45121 61.0093 3.36636 57.9708 3.36636C54.9028 3.36636 52.4602 5.45165 52.4602 8.66816C52.4602 11.8855 54.9028 13.9704 57.9708 13.9704H60.4432L61.2176 13.1363V13.196C61.2176 16.9188 59.073 17.6048 57.9708 17.6048L58.8348 18.4983C61.2773 18.1704 63.0941 16.4723 63.3925 13.9704H64.4648C64.5839 13.9704 64.6437 13.8807 64.6437 13.7915V13.1662C64.6437 13.0765 64.5839 12.9873 64.4648 12.9873H64.4644ZM57.9708 12.9873C56.8694 12.9873 54.7244 12.3619 54.7244 8.66816C54.7244 4.97482 56.869 4.34902 57.9708 4.34902C59.0431 4.34902 61.2176 4.97482 61.2176 8.66816V12.9873H57.9708ZM119.26 4.498C118.039 4.52788 117.711 4.55733 109.43 5.89816L108.626 6.73228V4.11082L106.392 5.30224V12.9873H64.4644C64.3453 12.9873 64.2855 13.0769 64.2855 13.1662V13.7915C64.2855 13.8807 64.3453 13.9704 64.4644 13.9704H121.434L122.268 13.1064C122.507 13.6127 123.013 13.9704 123.609 13.9704H124.383V9.62137C124.383 5.95792 122.358 4.46811 119.26 4.498ZM108.626 12.9873V6.99992C118.188 5.51055 118.396 5.51055 119.26 5.54043C121.524 5.62965 122.119 7.17879 122.119 9.47196V12.4806C122.119 12.6595 122.149 12.8383 122.209 12.9869H108.626V12.9873Z" fill="#F0E5CF"/>
<path d="M4.34643 44.1925L3.80334 43.6494L3.24856 44.1925L3.80334 44.7473L4.34643 44.1925ZM3.73361 44.9786L3.17883 44.435L2.63575 44.9786L3.17883 45.5333L3.73361 44.9786ZM4.42741 45.5333L4.9705 44.9786L4.42741 44.435L3.87263 44.9786L4.42741 45.5333ZM8.03369 49.105H7.37497V45.6602L6.50794 46.1223V48.9079C6.50794 48.9772 6.51964 49.0465 6.54259 49.1045H2.23081C1.81462 49.1045 0.970973 48.8616 0.970973 47.4285V45.9257L0.103939 46.3878V47.4281C0.103939 48.6762 1.05196 49.4857 2.23081 49.4857H6.24159L6.56511 49.1504C6.65779 49.3471 6.85398 49.4857 7.08524 49.4857H8.03326C8.06791 49.4857 8.10256 49.451 8.10256 49.4164V49.1738C8.10256 49.1392 8.06791 49.1045 8.03326 49.1045L8.03369 49.105ZM10.8773 49.105H10.2303V45.6602L9.35157 46.1223V48.9079C9.35157 48.9772 9.36326 49.0465 9.38622 49.1045H8.03369C7.98735 49.1045 7.9644 49.1392 7.9644 49.1738V49.4164C7.9644 49.451 7.98779 49.4857 8.03369 49.4857H9.08565L9.40917 49.1504C9.50185 49.3471 9.70973 49.4857 9.9293 49.4857H10.8773C10.9237 49.4857 10.9466 49.451 10.9466 49.4164V49.1738C10.9466 49.1392 10.9232 49.1045 10.8773 49.1045V49.105ZM8.08004 50.7927L8.62312 51.3358L9.1779 50.7927L8.62312 50.2492L8.08004 50.7927ZM9.24763 50.7927L9.79115 51.3358L10.3459 50.7927L9.79115 50.2492L9.24763 50.7927ZM12.4958 44.1925L11.9527 43.6494L11.3979 44.1925L11.9527 44.7473L12.4958 44.1925ZM11.8829 44.9786L11.3282 44.435L10.7851 44.9786L11.3282 45.5333L11.8829 44.9786ZM12.5767 45.5333L13.1198 44.9786L12.5767 44.435L12.022 44.9786L12.5767 45.5333ZM12.1952 48.9083C12.1952 48.9776 12.2069 49.0469 12.2298 49.105H10.8773C10.831 49.105 10.808 49.1396 10.808 49.1743V49.4168C10.808 49.4514 10.8314 49.4861 10.8773 49.4861H11.941L12.2528 49.1509C12.3455 49.3475 12.5534 49.4861 12.7729 49.4861H13.0735V45.6602L12.1948 46.1223V48.9079L12.1952 48.9083ZM14.7495 43.7066H15.5589V43.487H14.9349C14.75 43.487 14.646 43.3484 14.646 43.0825C14.646 42.8166 14.75 42.678 14.9349 42.678C15.1081 42.678 15.2125 42.782 15.2354 42.9898L15.5823 42.7932C15.455 42.5853 15.2125 42.458 14.9349 42.458C14.5533 42.458 14.2298 42.701 14.2298 43.0821C14.2298 43.2553 14.2991 43.4056 14.4147 43.5095C14.2069 43.5442 14.0332 43.6252 13.9293 43.7754L14.2645 43.9374C14.3801 43.6832 14.6573 43.7062 14.75 43.7062L14.7495 43.7066ZM15.9981 49.105H15.3511V44.0652L14.4723 44.5277V49.4865H15.9981C16.0444 49.4865 16.0674 49.4519 16.0674 49.4172V49.1747C16.0674 49.1401 16.044 49.1054 15.9981 49.1054V49.105ZM17.0037 44.9786L16.4489 44.435L15.8942 44.9786L16.4489 45.5333L17.0037 44.9786ZM18.2289 44.9786L17.6858 44.435L17.131 44.9786L17.6858 45.5333L18.2289 44.9786ZM17.3155 48.9083C17.3155 48.9776 17.3272 49.0469 17.3502 49.105H15.9977C15.9513 49.105 15.9284 49.1396 15.9284 49.1743V49.4168C15.9284 49.4514 15.9518 49.4861 15.9977 49.4861H17.0496L17.3731 49.1509C17.4658 49.3475 17.6737 49.4861 17.8933 49.4861H18.1938V45.6602L17.3151 46.1223V48.9079L17.3155 48.9083ZM47.5079 45.325L46.9532 44.7815L46.4101 45.325L46.9532 45.8798L47.5079 45.325ZM48.7448 45.325L48.2017 44.7815L47.6469 45.325L48.2017 45.8798L48.7448 45.325ZM50.2823 46.1223V48.9079C50.2823 48.9772 50.294 49.0465 50.3169 49.1045H46.0051C45.5889 49.1045 44.7453 48.8616 44.7453 47.4285V45.9257L43.8783 46.3878V47.4281C43.8783 48.6762 44.8263 49.4857 46.0051 49.4857H50.0159L50.3394 49.1504C50.4321 49.3471 50.6283 49.4857 50.8596 49.4857H51.1484V45.6598L50.2814 46.1219L50.2823 46.1223ZM52.4555 49.4861H53.3342V44.0648L52.4555 44.5273V49.4861ZM54.9985 46.1223V49.1855C54.9985 50.6307 54.1662 50.8962 53.7387 50.8962L54.0739 51.2431C55.1142 51.1045 55.8656 50.3185 55.8656 49.1855V45.6602L54.9985 46.1223ZM61.506 49.1045H61.1132V47.4285C61.1132 46.1799 60.1652 45.3709 58.9864 45.3709C57.7958 45.3709 56.8478 46.1799 56.8478 47.4285C56.8478 48.6767 57.7958 49.4861 58.9864 49.4861H59.9457L60.2462 49.1626V49.1855C60.2462 50.6307 59.4138 50.8962 58.9864 50.8962L59.3216 51.2431C60.2696 51.1158 60.9747 50.4571 61.0899 49.4861H61.506C61.5524 49.4861 61.5753 49.4514 61.5753 49.4168V49.1743C61.5753 49.1396 61.552 49.105 61.506 49.105V49.1045ZM58.9859 49.1045C58.5585 49.1045 57.7261 48.8616 57.7261 47.4285C57.7261 45.9954 58.5585 45.7525 58.9859 45.7525C59.4021 45.7525 60.2458 45.9954 60.2458 47.4285V49.1045H58.9859ZM69.6203 49.1045H69.4817C69.3778 49.1045 69.2851 49.0469 69.2275 48.9196C69.0309 48.5614 68.8113 47.9257 68.4298 47.1513C68.0712 46.4463 67.3431 45.9144 66.1872 45.9144H63.1357L64.904 44.0652H63.8638L62.1994 45.7992V46.2964H66.0487C66.927 46.2964 67.3202 46.7702 67.5627 47.3367C67.8516 47.9837 68.0829 48.6082 68.3717 49.105H61.5056C61.4593 49.105 61.4363 49.1396 61.4363 49.1743V49.4168C61.4363 49.4514 61.4597 49.4861 61.5056 49.4861H68.0712L68.3951 49.1509C68.5107 49.3705 68.7186 49.4861 68.9728 49.4861H69.6203C69.6666 49.4861 69.6896 49.4514 69.6896 49.4168V49.1743C69.6896 49.1396 69.6666 49.105 69.6203 49.105V49.1045ZM70.9958 49.1509C71.0885 49.3475 71.2963 49.4861 71.5159 49.4861H71.8165V45.6602L70.9377 46.1223V48.9079C70.9377 48.9772 70.9494 49.0465 70.9724 49.1045H69.6199C69.5735 49.1045 69.5506 49.1392 69.5506 49.1738V49.4164C69.5506 49.451 69.574 49.4857 69.6199 49.4857H70.6718L70.9953 49.1504L70.9958 49.1509ZM69.6666 50.7923L70.2097 51.3353L70.7645 50.7923L70.2097 50.2487L69.6666 50.7923ZM71.3773 50.2487L70.8338 50.7923L71.3773 51.3353L71.9321 50.7923L71.3773 50.2487ZM74.5791 45.9257H72.9607V46.3073H74.5791C74.9953 46.3073 75.8389 46.3648 75.8389 47.6944V48.9079C75.8389 48.9772 75.8502 49.0465 75.8736 49.1045H72.6025V49.4861H75.573L75.8853 49.1509C75.9775 49.3475 76.1741 49.4861 76.4171 49.4861H76.706V47.6944C76.706 46.4458 75.8277 45.9261 74.5791 45.9261V45.9257ZM107.418 49.1045H107.026V47.4285C107.026 46.1799 106.078 45.3709 104.888 45.3709C103.709 45.3709 102.761 46.1799 102.761 47.4285V49.0816C102.761 50.5263 101.917 50.7693 101.501 50.7693L101.848 51.1162C102.877 50.9889 103.628 50.2028 103.628 49.0816V49.0699C103.951 49.3358 104.379 49.4861 104.888 49.4861H105.893L106.205 49.1509C106.297 49.3475 106.506 49.4861 106.725 49.4861H107.418C107.453 49.4861 107.488 49.4514 107.488 49.4168V49.1743C107.488 49.1396 107.453 49.105 107.418 49.105V49.1045ZM104.887 49.1045C104.471 49.1045 103.627 48.9543 103.627 47.5207V47.4285C103.627 45.9954 104.471 45.7525 104.887 45.7525C105.315 45.7525 106.147 45.9954 106.147 47.4285V48.9079C106.147 48.9772 106.159 49.0465 106.182 49.1045H104.887ZM110.262 49.1045H109.615V45.6598L108.736 46.1219V48.9075C108.736 48.9768 108.748 49.0461 108.771 49.1041H107.418C107.372 49.1041 107.349 49.1388 107.349 49.1734V49.4159C107.349 49.4506 107.373 49.4852 107.418 49.4852H108.47L108.794 49.15C108.887 49.3466 109.095 49.4852 109.314 49.4852H110.262C110.308 49.4852 110.331 49.4506 110.331 49.4159V49.1734C110.331 49.1388 110.308 49.1041 110.262 49.1041V49.1045ZM107.465 50.7923L108.008 51.3353L108.563 50.7923L108.008 50.2487L107.465 50.7923ZM108.632 50.7923L109.176 51.3353L109.731 50.7923L109.176 50.2487L108.632 50.7923ZM116.215 49.1045H115.822V47.4285C115.822 46.1799 114.874 45.3709 113.696 45.3709C112.505 45.3709 111.557 46.1799 111.557 47.4285V47.4861V48.2029C111.569 48.8157 111.557 49.1045 110.898 49.1045H110.263C110.216 49.1045 110.193 49.1392 110.193 49.1738V49.4164C110.193 49.451 110.217 49.4857 110.263 49.4857H110.898C111.603 49.4857 111.904 49.2197 112.02 48.7576C112.412 49.2202 113.014 49.4857 113.696 49.4857H114.69L115.013 49.1504C115.094 49.3471 115.302 49.4857 115.533 49.4857H116.215C116.261 49.4857 116.284 49.451 116.284 49.4164V49.1738C116.284 49.1392 116.261 49.1045 116.215 49.1045H116.215ZM113.696 49.1045C113.279 49.1045 112.436 48.8616 112.436 47.4285C112.436 45.9954 113.279 45.7525 113.696 45.7525C114.123 45.7525 114.955 45.9954 114.955 47.4285V48.9079C114.955 48.9772 114.967 49.0465 114.99 49.1045H113.696ZM124.769 49.1045H124.388V47.7984C124.388 46.3765 123.602 45.7988 122.399 45.8101C121.925 45.8218 121.798 45.833 118.585 46.3532L118.273 46.6767V45.6598L117.406 46.1219V49.1041H116.215C116.169 49.1041 116.146 49.1388 116.146 49.1734V49.4159C116.146 49.4506 116.169 49.4852 116.215 49.4852H123.243L123.567 49.15C123.66 49.3466 123.856 49.4852 124.087 49.4852H124.769C124.815 49.4852 124.838 49.4506 124.838 49.4159V49.1734C124.838 49.1388 124.815 49.1041 124.769 49.1041V49.1045ZM118.273 49.1045V46.781C121.984 46.2033 122.064 46.2033 122.399 46.215C123.278 46.2497 123.509 46.8508 123.509 47.7408V48.9083C123.509 48.9776 123.521 49.0469 123.543 49.105H118.272L118.273 49.1045ZM125.775 44.9781L125.22 44.4346L124.665 44.9781L125.22 45.5329L125.775 44.9781ZM127 44.9781L126.457 44.4346L125.902 44.9781L126.457 45.5329L127 44.9781ZM126.087 48.9079C126.087 48.9772 126.098 49.0465 126.121 49.1045H124.769C124.722 49.1045 124.699 49.1392 124.699 49.1738V49.4164C124.699 49.451 124.723 49.4857 124.769 49.4857H125.821L126.144 49.1504C126.237 49.3471 126.445 49.4857 126.664 49.4857H126.965V45.6598L126.086 46.1219V48.9075L126.087 48.9079ZM30.7558 50.1829H31.5709V44.5528H30.7558V50.1829ZM89.0138 50.1829H89.8288V44.5528H89.0138V50.1829Z" fill="#F0E5CF"/>
</svg>
