<svg width="20" height="21" viewBox="0 0 20 21" fill="none" xmlns="http://www.w3.org/2000/svg">
<path d="M10 19.668C11.995 19.6679 13.9335 19.0052 15.511 17.784C17.0886 16.5628 18.2159 14.8523 18.716 12.921M10 19.668C8.00501 19.6679 6.06654 19.0052 4.48898 17.784C2.91141 16.5628 1.78408 14.8523 1.284 12.921M10 19.668C12.485 19.668 14.5 15.638 14.5 10.668C14.5 5.69797 12.485 1.66797 10 1.66797M10 19.668C7.515 19.668 5.5 15.638 5.5 10.668C5.5 5.69797 7.515 1.66797 10 1.66797M18.716 12.921C18.901 12.201 19 11.446 19 10.668C19.0025 9.12008 18.6039 7.59796 17.843 6.24997M18.716 12.921C16.0492 14.3994 13.0492 15.1728 10 15.168C6.838 15.168 3.867 14.353 1.284 12.921M1.284 12.921C1.09475 12.1849 0.999327 11.4279 1 10.668C1 9.06297 1.42 7.55497 2.157 6.24997M10 1.66797C11.5962 1.66731 13.1639 2.09133 14.5422 2.89654C15.9205 3.70174 17.0597 4.85914 17.843 6.24997M10 1.66797C8.40376 1.66731 6.83608 2.09133 5.45781 2.89654C4.07954 3.70174 2.94031 4.85914 2.157 6.24997M17.843 6.24997C15.6657 8.1359 12.8805 9.17212 10 9.16797C7.002 9.16797 4.26 8.06797 2.157 6.24997" stroke="#521501" stroke-width="1.5" stroke-linecap="round" stroke-linejoin="round"/>
</svg>
