<svg width="44" height="44" viewBox="0 0 44 44" fill="none" xmlns="http://www.w3.org/2000/svg">
<rect x="0.5" y="0.5" width="43" height="43" rx="21.5" fill="#F0EFED" stroke="#F0EFED"/>
<path d="M18.5237 13.0659C17.5205 13.1133 16.8354 13.2734 16.2365 13.5087C15.6167 13.7503 15.0913 14.0744 14.5686 14.599C14.0458 15.1236 13.7239 15.6494 13.4841 16.2702C13.2519 16.8704 13.0947 17.556 13.0504 18.5598C13.006 19.5636 12.9962 19.8862 13.0011 22.4466C13.006 25.0071 13.0174 25.328 13.066 26.3339C13.1139 27.3369 13.2734 28.0218 13.5088 28.6209C13.7507 29.2407 14.0745 29.7659 14.5993 30.2888C15.1241 30.8117 15.6495 31.1328 16.2718 31.3731C16.8714 31.6048 17.5573 31.7629 18.5609 31.8068C19.5644 31.8507 19.8875 31.8609 22.4472 31.856C25.0069 31.8511 25.3291 31.8398 26.3348 31.7921C27.3405 31.7444 28.0218 31.5837 28.6211 31.3495C29.2409 31.107 29.7664 30.7838 30.289 30.2588C30.8115 29.7338 31.1332 29.2077 31.3729 28.5866C31.6052 27.9869 31.7631 27.3011 31.8066 26.2982C31.8506 25.2918 31.8609 24.9705 31.856 22.4104C31.8511 19.8504 31.8396 19.5294 31.7919 18.524C31.7442 17.5185 31.5845 16.8357 31.3493 16.2362C31.107 15.6164 30.7836 15.0916 30.259 14.5683C29.7344 14.045 29.2079 13.7235 28.5869 13.4844C27.9869 13.2523 27.3014 13.094 26.2978 13.0507C25.2942 13.0073 24.9712 12.9962 22.4106 13.0011C19.8499 13.006 19.5294 13.0169 18.5237 13.0659ZM18.6338 30.1106C17.7145 30.0706 17.2154 29.9179 16.8827 29.79C16.4422 29.6203 16.1284 29.4151 15.7969 29.0868C15.4654 28.7585 15.2618 28.4436 15.0898 28.0041C14.9606 27.6714 14.805 27.1728 14.762 26.2535C14.7153 25.26 14.7055 24.9616 14.7 22.4444C14.6945 19.9271 14.7042 19.6292 14.7477 18.6352C14.7869 17.7167 14.9406 17.217 15.0683 16.8845C15.238 16.4435 15.4424 16.1302 15.7715 15.7989C16.1005 15.4676 16.4145 15.2636 16.8545 15.0916C17.1867 14.9618 17.6853 14.8076 18.6042 14.7638C19.5986 14.7167 19.8965 14.7073 22.4134 14.7018C24.9303 14.6963 25.229 14.7058 26.2237 14.7495C27.1423 14.7895 27.6422 14.9417 27.9742 15.0701C28.4149 15.2398 28.7285 15.4436 29.0599 15.7733C29.3912 16.1029 29.5954 16.4157 29.7674 16.8566C29.8973 17.1879 30.0516 17.6863 30.0949 18.6058C30.1423 19.6002 30.153 19.8983 30.1575 22.415C30.1621 24.9317 30.1532 25.2305 30.1097 26.2241C30.0695 27.1434 29.9171 27.6428 29.7891 27.9758C29.6194 28.4161 29.4148 28.7301 29.0855 29.0612C28.7563 29.3923 28.4427 29.5964 28.0025 29.7683C27.6706 29.8979 27.1715 30.0525 26.2533 30.0963C25.259 30.143 24.961 30.1528 22.4432 30.1583C19.9254 30.1638 19.6284 30.1536 18.634 30.1106M26.3203 17.3893C26.3206 17.6131 26.3874 17.8318 26.512 18.0176C26.6367 18.2035 26.8136 18.3482 27.0206 18.4335C27.2275 18.5188 27.455 18.5408 27.6744 18.4967C27.8938 18.4527 28.0953 18.3446 28.2532 18.186C28.4112 18.0275 28.5186 17.8257 28.5618 17.6061C28.6051 17.3865 28.5822 17.1591 28.4962 16.9525C28.4102 16.7459 28.2648 16.5694 28.0785 16.4455C27.8921 16.3215 27.6732 16.2556 27.4494 16.256C27.1494 16.2566 26.8619 16.3763 26.6502 16.5889C26.4384 16.8014 26.3198 17.0893 26.3203 17.3893ZM17.5874 22.438C17.5927 25.1119 19.7643 27.2747 22.4377 27.2696C25.1111 27.2645 27.2754 25.0931 27.2703 22.4191C27.2652 19.7452 25.093 17.5819 22.4193 17.5871C19.7455 17.5924 17.5823 19.7644 17.5874 22.438ZM19.2857 22.4346C19.2845 21.813 19.4676 21.205 19.812 20.6874C20.1563 20.1699 20.6463 19.7661 21.2202 19.5271C21.794 19.288 22.4258 19.2246 23.0357 19.3446C23.6456 19.4647 24.2063 19.7629 24.6467 20.2016C25.0871 20.6403 25.3875 21.1997 25.51 21.8091C25.6325 22.4185 25.5715 23.0506 25.3348 23.6254C25.098 24.2001 24.6962 24.6918 24.18 25.0382C23.6638 25.3845 23.0565 25.5701 22.4349 25.5713C22.0222 25.5722 21.6133 25.4917 21.2316 25.3345C20.85 25.1774 20.503 24.9465 20.2106 24.6553C19.9181 24.364 19.6859 24.0179 19.5273 23.6369C19.3686 23.2559 19.2865 22.8473 19.2857 22.4346Z" fill="#02464F"/>
</svg>
