<svg width="80" height="80" viewBox="0 0 80 80" fill="none" xmlns="http://www.w3.org/2000/svg">
<rect width="80" height="80" rx="40" fill="#8F806C"/>
<path d="M33.7399 62.9859L42.0867 64.4603C42.1355 64.469 42.185 64.4735 42.2346 64.4736H56.9179C57.1443 64.4736 57.3615 64.3836 57.5217 64.2235C57.6818 64.0633 57.7718 63.8462 57.7718 63.6197V37.3367C57.772 37.1656 57.7209 36.9983 57.6249 36.8567C57.5289 36.7151 57.3926 36.6055 57.2336 36.5424L55.2125 35.7371V24.4015C55.2123 24.2554 55.1747 24.1118 55.1032 23.9843C55.0318 23.8568 54.9289 23.7498 54.8044 23.6734L48.5231 19.8343V16.3807C48.5233 16.2353 48.4863 16.0923 48.4156 15.9652C48.3449 15.8381 48.2429 15.7312 48.1193 15.6546C47.9957 15.578 47.8546 15.5342 47.7093 15.5275C47.564 15.5208 47.4195 15.5513 47.2893 15.6162L35.5221 21.4662C35.3798 21.537 35.2601 21.646 35.1764 21.7811C35.0927 21.9161 35.0483 22.0718 35.0482 22.2307V37.9886L33.5129 38.7406C33.3694 38.8108 33.2486 38.92 33.1641 39.0555C33.0796 39.1911 33.0348 39.3477 33.035 39.5074V62.1469C33.0354 62.3473 33.1062 62.5411 33.2351 62.6944C33.364 62.8478 33.5426 62.951 33.7399 62.9859ZM53.1278 57.2673V62.7642H51.8986V57.4324L53.1278 57.2673ZM50.1915 62.7642H48.9617V57.8293L50.1915 57.6638V62.7642ZM47.2546 62.7642H46.0257V58.2201L47.2549 58.0546L47.2546 62.7642ZM44.3176 62.7642H43.0888V58.6206L44.318 58.4551L44.3176 62.7642ZM54.8352 62.7642V57.0363L56.0643 56.8708V62.7642H54.8352ZM56.0643 55.1458L43.0888 56.8963V32.7446L56.0647 37.9148L56.0643 55.1458ZM53.505 24.8801V35.057L48.5235 33.0742V21.8352L53.505 24.8801ZM36.7559 22.7596L46.817 17.7585V32.3921L42.5513 30.693C42.4217 30.6413 42.2814 30.6221 42.1427 30.6372C42.0039 30.6523 41.871 30.7011 41.7556 30.7795C41.6401 30.8579 41.5457 30.9635 41.4805 31.0869C41.4153 31.2103 41.3814 31.3478 41.3817 31.4873V34.8856L36.7599 37.152L36.7559 22.7596ZM34.742 40.0396L41.382 36.7869V62.6017L34.742 61.4271V40.0396ZM44.4106 39.6305V36.5659C44.4075 36.4518 44.4272 36.3382 44.4687 36.2319C44.5101 36.1255 44.5725 36.0286 44.6521 35.9468C44.7316 35.865 44.8268 35.7999 44.9319 35.7555C45.0371 35.7111 45.1501 35.6882 45.2642 35.6882C45.3783 35.6882 45.4913 35.7111 45.5964 35.7555C45.7016 35.7999 45.7967 35.865 45.8763 35.9468C45.9559 36.0286 46.0182 36.1255 46.0597 36.2319C46.1012 36.3382 46.1209 36.4518 46.1177 36.5659V39.6305C46.1209 39.7446 46.1012 39.8582 46.0597 39.9645C46.0182 40.0709 45.9559 40.1678 45.8763 40.2496C45.7967 40.3314 45.7016 40.3965 45.5964 40.4409C45.4913 40.4853 45.3783 40.5082 45.2642 40.5082C45.1501 40.5082 45.0371 40.4853 44.9319 40.4409C44.8268 40.3965 44.7316 40.3314 44.6521 40.2496C44.5725 40.1678 44.5101 40.0709 44.4687 39.9645C44.4272 39.8582 44.4075 39.7446 44.4106 39.6305ZM44.4106 46.2828V43.2208C44.4075 43.1067 44.4272 42.9931 44.4687 42.8868C44.5101 42.7804 44.5725 42.6835 44.6521 42.6017C44.7316 42.5199 44.8268 42.4548 44.9319 42.4104C45.0371 42.366 45.1501 42.3431 45.2642 42.3431C45.3783 42.3431 45.4913 42.366 45.5964 42.4104C45.7016 42.4548 45.7967 42.5199 45.8763 42.6017C45.9559 42.6835 46.0182 42.7804 46.0597 42.8868C46.1012 42.9931 46.1209 43.1067 46.1177 43.2208V46.2838C46.1209 46.3979 46.1012 46.5114 46.0597 46.6178C46.0182 46.7241 45.9559 46.821 45.8763 46.9029C45.7967 46.9847 45.7016 47.0497 45.5964 47.0941C45.4913 47.1385 45.3783 47.1614 45.2642 47.1614C45.1501 47.1614 45.0371 47.1385 44.9319 47.0941C44.8268 47.0497 44.7316 46.9847 44.6521 46.9029C44.5725 46.821 44.5101 46.7241 44.4687 46.6178C44.4272 46.5114 44.4075 46.3979 44.4106 46.2838V46.2828ZM53.0318 52.9367V50.43C53.0318 50.2036 53.1217 49.9864 53.2819 49.8262C53.442 49.6661 53.6592 49.5762 53.8856 49.5762C54.1121 49.5762 54.3293 49.6661 54.4894 49.8262C54.6496 49.9864 54.7395 50.2036 54.7395 50.43V52.9367C54.7395 53.1632 54.6496 53.3803 54.4894 53.5405C54.3293 53.7006 54.1121 53.7906 53.8856 53.7906C53.6592 53.7906 53.442 53.7006 53.2819 53.5405C53.1217 53.3803 53.0318 53.1632 53.0318 52.9367ZM48.7227 46.8918V44.1067C48.7227 43.9946 48.7448 43.8836 48.7877 43.78C48.8306 43.6764 48.8935 43.5822 48.9728 43.503C49.0521 43.4237 49.1462 43.3608 49.2498 43.3179C49.3534 43.275 49.4644 43.2529 49.5766 43.2529C49.6887 43.2529 49.7997 43.275 49.9033 43.3179C50.0069 43.3608 50.1011 43.4237 50.1804 43.503C50.2596 43.5822 50.3225 43.6764 50.3654 43.78C50.4084 43.8836 50.4304 43.9946 50.4304 44.1067V46.8918C50.4304 47.0039 50.4084 47.1149 50.3654 47.2185C50.3225 47.3221 50.2596 47.4162 50.1804 47.4955C50.1011 47.5748 50.0069 47.6377 49.9033 47.6806C49.7997 47.7235 49.6887 47.7456 49.5766 47.7456C49.4644 47.7456 49.3534 47.7235 49.2498 47.6806C49.1462 47.6377 49.0521 47.5748 48.9728 47.4955C48.8935 47.4162 48.8306 47.3221 48.7877 47.2185C48.7448 47.1149 48.7227 47.0039 48.7227 46.8918ZM48.7227 40.8442V38.0575C48.7227 37.9454 48.7448 37.8343 48.7877 37.7307C48.8306 37.6271 48.8935 37.533 48.9728 37.4537C49.0521 37.3744 49.1462 37.3115 49.2498 37.2686C49.3534 37.2257 49.4644 37.2036 49.5766 37.2036C49.6887 37.2036 49.7997 37.2257 49.9033 37.2686C50.0069 37.3115 50.1011 37.3744 50.1804 37.4537C50.2596 37.533 50.3225 37.6271 50.3654 37.7307C50.4084 37.8343 50.4304 37.9454 50.4304 38.0575V40.8448C50.4304 41.0713 50.3405 41.2885 50.1804 41.4486C50.0202 41.6087 49.803 41.6987 49.5766 41.6987C49.3501 41.6987 49.1329 41.6087 48.9728 41.4486C48.8127 41.2885 48.7227 41.0713 48.7227 40.8448V40.8442ZM48.7227 52.938V50.1524C48.7227 49.9259 48.8127 49.7087 48.9728 49.5486C49.1329 49.3884 49.3501 49.2985 49.5766 49.2985C49.803 49.2985 50.0202 49.3884 50.1804 49.5486C50.3405 49.7087 50.4304 49.9259 50.4304 50.1524V52.9357C50.4304 53.0478 50.4084 53.1589 50.3654 53.2625C50.3225 53.3661 50.2596 53.4602 50.1804 53.5395C50.1011 53.6188 50.0069 53.6817 49.9033 53.7246C49.7997 53.7675 49.6887 53.7896 49.5766 53.7896C49.4644 53.7896 49.3534 53.7675 49.2498 53.7246C49.1462 53.6817 49.0521 53.6188 48.9728 53.5395C48.8935 53.4602 48.8306 53.3661 48.7877 53.2625C48.7448 53.1589 48.7227 53.0478 48.7227 52.9357V52.938ZM44.414 52.938V49.875C44.4108 49.7609 44.4305 49.6474 44.472 49.541C44.5134 49.4347 44.5758 49.3377 44.6554 49.2559C44.7349 49.1741 44.8301 49.1091 44.9352 49.0647C45.0404 49.0202 45.1534 48.9974 45.2675 48.9974C45.3816 48.9974 45.4946 49.0202 45.5997 49.0647C45.7049 49.1091 45.8 49.1741 45.8796 49.2559C45.9592 49.3377 46.0216 49.4347 46.063 49.541C46.1045 49.6474 46.1242 49.7609 46.121 49.875V52.938C46.1242 53.0521 46.1045 53.1657 46.063 53.272C46.0216 53.3783 45.9592 53.4753 45.8796 53.5571C45.8 53.6389 45.7049 53.704 45.5997 53.7484C45.4946 53.7928 45.3816 53.8157 45.2675 53.8157C45.1534 53.8157 45.0404 53.7928 44.9352 53.7484C44.8301 53.704 44.7349 53.6389 44.6554 53.5571C44.5758 53.4753 44.5134 53.3783 44.472 53.272C44.4305 53.1657 44.4108 53.0521 44.414 52.938ZM53.0334 42.0555V39.5481C53.0334 39.3217 53.1234 39.1045 53.2835 38.9443C53.4437 38.7842 53.6608 38.6942 53.8873 38.6942C54.1138 38.6942 54.3309 38.7842 54.4911 38.9443C54.6512 39.1045 54.7412 39.3217 54.7412 39.5481V42.0548C54.7412 42.1669 54.7191 42.278 54.6762 42.3816C54.6333 42.4852 54.5704 42.5793 54.4911 42.6586C54.4118 42.7379 54.3177 42.8008 54.2141 42.8437C54.1105 42.8866 53.9994 42.9087 53.8873 42.9087C53.7752 42.9087 53.6641 42.8866 53.5605 42.8437C53.4569 42.8008 53.3628 42.7379 53.2835 42.6586C53.2042 42.5793 53.1413 42.4852 53.0984 42.3816C53.0555 42.278 53.0334 42.1669 53.0334 42.0548V42.0555ZM53.0334 47.4977V44.9904C53.0334 44.7639 53.1234 44.5468 53.2835 44.3866C53.4437 44.2265 53.6608 44.1365 53.8873 44.1365C54.1138 44.1365 54.3309 44.2265 54.4911 44.3866C54.6512 44.5468 54.7412 44.7639 54.7412 44.9904V47.4971C54.7412 47.6092 54.7191 47.7202 54.6762 47.8238C54.6333 47.9274 54.5704 48.0216 54.4911 48.1009C54.4118 48.1801 54.3177 48.243 54.2141 48.2859C54.1105 48.3289 53.9994 48.3509 53.8873 48.3509C53.7752 48.3509 53.6641 48.3289 53.5605 48.2859C53.4569 48.243 53.3628 48.1801 53.2835 48.1009C53.2042 48.0216 53.1413 47.9274 53.0984 47.8238C53.0555 47.7202 53.0334 47.6092 53.0334 47.4971V47.4977ZM37.4695 46.0134V48.1835C37.4695 48.4099 37.3795 48.6271 37.2194 48.7873C37.0592 48.9474 36.842 49.0374 36.6156 49.0374C36.3891 49.0374 36.1719 48.9474 36.0118 48.7873C35.8517 48.6271 35.7617 48.4099 35.7617 48.1835V46.0134C35.7617 45.7869 35.8517 45.5697 36.0118 45.4096C36.1719 45.2495 36.3891 45.1595 36.6156 45.1595C36.842 45.1595 37.0592 45.2495 37.2194 45.4096C37.3795 45.5697 37.4695 45.7869 37.4695 46.0134ZM37.4695 50.7262V52.894C37.4695 53.1205 37.3795 53.3377 37.2194 53.4978C37.0592 53.6579 36.842 53.7479 36.6156 53.7479C36.3891 53.7479 36.1719 53.6579 36.0118 53.4978C35.8517 53.3377 35.7617 53.1205 35.7617 52.894V50.7262C35.7617 50.4998 35.8517 50.2826 36.0118 50.1225C36.1719 49.9623 36.3891 49.8724 36.6156 49.8724C36.842 49.8724 37.0592 49.9623 37.2194 50.1225C37.3795 50.2826 37.4695 50.4998 37.4695 50.7262ZM40.3617 40.6535V43.4736C40.3617 43.7001 40.2717 43.9173 40.1116 44.0774C39.9515 44.2375 39.7343 44.3275 39.5078 44.3275C39.2814 44.3275 39.0642 44.2375 38.9041 44.0774C38.7439 43.9173 38.654 43.7001 38.654 43.4736V40.6535C38.654 40.5414 38.676 40.4304 38.719 40.3268C38.7619 40.2232 38.8248 40.129 38.9041 40.0497C38.9833 39.9705 39.0775 39.9076 39.1811 39.8646C39.2847 39.8217 39.3957 39.7997 39.5078 39.7997C39.62 39.7997 39.731 39.8217 39.8346 39.8646C39.9382 39.9076 40.0323 39.9705 40.1116 40.0497C40.1909 40.129 40.2538 40.2232 40.2967 40.3268C40.3396 40.4304 40.3617 40.5414 40.3617 40.6535ZM40.3617 45.9075V48.1831C40.3617 48.4096 40.2717 48.6268 40.1116 48.7869C39.9515 48.9471 39.7343 49.037 39.5078 49.037C39.2814 49.037 39.0642 48.9471 38.9041 48.7869C38.7439 48.6268 38.654 48.4096 38.654 48.1831V45.9085C38.654 45.682 38.7439 45.4648 38.9041 45.3047C39.0642 45.1446 39.2814 45.0546 39.5078 45.0546C39.7343 45.0546 39.9515 45.1446 40.1116 45.3047C40.2717 45.4648 40.3617 45.682 40.3617 45.9085V45.9075ZM40.3617 50.6203V52.8917C40.3617 53.0038 40.3396 53.1149 40.2967 53.2185C40.2538 53.322 40.1909 53.4162 40.1116 53.4955C40.0323 53.5748 39.9382 53.6377 39.8346 53.6806C39.731 53.7235 39.62 53.7456 39.5078 53.7456C39.3957 53.7456 39.2847 53.7235 39.1811 53.6806C39.0775 53.6377 38.9833 53.5748 38.9041 53.4955C38.8248 53.4162 38.7619 53.322 38.719 53.2185C38.676 53.1149 38.654 53.0038 38.654 52.8917V50.6213C38.654 50.3949 38.7439 50.1777 38.9041 50.0175C39.0642 49.8574 39.2814 49.7674 39.5078 49.7674C39.7343 49.7674 39.9515 49.8574 40.1116 50.0175C40.2717 50.1777 40.3617 50.3949 40.3617 50.6213V50.6203ZM37.4695 41.2999V43.4736C37.4695 43.7001 37.3795 43.9173 37.2194 44.0774C37.0592 44.2375 36.842 44.3275 36.6156 44.3275C36.3891 44.3275 36.1719 44.2375 36.0118 44.0774C35.8517 43.9173 35.7617 43.7001 35.7617 43.4736V41.2999C35.7617 41.0734 35.8517 40.8562 36.0118 40.6961C36.1719 40.536 36.3891 40.446 36.6156 40.446C36.842 40.446 37.0592 40.536 37.2194 40.6961C37.3795 40.8562 37.4695 41.0734 37.4695 41.2999ZM22.4264 53.6168C22.1621 52.3119 22.1621 50.9672 22.4264 49.6622C22.4625 49.4869 22.5528 49.3274 22.6844 49.2061C22.8161 49.0849 22.9825 49.008 23.1602 48.9864L24.6124 48.8087C24.672 48.652 24.7365 48.4954 24.806 48.3387L23.9058 47.1873C23.7954 47.0464 23.7322 46.8743 23.725 46.6955C23.7178 46.5167 23.7671 46.3401 23.8658 46.1908C24.5996 45.0794 25.5509 44.1281 26.6624 43.3942C26.8116 43.2952 26.9883 43.2457 27.1672 43.2527C27.3462 43.2597 27.5185 43.3229 27.6595 43.4332L28.8113 44.3334C28.9679 44.2635 29.1246 44.199 29.2812 44.1398L29.4589 42.6876C29.4808 42.5099 29.558 42.3436 29.6796 42.2121C29.8012 42.0807 29.961 41.9908 30.1364 41.9552C30.293 41.9221 30.4631 41.8767 30.6441 41.8331C30.8251 41.7894 31.0062 41.7397 31.1978 41.6984C31.308 41.6732 31.4221 41.6701 31.5335 41.6894C31.6449 41.7086 31.7513 41.7498 31.8467 41.8105C31.9421 41.8712 32.0244 41.9503 32.089 42.043C32.1535 42.1358 32.199 42.2405 32.2228 42.351C32.2466 42.4615 32.2482 42.5757 32.2276 42.6868C32.2069 42.798 32.1644 42.9039 32.1025 42.9985C32.0406 43.093 31.9605 43.1744 31.8669 43.2378C31.7733 43.3011 31.668 43.3453 31.5572 43.3677C31.4007 43.4008 31.2398 43.4461 31.0816 43.4829L30.9102 44.8805C30.8901 45.0453 30.8223 45.2007 30.7151 45.3274C30.608 45.4542 30.466 45.5469 30.3069 45.5941C29.8938 45.7172 29.4946 45.8826 29.1154 46.0875C28.9692 46.1666 28.8032 46.2013 28.6376 46.1874C28.472 46.1734 28.314 46.1115 28.1831 46.0091L27.1115 45.1718C26.5625 45.5957 26.0698 46.088 25.6453 46.6366L26.4836 47.7082C26.586 47.8391 26.648 47.9971 26.6619 48.1627C26.6758 48.3283 26.6411 48.4944 26.5621 48.6405C26.3569 49.0196 26.1916 49.4189 26.0686 49.832C26.0212 49.9913 25.9284 50.1333 25.8014 50.2406C25.6745 50.3478 25.519 50.4158 25.3541 50.436L24.0034 50.6015C23.9167 51.2904 23.9167 51.9876 24.0034 52.6766L25.3541 52.842C25.5189 52.8623 25.6743 52.9301 25.8012 53.0373C25.9281 53.1444 26.021 53.2863 26.0686 53.4454C26.1916 53.8585 26.357 54.2577 26.5621 54.6368C26.6411 54.783 26.6757 54.9491 26.6618 55.1147C26.6479 55.2803 26.5859 55.4382 26.4836 55.5691L25.6453 56.6408C26.0702 57.1903 26.5636 57.6834 27.1134 58.1079L28.1851 57.2696C28.3159 57.1673 28.4736 57.1055 28.6391 57.0915C28.8045 57.0776 28.9704 57.1122 29.1164 57.1912C29.4957 57.3956 29.895 57.5607 30.3079 57.684C30.4671 57.7314 30.609 57.8243 30.7161 57.9512C30.8233 58.0781 30.8911 58.2336 30.9112 58.3985L31.0677 59.6849C31.1554 59.6849 31.2441 59.6787 31.3325 59.674C31.4461 59.6651 31.5602 59.679 31.6683 59.7149C31.7764 59.7508 31.8763 59.8079 31.9619 59.883C32.0476 59.958 32.1174 60.0495 32.1672 60.1519C32.217 60.2543 32.2458 60.3657 32.2519 60.4794C32.258 60.5932 32.2413 60.707 32.2028 60.8141C32.1643 60.9213 32.1047 61.0197 32.0276 61.1035C31.9504 61.1873 31.8573 61.2549 31.7537 61.3021C31.6501 61.3494 31.538 61.3755 31.4242 61.3788C31.2676 61.3874 31.1015 61.3943 30.9277 61.3943C30.6621 61.3973 30.3967 61.3737 30.1358 61.3238C29.9603 61.2882 29.8005 61.1983 29.6789 61.0669C29.5574 60.9354 29.4802 60.7691 29.4583 60.5914L29.2806 59.1392C29.124 59.0796 28.9671 59.0147 28.8106 58.9456L27.6579 59.8418C27.5167 59.952 27.3445 60.015 27.1656 60.022C26.9867 60.029 26.81 59.9797 26.6607 59.8809C25.5496 59.1466 24.5984 58.1953 23.8641 57.0843C23.7655 56.9348 23.7162 56.7582 23.7234 56.5792C23.7306 56.4003 23.7938 56.2281 23.9041 56.0871L24.8044 54.9357C24.7344 54.7812 24.6699 54.6246 24.6107 54.4657L23.1585 54.288C22.9817 54.2664 22.8161 54.1902 22.6848 54.0698C22.5536 53.9495 22.4632 53.7911 22.4264 53.6168ZM29.5936 51.6403C29.5963 52.2121 29.7924 52.766 30.1501 53.2121C30.5077 53.6582 31.0057 53.9701 31.5632 54.097C31.769 54.1422 31.9508 54.2619 32.0737 54.433C32.1966 54.6041 32.2519 54.8147 32.2289 55.0241C32.2059 55.2335 32.1064 55.4271 31.9493 55.5675C31.7923 55.708 31.5889 55.7854 31.3782 55.7849C31.3155 55.7846 31.2531 55.7778 31.1918 55.7644C30.2543 55.555 29.416 55.0324 28.8153 54.2827C28.2146 53.533 27.8872 52.601 27.8872 51.6403C27.8872 50.6797 28.2146 49.7477 28.8153 48.998C29.416 48.2483 30.2543 47.7257 31.1918 47.5163C31.3024 47.4888 31.4172 47.4838 31.5297 47.5014C31.6422 47.519 31.7501 47.5589 31.8469 47.6189C31.9437 47.6788 32.0276 47.7574 32.0936 47.8502C32.1595 47.9431 32.2063 48.0481 32.231 48.1593C32.2558 48.2704 32.2581 48.3854 32.2378 48.4974C32.2174 48.6094 32.1749 48.7163 32.1127 48.8116C32.0505 48.907 31.9698 48.9889 31.8754 49.0527C31.781 49.1164 31.6749 49.1606 31.5632 49.1826C31.0055 49.3098 30.5074 49.622 30.1498 50.0684C29.7921 50.5148 29.5961 51.069 29.5936 51.641V51.6403Z" fill="#F0EFED"/>
</svg>
