<svg width="80" height="80" viewBox="0 0 80 80" fill="none" xmlns="http://www.w3.org/2000/svg">
<rect width="80" height="80" rx="40" fill="#8F806C"/>
<g clip-path="url(#clip0_199_2593)">
<path fill-rule="evenodd" clip-rule="evenodd" d="M36.2523 47.5774C36.0857 47.5759 35.9217 47.6189 35.7772 47.7019C35.7172 47.7414 35.6696 47.7971 35.6397 47.8624C35.6072 47.9424 35.5926 48.0285 35.5971 48.1147C35.6451 48.5122 35.8003 48.8893 36.0459 49.2056L36.9894 50.5389C37.3372 51.1459 37.7623 51.7053 38.2539 52.2031C38.7396 52.6708 39.388 52.9315 40.0623 52.9304C40.4153 52.9378 40.7662 52.8744 41.0942 52.7439C41.4223 52.6133 41.7208 52.4183 41.9722 52.1704C42.4859 51.6393 42.9266 51.0422 43.2826 50.3948L44.3538 48.8288C44.5178 48.5472 44.5963 48.2239 44.5799 47.8984C44.5504 47.7936 44.4357 47.7412 44.2523 47.7346C44.2097 47.7313 44.167 47.7313 44.1245 47.7346H43.9771C43.95 47.7396 43.9223 47.7396 43.8952 47.7346C43.7977 47.7405 43.6999 47.735 43.6036 47.7183L43.9673 46.1097C41.2711 46.5356 39.2531 44.5307 36.403 45.7101L36.5799 47.5938C36.4709 47.6041 36.3612 47.6041 36.2523 47.5938V47.5774ZM28.4947 56.3047V35.2269H21.0418V56.8485H28.0623C27.8509 57.1738 27.7144 57.5419 27.6626 57.9263L27.6429 58.018H20.4587C20.3043 58.018 20.1561 57.9571 20.0463 57.8486C19.9365 57.74 19.874 57.5926 19.8723 57.4382V34.9124C19.874 34.6842 19.9644 34.4656 20.1245 34.303C20.2045 34.223 20.2995 34.1596 20.4041 34.1163C20.5086 34.073 20.6207 34.0508 20.7338 34.0508H28.4947V21.0287C28.4937 20.8939 28.5199 20.7604 28.5717 20.636C28.6234 20.5116 28.6998 20.3989 28.7961 20.3047C28.8911 20.2083 29.0043 20.1317 29.1292 20.0794C29.254 20.0271 29.388 20.0001 29.5234 20H50.3849C50.5201 19.9997 50.6539 20.0261 50.7788 20.0779C50.9036 20.1296 51.0169 20.2056 51.1122 20.3014L51.1581 20.3505C51.3252 20.5368 51.4174 20.7784 51.4169 21.0287V34.0508H59.2793C59.5068 34.0512 59.7247 34.142 59.8854 34.303C59.965 34.382 60.0283 34.4758 60.0716 34.5793C60.1149 34.6827 60.1373 34.7937 60.1376 34.9058V57.4316C60.1376 57.5086 60.1224 57.5849 60.093 57.656C60.0635 57.7272 60.0203 57.7918 59.9659 57.8463C59.9114 57.9007 59.8468 57.9439 59.7756 57.9734C59.7045 58.0029 59.6282 58.018 59.5512 58.018H52.3571L52.3374 57.9263C52.2848 57.5421 52.1483 57.1741 51.9378 56.8485H58.9582V35.2269H51.4234V56.1933L51.1483 55.8428C50.9384 55.5683 50.6989 55.3178 50.4341 55.0958L50.2539 54.955V21.1695H29.6642V55.0238L29.5791 55.0926C29.3107 55.3117 29.0698 55.5625 28.8616 55.8395C28.7207 56.0229 28.5995 56.1671 28.4947 56.3047ZM53.7035 46.4275H56.1343C56.1868 46.4275 56.2326 46.4603 56.2326 46.4996V48.4062C56.2326 48.4455 56.1868 48.4816 56.1343 48.4816H53.7035C53.6511 48.4816 53.6053 48.4488 53.6053 48.4062V46.4996C53.6053 46.4603 53.6511 46.4275 53.7035 46.4275ZM23.8035 46.4275H26.2343C26.2867 46.4275 26.3325 46.4603 26.3325 46.4996V48.4062C26.3325 48.4455 26.2867 48.4816 26.2343 48.4816H23.8035C23.751 48.4816 23.7052 48.4488 23.7052 48.4062V46.4996C23.7052 46.4603 23.751 46.4275 23.8035 46.4275ZM32.2883 23.4398H47.6233C47.747 23.4407 47.8653 23.4904 47.9524 23.5782C48.0396 23.6659 48.0885 23.7846 48.0885 23.9083V30.742C48.0885 30.8657 48.0396 30.9844 47.9524 31.0721C47.8653 31.1599 47.747 31.2096 47.6233 31.2105H32.2883C32.1643 31.2096 32.0457 31.16 31.958 31.0723C31.8703 30.9847 31.8207 30.866 31.8198 30.742V23.9083C31.8198 23.784 31.8692 23.6649 31.957 23.577C32.0449 23.4892 32.1641 23.4398 32.2883 23.4398ZM53.7035 42.2572H56.1343C56.1868 42.2572 56.2326 42.2899 56.2326 42.3292V44.2424C56.2326 44.2785 56.1868 44.3145 56.1343 44.3145H53.7035C53.6511 44.3145 53.6053 44.2817 53.6053 44.2424V42.3292C53.6053 42.2834 53.6511 42.2572 53.7035 42.2572ZM53.7035 38.0803H56.1343C56.1868 38.0803 56.2326 38.113 56.2326 38.1523V40.0622C56.2326 40.0983 56.1868 40.1343 56.1343 40.1343H53.7035C53.6511 40.1343 53.6053 40.1016 53.6053 40.0622V38.1523C53.6053 38.113 53.6511 38.0803 53.7035 38.0803ZM23.8035 42.2572H26.2343C26.2867 42.2572 26.3325 42.2899 26.3325 42.3292V44.2424C26.3325 44.2785 26.2867 44.3145 26.2343 44.3145H23.8035C23.751 44.3145 23.7052 44.2817 23.7052 44.2424V42.3292C23.7052 42.2834 23.751 42.2572 23.8035 42.2572ZM23.8035 38.0803H26.2343C26.2867 38.0803 26.3325 38.113 26.3325 38.1523V40.0622C26.3325 40.0983 26.2867 40.1343 26.2343 40.1343H23.8035C23.751 40.1343 23.7052 40.1016 23.7052 40.0622V38.1523C23.7052 38.113 23.751 38.0803 23.8035 38.0803ZM44.57 40.6388H47.6069C47.6324 40.6397 47.6566 40.6504 47.6743 40.6687C47.692 40.6871 47.7019 40.7116 47.7019 40.7371V44.1933C47.7019 44.2185 47.6919 44.2426 47.6741 44.2605C47.6563 44.2783 47.6321 44.2883 47.6069 44.2883H46.3817C46.3321 43.7002 46.1952 43.1227 45.9754 42.5749C45.7517 42.0242 45.4323 41.5173 45.032 41.0778C44.8861 40.9232 44.7319 40.7767 44.57 40.6388ZM32.3014 40.6388H35.7478C35.4765 40.8696 35.2286 41.1263 35.0074 41.4054C34.6086 41.9093 34.3135 42.4871 34.1392 43.1057C34.0967 43.2596 34.0606 43.407 34.0344 43.5512C34.0082 43.6953 33.9886 43.8362 33.9722 43.9902V44.0819C33.9722 44.1441 33.9722 44.2129 33.9722 44.2785H32.3014C32.2759 44.2785 32.2514 44.2686 32.233 44.2508C32.2147 44.2331 32.204 44.209 32.2031 44.1835V40.7437C32.2039 40.7178 32.2146 40.6933 32.2328 40.6751C32.2511 40.6568 32.2756 40.6462 32.3014 40.6454V40.6388ZM44.1573 33.9492H47.6069C47.6324 33.9501 47.6566 33.9608 47.6743 33.9791C47.692 33.9975 47.7019 34.022 47.7019 34.0475V37.4971C47.7019 37.5226 47.692 37.5472 47.6743 37.5655C47.6566 37.5838 47.6324 37.5946 47.6069 37.5954H44.1573C44.1315 37.5946 44.1069 37.584 44.0887 37.5657C44.0704 37.5475 44.0598 37.5229 44.059 37.4971V34.0475C44.0598 34.0217 44.0704 33.9972 44.0887 33.9789C44.1069 33.9607 44.1315 33.95 44.1573 33.9492ZM38.2277 33.9492H41.6773C41.7031 33.95 41.7277 33.9607 41.7459 33.9789C41.7642 33.9972 41.7748 34.0217 41.7756 34.0475V37.4971C41.7748 37.5229 41.7642 37.5475 41.7459 37.5657C41.7277 37.584 41.7031 37.5946 41.6773 37.5954H38.2179C38.1921 37.5946 38.1675 37.584 38.1493 37.5657C38.131 37.5475 38.1204 37.5229 38.1196 37.4971V34.0475C38.1204 34.0217 38.131 33.9972 38.1493 33.9789C38.1675 33.9607 38.1921 33.95 38.2179 33.9492H38.2277ZM32.3014 33.9492H35.751C35.7768 33.95 35.8014 33.9607 35.8196 33.9789C35.8379 33.9972 35.8485 34.0217 35.8493 34.0475V37.4971C35.8485 37.5229 35.8379 37.5475 35.8196 37.5657C35.8014 37.584 35.7768 37.5946 35.751 37.5954H32.3014C32.2756 37.5946 32.2511 37.584 32.2328 37.5657C32.2146 37.5475 32.2039 37.5229 32.2031 37.4971V34.0475C32.2039 34.0217 32.2146 33.9972 32.2328 33.9789C32.2511 33.9607 32.2756 33.95 32.3014 33.9492ZM37.9722 55.5708V53.7068C38.6039 53.8668 39.202 54.1387 39.7379 54.5094C39.8712 54.4672 40.0124 54.456 40.1507 54.4767L42.1163 53.5954L42.0442 55.6527C41.5959 55.5476 41.1631 55.3846 40.7568 55.1679C40.7507 55.2954 40.7219 55.4208 40.6716 55.5381L41.4939 58.4144C42.1491 57.0614 42.8043 55.7183 42.9582 54.1851C42.6878 53.8526 42.4352 53.5059 42.2015 53.1466C42.1294 53.045 42.0672 52.95 42.0017 52.8616C41.4177 53.2831 40.7095 53.497 39.9899 53.4691C39.2702 53.4412 38.5807 53.1731 38.0311 52.7076C37.9427 52.8288 37.8444 52.973 37.7396 53.1302C37.5365 53.4218 37.3137 53.7527 37.0844 54.0279C37.3694 55.8067 38.0508 57.0582 38.67 58.3948L39.5021 55.5086C39.4092 55.3674 39.3529 55.2053 39.3383 55.0369L37.9754 55.5446L37.9722 55.5708ZM42.3293 52.5995L42.5487 52.9271C42.6929 53.1433 42.8567 53.3792 43.0139 53.5823C44.118 54.5356 47.2727 54.7322 48.4554 55.3907C48.837 55.5999 49.1715 55.8854 49.4382 56.2293C50.1196 57.1269 50.1786 57.8411 50.421 58.9419C50.3587 59.5971 49.9951 59.9541 49.2777 60.0098H30.7125C29.9951 59.9574 29.6315 59.5872 29.5692 58.9419C29.8149 57.8378 29.8739 57.1302 30.552 56.2293C30.817 55.8838 31.1519 55.598 31.5348 55.3907C32.6552 54.7682 35.5578 54.5586 36.7764 53.7232C36.9697 53.4742 37.1695 53.1794 37.3497 52.9173C37.4611 52.7535 37.5627 52.5897 37.6511 52.4849C37.6644 52.4645 37.6824 52.4476 37.7035 52.4357C37.2572 51.9469 36.8641 51.4121 36.5307 50.8403L35.6134 49.484C35.3136 49.085 35.1289 48.6114 35.0795 48.1147C35.0698 47.9469 35.1013 47.7794 35.1712 47.6265C35.2424 47.4724 35.356 47.3417 35.4988 47.2498C35.5702 47.2015 35.6472 47.1619 35.7281 47.1319C35.6617 46.2347 35.6464 45.3346 35.6822 44.4357C35.734 43.8914 35.9161 43.3675 36.2132 42.9084C36.5103 42.4494 36.9136 42.0687 37.389 41.7985C37.659 41.6287 37.9468 41.4891 38.2474 41.3825C38.7879 41.1859 38.5258 40.3571 39.1286 40.3407C40.534 40.3112 42.8403 41.5004 43.7412 42.4734C44.3087 43.1119 44.6344 43.9291 44.6618 44.783L44.6028 47.2269C44.7256 47.259 44.837 47.3248 44.9244 47.4168C45.0118 47.5089 45.0717 47.6235 45.0975 47.7477C45.1492 48.1935 45.0586 48.6441 44.8387 49.0352V49.0647L43.7641 50.6732C43.3875 51.3641 42.9179 52.0001 42.3686 52.5635L42.3456 52.5897L42.3293 52.5995Z" fill="#F0EFED"/>
</g>
<defs>
<clipPath id="clip0_199_2593">
<rect width="40.2555" height="40" fill="white" transform="translate(19.8723 20)"/>
</clipPath>
</defs>
</svg>
