<svg width="44" height="44" viewBox="0 0 44 44" fill="none" xmlns="http://www.w3.org/2000/svg">
<rect x="0.5" y="0.5" width="43" height="43" rx="21.5" fill="#F0EFED" stroke="#F0EFED"/>
<path d="M28.458 15.8971C27.1365 15.012 26.3358 13.5056 26.3358 11.8857H22.9833L22.9768 25.6699C22.9182 27.2631 21.6098 28.509 20.0572 28.4455C18.5047 28.3854 17.2906 27.0427 17.3525 25.4495C17.4111 23.8964 18.6544 22.6706 20.1679 22.6706C20.4511 22.6706 20.731 22.7174 20.9979 22.8042V19.2905C20.7212 19.2504 20.4446 19.2304 20.1679 19.2271C16.7666 19.2271 14 22.0661 14 25.5564C14.0065 29.05 16.7634 31.8824 20.1712 31.8857C23.5725 31.8857 26.3391 29.0467 26.3391 25.5564V18.5691C27.6963 19.5711 29.327 20.1122 31 20.1088V16.6686C30.0952 16.672 29.2131 16.4014 28.458 15.8971Z" fill="#02464F"/>
</svg>
