<svg width="28" height="28" viewBox="0 0 28 28" fill="none" xmlns="http://www.w3.org/2000/svg">
<path d="M13.9307 0C21.6241 0.000116995 27.8613 6.23716 27.8613 13.9307C27.8612 21.6241 21.6241 27.8612 13.9307 27.8613C6.23716 27.8613 0.000117003 21.6241 0 13.9307C0 6.23709 6.23709 0 13.9307 0ZM14.2773 8.00098C12.5321 8.00432 12.3132 8.01151 11.6279 8.04492C10.9441 8.07718 10.4766 8.18629 10.0684 8.34668C9.64579 8.51136 9.28703 8.73223 8.93066 9.08984C8.5743 9.44749 8.35495 9.8063 8.19141 10.2295C8.03313 10.6387 7.92572 11.1066 7.89551 11.791C7.8653 12.4752 7.85896 12.6953 7.8623 14.4404C7.86565 16.1858 7.8731 16.4054 7.90625 17.0908C7.9389 17.7745 8.04761 18.242 8.20801 18.6504C8.37297 19.073 8.59433 19.4316 8.95215 19.7881C9.30981 20.1444 9.66771 20.3636 10.0918 20.5273C10.5006 20.6853 10.9683 20.7933 11.6523 20.8232C12.3366 20.8532 12.5575 20.8598 14.3027 20.8564C16.0478 20.8531 16.2676 20.845 16.9531 20.8125C17.6387 20.78 18.1032 20.6704 18.5117 20.5107C18.9343 20.3454 19.2931 20.1255 19.6494 19.7676C20.0057 19.4096 20.2253 19.0505 20.3887 18.627C20.547 18.2183 20.6539 17.7507 20.6836 17.0674C20.7136 16.3812 20.7211 16.1615 20.7178 14.416C20.7144 12.6709 20.7063 12.4519 20.6738 11.7666C20.6413 11.0811 20.5324 10.6148 20.3721 10.2061C20.2069 9.78366 19.9864 9.42598 19.6289 9.06934C19.2713 8.71264 18.9125 8.49309 18.4893 8.33008C18.0801 8.17181 17.612 8.06375 16.9277 8.03418C16.2437 8.00462 16.023 7.99763 14.2773 8.00098ZM14.2793 9.16016C15.9954 9.15643 16.1997 9.16255 16.8779 9.19238C17.504 9.21967 17.8449 9.32359 18.0713 9.41113C18.3717 9.52684 18.5856 9.6659 18.8115 9.89062C19.0374 10.1154 19.1767 10.3293 19.2939 10.6299C19.3825 10.8558 19.487 11.1957 19.5166 11.8223C19.5489 12.5001 19.5565 12.7034 19.5596 14.4189C19.5627 16.1349 19.557 16.3392 19.5273 17.0166C19.5 17.6433 19.3959 17.9839 19.3086 18.2109C19.1929 18.5111 19.0536 18.7254 18.8291 18.9512C18.6047 19.1768 18.3906 19.3154 18.0908 19.4326C17.8645 19.5209 17.5235 19.6264 16.8975 19.6562C16.2197 19.6881 16.0163 19.6955 14.2998 19.6992C12.5835 19.7029 12.3808 19.6953 11.7031 19.666C11.0766 19.6388 10.7356 19.5354 10.5088 19.4482C10.2086 19.3326 9.99447 19.1924 9.76855 18.9688C9.54261 18.745 9.40336 18.53 9.28613 18.2305C9.19806 18.0037 9.09181 17.6629 9.0625 17.0361C9.03063 16.359 9.02424 16.1553 9.02051 14.4395C9.01678 12.7231 9.02303 12.5195 9.05273 11.8418C9.07951 11.2158 9.18446 10.8751 9.27148 10.6484C9.38719 10.3477 9.52664 10.1341 9.75098 9.9082C9.97531 9.68235 10.1893 9.54303 10.4893 9.42578C10.7158 9.33732 11.0561 9.23198 11.6826 9.20215C12.3604 9.17002 12.5637 9.16388 14.2793 9.16016ZM14.2832 11.1279C12.4605 11.1317 10.986 12.612 10.9893 14.4346C10.9929 16.2576 12.4732 17.7328 14.2959 17.7295C16.1187 17.726 17.5943 16.245 17.5908 14.4219C17.5872 12.5988 16.1062 11.1243 14.2832 11.1279ZM13.4658 12.4502C13.8571 12.2872 14.2883 12.2443 14.7041 12.3262C15.1199 12.4081 15.5025 12.6111 15.8027 12.9102C16.1028 13.2091 16.3071 13.5906 16.3906 14.0059C16.4741 14.4212 16.4328 14.8524 16.2715 15.2441C16.1101 15.636 15.8362 15.9718 15.4844 16.208C15.1324 16.4442 14.7178 16.5704 14.2939 16.5713C14.0126 16.5718 13.7338 16.5173 13.4736 16.4102C13.2135 16.303 12.9767 16.1458 12.7773 15.9473C12.578 15.7487 12.4197 15.5126 12.3115 15.2529C12.2033 14.9931 12.148 14.714 12.1475 14.4326C12.1466 14.0088 12.2711 13.5941 12.5059 13.2412C12.7406 12.8885 13.0747 12.6131 13.4658 12.4502ZM17.7129 10.2197C17.5085 10.2202 17.3123 10.3024 17.168 10.4473C17.0238 10.5921 16.943 10.7888 16.9434 10.9932C16.9437 11.1456 16.9894 11.2943 17.0742 11.4209C17.1592 11.5476 17.2798 11.6469 17.4209 11.7051C17.5618 11.7631 17.7168 11.7779 17.8662 11.748C18.0158 11.718 18.154 11.6442 18.2617 11.5361C18.3693 11.4281 18.4422 11.2902 18.4717 11.1406C18.5011 10.991 18.4853 10.8361 18.4268 10.6953C18.3682 10.5546 18.2694 10.4341 18.1426 10.3496C18.0155 10.2651 17.8655 10.2194 17.7129 10.2197Z" fill="#8F806C"/>
</svg>
