<svg width="127" height="52" viewBox="0 0 127 52" fill="none" xmlns="http://www.w3.org/2000/svg">
<path d="M15.0189 23.3363L13.9535 24.5316C13.3299 23.9426 12.4637 23.4315 11.355 22.9984C10.2463 22.5654 8.98172 22.3488 7.5612 22.3488C6.24463 22.3488 5.10129 22.6173 4.13118 23.1544C3.16108 23.6914 2.67602 24.5142 2.67602 25.6229C2.67602 26.0214 2.74532 26.3635 2.8839 26.6493C3.02249 26.9352 3.26069 27.1734 3.59849 27.3639C3.9363 27.5545 4.24378 27.7061 4.52096 27.8187C4.79813 27.9313 5.22689 28.0222 5.80722 28.0915C6.38755 28.1608 6.82929 28.2084 7.13245 28.2344C7.43561 28.2604 7.92499 28.2907 8.6006 28.3254C9.1896 28.36 9.64866 28.3903 9.97781 28.4163C10.3069 28.4423 10.779 28.5029 11.394 28.5982C12.009 28.6935 12.5027 28.8061 12.8751 28.936C13.2476 29.0659 13.6763 29.2522 14.1614 29.4947C14.6464 29.7372 15.0276 30.0187 15.3047 30.3392C15.5819 30.6597 15.8158 31.0625 16.0063 31.5475C16.1969 32.0326 16.2922 32.5783 16.2922 33.1846C16.2922 34.9862 15.5689 36.3461 14.1224 37.2642C12.6759 38.1824 10.8526 38.6414 8.65257 38.6414C5.36114 38.6414 2.47724 37.4894 0 35.1854L1.06539 33.9901C3.31742 36.0862 5.85485 37.1343 8.67899 37.1343C10.3767 37.1343 11.7799 36.8181 12.8886 36.1858C13.9973 35.5535 14.5516 34.6224 14.5516 33.3924C14.5516 32.8381 14.4303 32.3617 14.1878 31.9633C13.9453 31.5648 13.6508 31.253 13.3043 31.0278C12.9579 30.8026 12.4901 30.6164 11.9011 30.4691C11.3121 30.3219 10.7924 30.2223 10.342 30.1703C9.89162 30.1183 9.31129 30.0664 8.60104 30.0144C7.92543 29.9797 7.40139 29.9451 7.02894 29.9105C6.65649 29.8758 6.15845 29.8195 5.53481 29.7416C4.91117 29.6636 4.41745 29.5683 4.05366 29.4557C3.68987 29.3431 3.28277 29.1786 2.83237 28.962C2.38196 28.7455 2.03983 28.4986 1.80596 28.2214C1.5721 27.9443 1.36855 27.5935 1.19531 27.169C1.02208 26.7446 0.935464 26.2726 0.935464 25.7529C0.935464 24.8694 1.13901 24.0985 1.54611 23.4402C1.95321 22.7819 2.49889 22.2709 3.18316 21.9071C3.86743 21.5433 4.58202 21.2791 5.32692 21.1145C6.07183 20.95 6.84272 20.8677 7.63959 20.8677C9.19869 20.8677 10.6235 21.1189 11.9141 21.6212C13.2047 22.1236 14.2398 22.6953 15.0193 23.3363H15.0189ZM24.1492 29.7026C24.1492 27.26 25.05 25.1769 26.8516 23.4532C28.6532 21.7295 30.8533 20.8677 33.4518 20.8677C36.0676 20.8677 38.2846 21.7295 40.1035 23.4532C41.9225 25.1769 42.8319 27.26 42.8319 29.7026C42.8319 32.1798 41.9225 34.2889 40.1035 36.0299C38.2846 37.7709 36.0672 38.6414 33.4518 38.6414C30.8533 38.6414 28.6532 37.7709 26.8516 36.0299C25.05 34.2889 24.1492 32.1798 24.1492 29.7026ZM25.9941 29.7026C25.9941 31.7467 26.7173 33.4877 28.1638 34.9256C29.6103 36.3634 31.373 37.0823 33.4518 37.0823C35.5652 37.0823 37.3534 36.3634 38.8172 34.9256C40.2811 33.4877 41.013 31.7467 41.013 29.7026C41.013 27.6757 40.2811 25.9521 38.8172 24.5316C37.3534 23.1111 35.5652 22.4008 33.4518 22.4008C31.373 22.4008 29.6103 23.1111 28.1638 24.5316C26.7173 25.9521 25.9941 27.6757 25.9941 29.7026ZM52.4559 21.2575H54.1969V36.6661H65.1106V38.2252H52.4563V21.2575H52.4559ZM73.0451 38.2252H71.2522L79.1256 21.2575H80.8406L88.7141 38.2252H86.8172L84.2966 32.7164H75.5397L73.0451 38.2252ZM79.8532 23.2843L76.1893 31.3136H83.673L80.0091 23.2843H79.8532Z" fill="#F0E5CF"/>
<path d="M96.3841 29.9762H107.324V16.1154H125.407V7.23412H107.324V5.29218H105.977V28.6297H97.7699V5.24974H96.3841V29.9762ZM108.068 31.4643H94.896V3.76123H99.258V27.1412H104.489V3.80367H108.812V5.74562H126.895V17.6034H108.812V31.4643H108.068H108.068ZM107.324 14.024V8.61956H124.176V14.768H107.324V14.024ZM108.812 10.1076V13.2795H122.688V10.1076H108.812Z" fill="#F0E5CF"/>
<path d="M95.6399 30.7204H108.068V16.8596H126.151V6.49025H108.068V4.5483H105.233V27.8859H98.5138V4.50586H95.6399V30.7208V30.7204ZM108.068 14.0242V9.36376H123.432V14.0242H108.068Z" fill="#F0E5CF"/>
<path d="M96.4209 36.6721H125.407V28.6817H114.502V23.2959H125.407V21.949H113.15L113.125 29.9818H124.099V35.3252H96.4214V36.6721H96.4209ZM126.151 38.1602H94.9329V33.8371H122.611V31.4699H111.638L111.672 20.4609H126.895V24.784H115.99V27.1932H126.895V38.1597H126.151L126.151 38.1602Z" fill="#F0E5CF"/>
<path d="M95.6768 37.4163H126.151V27.9378H115.246V24.04H126.151V21.2051H112.411L112.382 30.726H123.355V34.5813H95.6768V37.4163Z" fill="#F0E5CF"/>
<path d="M9.51696 1.19184V12.481C9.51696 12.6595 9.54685 12.8387 9.60618 12.9873H6.09127V3.15761L3.857 4.34902V12.9873H1.3252V13.9704H8.83183L9.66594 13.1064C9.87426 13.6127 10.4104 13.9704 11.0063 13.9704H11.7508V0L9.51696 1.19184ZM26.2574 12.9873H25.2448V8.66816C25.2448 5.45121 22.8022 3.36636 19.7637 3.36636C16.6958 3.36636 14.2532 5.45165 14.2532 8.66816C14.2532 11.8855 16.6958 13.9704 19.7637 13.9704H22.2362L23.0105 13.1363V13.196C23.0105 16.9188 20.8659 17.6048 19.7637 17.6048L20.6277 18.4983C23.0703 18.1704 24.8871 16.4723 25.1855 13.9704H26.2578C26.3769 13.9704 26.4367 13.8807 26.4367 13.7915V13.1662C26.4367 13.0765 26.3769 12.9873 26.2578 12.9873H26.2574ZM19.7637 12.9873C18.6624 12.9873 16.5173 12.3619 16.5173 8.66816C16.5173 4.97482 18.662 4.34902 19.7637 4.34902C20.836 4.34902 23.0105 4.97482 23.0105 8.66816V12.9873H19.7637ZM81.0528 4.498C79.8315 4.52788 79.5041 4.55733 71.2231 5.89816L70.4189 6.73228V4.11082L68.1846 5.30224V12.9873H26.2574C26.1383 12.9873 26.0785 13.0769 26.0785 13.1662V13.7915C26.0785 13.8807 26.1383 13.9704 26.2574 13.9704H83.2273L84.0614 13.1064C84.3 13.6127 84.8059 13.9704 85.4018 13.9704H86.1762V9.62137C86.1762 5.95792 84.1506 4.46811 81.0528 4.498ZM70.4189 12.9873V6.99992C79.9805 5.51055 80.1888 5.51055 81.0528 5.54043C83.3169 5.62965 83.9124 7.17879 83.9124 9.47196V12.4806C83.9124 12.6595 83.9423 12.8383 84.0017 12.9869H70.4189V12.9873Z" fill="#F0E5CF"/>
<path d="M4.24249 44.1925L3.6994 43.6494L3.14462 44.1925L3.6994 44.7473L4.24249 44.1925ZM3.62967 44.9786L3.07489 44.435L2.53181 44.9786L3.07489 45.5333L3.62967 44.9786ZM4.32347 45.5333L4.86656 44.9786L4.32347 44.435L3.76869 44.9786L4.32347 45.5333ZM7.92975 49.105H7.27104V45.6602L6.404 46.1223V48.9079C6.404 48.9772 6.4157 49.0465 6.43865 49.1045H2.12687C1.71068 49.1045 0.867034 48.8616 0.867034 47.4285V45.9257L0 46.3878V47.4281C0 48.6762 0.948019 49.4857 2.12687 49.4857H6.13765L6.46117 49.1504C6.55385 49.3471 6.75004 49.4857 6.98131 49.4857H7.92932C7.96397 49.4857 7.99862 49.451 7.99862 49.4164V49.1738C7.99862 49.1392 7.96397 49.1045 7.92932 49.1045L7.92975 49.105ZM10.7734 49.105H10.1264V45.6602L9.24763 46.1223V48.9079C9.24763 48.9772 9.25932 49.0465 9.28228 49.1045H7.92975C7.88341 49.1045 7.86046 49.1392 7.86046 49.1738V49.4164C7.86046 49.451 7.88385 49.4857 7.92975 49.4857H8.98171L9.30523 49.1504C9.39791 49.3471 9.60579 49.4857 9.82536 49.4857H10.7734C10.8197 49.4857 10.8427 49.451 10.8427 49.4164V49.1738C10.8427 49.1392 10.8193 49.1045 10.7734 49.1045V49.105ZM7.9761 50.7927L8.51918 51.3358L9.07396 50.7927L8.51918 50.2492L7.9761 50.7927ZM9.14369 50.7927L9.68721 51.3358L10.242 50.7927L9.68721 50.2492L9.14369 50.7927ZM12.3918 44.1925L11.8487 43.6494L11.2939 44.1925L11.8487 44.7473L12.3918 44.1925ZM11.779 44.9786L11.2242 44.435L10.6811 44.9786L11.2242 45.5333L11.779 44.9786ZM12.4728 45.5333L13.0159 44.9786L12.4728 44.435L11.918 44.9786L12.4728 45.5333ZM12.0913 48.9083C12.0913 48.9776 12.1029 49.0469 12.1259 49.105H10.7734C10.727 49.105 10.7041 49.1396 10.7041 49.1743V49.4168C10.7041 49.4514 10.7275 49.4861 10.7734 49.4861H11.837L12.1489 49.1509C12.2415 49.3475 12.4494 49.4861 12.669 49.4861H12.9695V45.6602L12.0908 46.1223V48.9079L12.0913 48.9083ZM14.6456 43.7066H15.455V43.487H14.8309C14.646 43.487 14.5421 43.3484 14.5421 43.0825C14.5421 42.8166 14.646 42.678 14.8309 42.678C15.0042 42.678 15.1085 42.782 15.1315 42.9898L15.4784 42.7932C15.3511 42.5853 15.1085 42.458 14.8309 42.458C14.4494 42.458 14.1259 42.701 14.1259 43.0821C14.1259 43.2553 14.1952 43.4056 14.3108 43.5095C14.1029 43.5442 13.9293 43.6252 13.8253 43.7754L14.1605 43.9374C14.2762 43.6832 14.5533 43.7062 14.646 43.7062L14.6456 43.7066ZM15.8942 49.105H15.2471V44.0652L14.3684 44.5277V49.4865H15.8942C15.9405 49.4865 15.9634 49.4519 15.9634 49.4172V49.1747C15.9634 49.1401 15.9401 49.1054 15.8942 49.1054V49.105ZM16.8998 44.9786L16.345 44.435L15.7902 44.9786L16.345 45.5333L16.8998 44.9786ZM18.125 44.9786L17.5819 44.435L17.0271 44.9786L17.5819 45.5333L18.125 44.9786ZM17.2116 48.9083C17.2116 48.9776 17.2233 49.0469 17.2462 49.105H15.8937C15.8474 49.105 15.8244 49.1396 15.8244 49.1743V49.4168C15.8244 49.4514 15.8478 49.4861 15.8937 49.4861H16.9457L17.2692 49.1509C17.3619 49.3475 17.5698 49.4861 17.7893 49.4861H18.0899V45.6602L17.2112 46.1223V48.9079L17.2116 48.9083ZM47.404 45.325L46.8492 44.7815L46.3061 45.325L46.8492 45.8798L47.404 45.325ZM48.6409 45.325L48.0978 44.7815L47.543 45.325L48.0978 45.8798L48.6409 45.325ZM50.1783 46.1223V48.9079C50.1783 48.9772 50.19 49.0465 50.213 49.1045H45.9012C45.485 49.1045 44.6413 48.8616 44.6413 47.4285V45.9257L43.7743 46.3878V47.4281C43.7743 48.6762 44.7223 49.4857 45.9012 49.4857H49.912L50.2355 49.1504C50.3282 49.3471 50.5244 49.4857 50.7556 49.4857H51.0445V45.6598L50.1775 46.1219L50.1783 46.1223ZM52.3515 49.4861H53.2303V44.0648L52.3515 44.5273V49.4861ZM54.8946 46.1223V49.1855C54.8946 50.6307 54.0622 50.8962 53.6348 50.8962L53.97 51.2431C55.0102 51.1045 55.7616 50.3185 55.7616 49.1855V45.6602L54.8946 46.1223ZM61.4021 49.1045H61.0093V47.4285C61.0093 46.1799 60.0613 45.3709 58.8824 45.3709C57.6919 45.3709 56.7439 46.1799 56.7439 47.4285C56.7439 48.6767 57.6919 49.4861 58.8824 49.4861H59.8417L60.1423 49.1626V49.1855C60.1423 50.6307 59.3099 50.8962 58.8824 50.8962L59.2176 51.2431C60.1657 51.1158 60.8707 50.4571 60.9859 49.4861H61.4021C61.4484 49.4861 61.4714 49.4514 61.4714 49.4168V49.1743C61.4714 49.1396 61.448 49.105 61.4021 49.105V49.1045ZM58.882 49.1045C58.4545 49.1045 57.6222 48.8616 57.6222 47.4285C57.6222 45.9954 58.4545 45.7525 58.882 45.7525C59.2982 45.7525 60.1418 45.9954 60.1418 47.4285V49.1045H58.882ZM69.5164 49.1045H69.3778C69.2738 49.1045 69.1812 49.0469 69.1236 48.9196C68.9269 48.5614 68.7074 47.9257 68.3258 47.1513C67.9672 46.4463 67.2392 45.9144 66.0833 45.9144H63.0318L64.8001 44.0652H63.7598L62.0955 45.7992V46.2964H65.9447C66.823 46.2964 67.2163 46.7702 67.4588 47.3367C67.7477 47.9837 67.9789 48.6082 68.2678 49.105H61.4017C61.3553 49.105 61.3324 49.1396 61.3324 49.1743V49.4168C61.3324 49.4514 61.3558 49.4861 61.4017 49.4861H67.9672L68.2912 49.1509C68.4068 49.3705 68.6147 49.4861 68.8689 49.4861H69.5164C69.5627 49.4861 69.5857 49.4514 69.5857 49.4168V49.1743C69.5857 49.1396 69.5627 49.105 69.5164 49.105V49.1045ZM70.8918 49.1509C70.9845 49.3475 71.1924 49.4861 71.412 49.4861H71.7125V45.6602L70.8338 46.1223V48.9079C70.8338 48.9772 70.8455 49.0465 70.8684 49.1045H69.5159C69.4696 49.1045 69.4466 49.1392 69.4466 49.1738V49.4164C69.4466 49.451 69.47 49.4857 69.5159 49.4857H70.5679L70.8914 49.1504L70.8918 49.1509ZM69.5627 50.7923L70.1058 51.3353L70.6606 50.7923L70.1058 50.2487L69.5627 50.7923ZM71.2734 50.2487L70.7299 50.7923L71.2734 51.3353L71.8282 50.7923L71.2734 50.2487ZM74.4752 45.9257H72.8567V46.3073H74.4752C74.8914 46.3073 75.735 46.3648 75.735 47.6944V48.9079C75.735 48.9772 75.7463 49.0465 75.7696 49.1045H72.4986V49.4861H75.4691L75.7813 49.1509C75.8736 49.3475 76.0702 49.4861 76.3132 49.4861H76.602V47.6944C76.602 46.4458 75.7237 45.9261 74.4752 45.9261V45.9257ZM107.315 49.1045H106.922V47.4285C106.922 46.1799 105.974 45.3709 104.784 45.3709C103.605 45.3709 102.657 46.1799 102.657 47.4285V49.0816C102.657 50.5263 101.813 50.7693 101.397 50.7693L101.744 51.1162C102.773 50.9889 103.524 50.2028 103.524 49.0816V49.0699C103.847 49.3358 104.275 49.4861 104.784 49.4861H105.789L106.101 49.1509C106.193 49.3475 106.402 49.4861 106.621 49.4861H107.315C107.349 49.4861 107.384 49.4514 107.384 49.4168V49.1743C107.384 49.1396 107.349 49.105 107.315 49.105V49.1045ZM104.783 49.1045C104.367 49.1045 103.523 48.9543 103.523 47.5207V47.4285C103.523 45.9954 104.367 45.7525 104.783 45.7525C105.211 45.7525 106.043 45.9954 106.043 47.4285V48.9079C106.043 48.9772 106.055 49.0465 106.078 49.1045H104.783ZM110.158 49.1045H109.511V45.6598L108.632 46.1219V48.9075C108.632 48.9768 108.644 49.0461 108.667 49.1041H107.315C107.268 49.1041 107.245 49.1388 107.245 49.1734V49.4159C107.245 49.4506 107.269 49.4852 107.315 49.4852H108.367L108.69 49.15C108.783 49.3466 108.991 49.4852 109.21 49.4852H110.158C110.205 49.4852 110.227 49.4506 110.227 49.4159V49.1734C110.227 49.1388 110.204 49.1041 110.158 49.1041V49.1045ZM107.361 50.7923L107.904 51.3353L108.459 50.7923L107.904 50.2487L107.361 50.7923ZM108.529 50.7923L109.072 51.3353L109.627 50.7923L109.072 50.2487L108.529 50.7923ZM116.111 49.1045H115.719V47.4285C115.719 46.1799 114.771 45.3709 113.592 45.3709C112.401 45.3709 111.453 46.1799 111.453 47.4285V47.4861V48.2029C111.465 48.8157 111.453 49.1045 110.794 49.1045H110.159C110.112 49.1045 110.089 49.1392 110.089 49.1738V49.4164C110.089 49.451 110.113 49.4857 110.159 49.4857H110.794C111.499 49.4857 111.8 49.2197 111.916 48.7576C112.308 49.2202 112.91 49.4857 113.592 49.4857H114.586L114.909 49.1504C114.99 49.3471 115.198 49.4857 115.429 49.4857H116.111C116.157 49.4857 116.18 49.451 116.18 49.4164V49.1738C116.18 49.1392 116.157 49.1045 116.111 49.1045H116.111ZM113.592 49.1045C113.175 49.1045 112.332 48.8616 112.332 47.4285C112.332 45.9954 113.175 45.7525 113.592 45.7525C114.019 45.7525 114.852 45.9954 114.852 47.4285V48.9079C114.852 48.9772 114.863 49.0465 114.886 49.1045H113.592ZM124.665 49.1045H124.284V47.7984C124.284 46.3765 123.498 45.7988 122.295 45.8101C121.822 45.8218 121.694 45.833 118.481 46.3532L118.169 46.6767V45.6598L117.302 46.1219V49.1041H116.111C116.065 49.1041 116.042 49.1388 116.042 49.1734V49.4159C116.042 49.4506 116.065 49.4852 116.111 49.4852H123.139L123.463 49.15C123.556 49.3466 123.752 49.4852 123.983 49.4852H124.665C124.712 49.4852 124.734 49.4506 124.734 49.4159V49.1734C124.734 49.1388 124.711 49.1041 124.665 49.1041V49.1045ZM118.169 49.1045V46.781C121.88 46.2033 121.96 46.2033 122.295 46.215C123.174 46.2497 123.405 46.8508 123.405 47.7408V48.9083C123.405 48.9776 123.417 49.0469 123.44 49.105H118.169L118.169 49.1045ZM125.671 44.9781L125.116 44.4346L124.561 44.9781L125.116 45.5329L125.671 44.9781ZM126.896 44.9781L126.353 44.4346L125.798 44.9781L126.353 45.5329L126.896 44.9781ZM125.983 48.9079C125.983 48.9772 125.994 49.0465 126.017 49.1045H124.665C124.618 49.1045 124.595 49.1392 124.595 49.1738V49.4164C124.595 49.451 124.619 49.4857 124.665 49.4857H125.717L126.04 49.1504C126.133 49.3471 126.341 49.4857 126.56 49.4857H126.861V45.6598L125.982 46.1219V48.9075L125.983 48.9079ZM30.6519 50.1829H31.467V44.5528H30.6519V50.1829ZM88.9098 50.1829H89.7249V44.5528H88.9098V50.1829Z" fill="#F0E5CF"/>
</svg>
