<svg width="44" height="44" viewBox="0 0 44 44" fill="none" xmlns="http://www.w3.org/2000/svg">
<rect x="0.5" y="0.5" width="43" height="43" rx="21.5" fill="#F0EFED" stroke="#F0EFED"/>
<path d="M28.6386 28.639H25.8446V24.2633C25.8446 23.2198 25.8259 21.8766 24.3914 21.8766C22.9361 21.8766 22.7135 23.0135 22.7135 24.1873V28.6387H19.9194V19.6404H22.6017V20.8701H22.6393C22.9077 20.4112 23.2956 20.0336 23.7616 19.7776C24.2277 19.5216 24.7544 19.3969 25.2858 19.4166C28.1176 19.4166 28.6398 21.2794 28.6398 23.7027L28.6386 28.639ZM16.7668 18.4104C16.4461 18.4105 16.1326 18.3154 15.866 18.1373C15.5993 17.9592 15.3914 17.706 15.2687 17.4097C15.1459 17.1135 15.1137 16.7875 15.1762 16.4729C15.2387 16.1584 15.3931 15.8694 15.6198 15.6426C15.8465 15.4158 16.1354 15.2613 16.4499 15.1987C16.7645 15.1361 17.0905 15.1681 17.3868 15.2908C17.6831 15.4135 17.9363 15.6213 18.1145 15.8879C18.2927 16.1545 18.3879 16.468 18.388 16.7887C18.388 17.0016 18.3461 17.2125 18.2646 17.4092C18.1832 17.6059 18.0638 17.7847 17.9133 17.9353C17.7627 18.0859 17.584 18.2054 17.3873 18.2869C17.1906 18.3684 16.9798 18.4104 16.7668 18.4104ZM18.1638 28.639H15.3669V19.6404H18.1638V28.639ZM30.0315 12.5727H13.9629C13.5982 12.5686 13.2467 12.7095 12.9858 12.9643C12.7249 13.2192 12.5759 13.5672 12.5714 13.932V30.0678C12.5757 30.4327 12.7247 30.781 12.9856 31.0361C13.2465 31.2912 13.598 31.4324 13.9629 31.4285H30.0315C30.3972 31.4331 30.7497 31.2923 31.0116 31.0372C31.2735 30.7821 31.4235 30.4334 31.4286 30.0678V13.9308C31.4233 13.5653 31.2733 13.2169 31.0113 12.9621C30.7494 12.7072 30.397 12.5679 30.0315 12.5727Z" fill="#02464F"/>
</svg>
