<svg width="284" height="55" viewBox="0 0 284 55" fill="none" xmlns="http://www.w3.org/2000/svg">
<path d="M45.9414 35.563H47.1468V39.8629H52.5635V35.563H53.7689V45.7126H52.5635V40.9797H47.1468V45.7126H45.9414V35.563Z" fill="#F8F8F8"/>
<path d="M57.4982 35.563H56.2928V45.7126H57.4982V35.563Z" fill="#F8F8F8"/>
<path d="M64.8336 37.3489C64.6458 37.0357 64.3657 36.7883 64.0317 36.6405C63.7018 36.4938 63.3448 36.4184 62.9838 36.4191C62.7184 36.4197 62.454 36.4527 62.1966 36.5175C61.9499 36.5796 61.7154 36.6827 61.5029 36.8225C61.2979 36.9546 61.1289 37.1355 61.0109 37.3489C60.903 37.5623 60.8403 37.7957 60.8267 38.0344C60.8132 38.2731 60.8491 38.5121 60.9322 38.7363C61.0079 38.9257 61.1277 39.0944 61.2815 39.2283C61.4812 39.3956 61.7052 39.5317 61.9457 39.6317C62.2767 39.7742 62.615 39.899 62.9592 40.0056C63.3527 40.1286 63.7316 40.2615 64.1006 40.4041C64.4543 40.5354 64.7861 40.7195 65.0846 40.9502C65.3664 41.1717 65.5964 41.4522 65.7586 41.7719C65.9321 42.1783 66.0175 42.6169 66.009 43.0588C66.0005 43.5006 65.8984 43.9356 65.7094 44.3351C65.5139 44.6976 65.242 45.0132 64.9124 45.26C64.5697 45.5081 64.1845 45.6915 63.7759 45.8012C63.3421 45.9236 62.8933 45.9849 62.4426 45.9832C62.1458 45.9808 61.8496 45.9545 61.557 45.9045C61.2641 45.8515 60.9773 45.7691 60.701 45.6585C60.427 45.5511 60.1689 45.4071 59.9335 45.2305C59.6895 45.0511 59.4795 44.8295 59.3136 44.5762L60.3468 43.73C60.5617 44.0979 60.8822 44.3927 61.2668 44.5762C61.654 44.7664 62.0801 44.8641 62.5115 44.8615C62.7764 44.8622 63.0399 44.8241 63.2937 44.7484C63.547 44.6773 63.7864 44.5642 64.0022 44.4138C64.203 44.2647 64.3705 44.0753 64.4941 43.8579C64.6308 43.6291 64.7007 43.3667 64.6959 43.1002C64.7058 42.8355 64.6519 42.5722 64.5385 42.3327C64.4169 42.1311 64.2481 41.9623 64.0465 41.8407C63.7873 41.6757 63.5078 41.5451 63.215 41.4521L62.0391 41.0486C61.702 40.9417 61.3731 40.8102 61.0552 40.6551C60.7625 40.516 60.4936 40.3317 60.2582 40.109C60.0305 39.8902 59.8497 39.6274 59.7268 39.3365C59.5906 38.9924 59.5253 38.6242 59.535 38.2542C59.5207 37.831 59.61 37.4108 59.7953 37.0301C59.9805 36.6494 60.2559 36.3197 60.5977 36.0698C60.9285 35.8207 61.3019 35.634 61.6997 35.5188C62.1174 35.3913 62.552 35.3283 62.9887 35.3318C63.5236 35.3248 64.0553 35.4148 64.5581 35.5975C65.0544 35.7903 65.4919 36.1091 65.8275 36.5224L64.8336 37.3489Z" fill="#F8F8F8"/>
<path d="M71.2836 35.5581H72.4201L76.7348 45.7077H75.3277L74.2946 43.2133H69.2223L68.1743 45.7077H66.8115L71.2836 35.5581ZM71.8297 37.1078H71.8002L69.6847 42.0965H73.8272L71.8297 37.1078Z" fill="#F8F8F8"/>
<path d="M82.8992 37.3489C82.7114 37.0357 82.4313 36.7883 82.0973 36.6405C81.7674 36.4938 81.4104 36.4184 81.0494 36.4191C80.7839 36.4197 80.5196 36.4527 80.2622 36.5175C80.014 36.5795 79.7778 36.6826 79.5636 36.8225C79.36 36.9563 79.1913 37.1368 79.0716 37.3489C78.9637 37.5623 78.901 37.7957 78.8875 38.0344C78.8739 38.2731 78.9098 38.5121 78.9929 38.7363C79.0669 38.9267 79.1869 39.0957 79.3422 39.2283C79.5408 39.3946 79.763 39.5306 80.0014 39.6317C80.3344 39.7733 80.6744 39.8981 81.0199 40.0056C81.4135 40.1286 81.7923 40.2615 82.1613 40.4041C82.515 40.5354 82.8467 40.7195 83.1452 40.9502C83.4271 41.1717 83.6571 41.4521 83.8192 41.7719C83.9988 42.1615 84.0848 42.5878 84.0702 43.0166C84.0798 43.474 83.9767 43.9268 83.7701 44.3351C83.5746 44.6976 83.3027 45.0132 82.973 45.26C82.6292 45.5092 82.2422 45.6927 81.8316 45.8012C81.3979 45.9239 80.9491 45.9852 80.4984 45.9832C80.2032 45.9808 79.9086 45.9545 79.6177 45.9045C79.3233 45.851 79.0349 45.7686 78.7567 45.6585C78.4837 45.5492 78.2258 45.4054 77.9892 45.2305C77.748 45.0496 77.5399 44.8282 77.3743 44.5762L78.4074 43.73C78.6206 44.0975 78.9394 44.3924 79.3225 44.5762C79.7114 44.7665 80.1392 44.8641 80.5722 44.8615C80.837 44.8619 81.1005 44.8237 81.3544 44.7484C81.6076 44.6773 81.8471 44.5642 82.0629 44.4138C82.2637 44.2647 82.4313 44.0753 82.5549 43.8579C82.6915 43.6291 82.7614 43.3667 82.7565 43.1002C82.7665 42.8355 82.7125 42.5722 82.5991 42.3327C82.4786 42.1304 82.3095 41.9613 82.1071 41.8407C81.8486 41.6747 81.569 41.544 81.2757 41.4521L80.0999 41.0486C79.7633 40.9401 79.4345 40.8086 79.1159 40.6551C78.8241 40.5171 78.5565 40.3327 78.3238 40.109C78.0946 39.8915 77.9136 39.6283 77.7924 39.3365C77.6562 38.9924 77.5909 38.6242 77.6006 38.2542C77.5896 37.8124 77.6877 37.3748 77.8859 36.9799C78.0712 36.622 78.3353 36.3108 78.6583 36.0698C78.9911 35.8208 79.3661 35.6341 79.7653 35.5188C80.183 35.3913 80.6176 35.3283 81.0543 35.3318C81.5892 35.3248 82.121 35.4148 82.6238 35.5975C83.12 35.7903 83.5575 36.1091 83.893 36.5224L82.8992 37.3489Z" fill="#F8F8F8"/>
<path d="M88.631 35.5581H91.2287C91.722 35.5572 92.2149 35.5868 92.7046 35.6466C93.1541 35.6936 93.5919 35.8184 93.9985 36.0156C94.3804 36.2064 94.7034 36.4972 94.9333 36.8569C95.1894 37.3053 95.3139 37.8169 95.2925 38.3329C95.3073 38.664 95.2558 38.9948 95.1409 39.3058C95.026 39.6167 94.85 39.9015 94.6233 40.1434C94.1138 40.6328 93.4563 40.9391 92.7538 41.0142L95.6368 45.688H94.1609L91.4058 41.1323H89.856V45.688H88.6507L88.631 35.5581ZM89.8363 40.0302H90.9138C91.2418 40.0302 91.5862 40.0204 91.9469 40.0007C92.282 39.9875 92.6133 39.9262 92.9309 39.8187C93.2185 39.722 93.4761 39.5525 93.6787 39.3267C93.8941 39.046 93.9976 38.6954 93.969 38.3427C93.9843 38.0381 93.9109 37.7356 93.7575 37.4719C93.6144 37.262 93.4195 37.0925 93.1917 36.9799C92.9429 36.8571 92.6751 36.7773 92.3996 36.7438C92.1077 36.7044 91.8135 36.6846 91.5189 36.6847H89.856L89.8363 40.0302Z" fill="#F8F8F8"/>
<path d="M97.3931 35.563H103.774V36.6798H98.5984V39.8629H103.43V40.9797H98.5984V44.5909H104.035V45.7126H97.3931V35.563Z" fill="#F8F8F8"/>
<path d="M109.191 35.5581H110.322L114.642 45.7077H113.235L112.202 43.2133H107.129L106.081 45.7077H104.719L109.191 35.5581ZM109.737 37.1078H109.707L107.602 42.0965H111.744L109.737 37.1078Z" fill="#F8F8F8"/>
<path d="M115.99 35.563H117.195V44.5909H121.84V45.7126H115.99V35.563Z" fill="#F8F8F8"/>
<path d="M125.741 35.563H132.117V36.6798H126.942V39.8629H131.773V40.9797H126.942V44.5909H132.378V45.7126H125.741V35.563Z" fill="#F8F8F8"/>
<path d="M139.054 37.3489C138.866 37.0357 138.586 36.7883 138.252 36.6405C137.922 36.4938 137.565 36.4184 137.204 36.4191C136.939 36.42 136.675 36.453 136.417 36.5175C136.171 36.5796 135.936 36.6827 135.723 36.8225C135.519 36.9546 135.349 37.1355 135.231 37.3489C135.104 37.5877 135.039 37.8554 135.045 38.1263C135.043 38.3346 135.079 38.5414 135.153 38.7363C135.229 38.9269 135.35 39.0959 135.507 39.2283C135.705 39.3957 135.927 39.5318 136.166 39.6317C136.497 39.7742 136.836 39.899 137.18 40.0056C137.573 40.1286 137.952 40.2615 138.321 40.4041C138.675 40.5354 139.007 40.7195 139.305 40.9502C139.589 41.1698 139.819 41.4507 139.979 41.7719C140.153 42.1783 140.238 42.6169 140.23 43.0588C140.221 43.5006 140.119 43.9356 139.93 44.3351C139.735 44.6976 139.463 45.0132 139.133 45.26C138.79 45.5081 138.405 45.6915 137.996 45.8012C137.563 45.9236 137.114 45.9849 136.663 45.9832C136.366 45.9808 136.07 45.9545 135.778 45.9045C135.485 45.8515 135.198 45.7691 134.922 45.6585C134.648 45.5511 134.389 45.4071 134.154 45.2305C133.91 45.0511 133.7 44.8295 133.534 44.5762L134.567 43.73C134.782 44.0979 135.103 44.3927 135.487 44.5762C135.875 44.7664 136.301 44.8641 136.732 44.8615C136.997 44.8626 137.261 44.8244 137.514 44.7484C137.768 44.6783 138.008 44.5651 138.223 44.4138C138.424 44.2647 138.591 44.0753 138.715 43.8579C138.851 43.6291 138.921 43.3667 138.916 43.1002C138.926 42.8355 138.872 42.5722 138.759 42.3327C138.64 42.1289 138.471 41.9594 138.267 41.8407C138.008 41.6757 137.728 41.5451 137.436 41.4521L136.26 41.0486C135.923 40.9417 135.594 40.8102 135.276 40.6551C134.983 40.516 134.714 40.3317 134.479 40.109C134.253 39.8889 134.072 39.6264 133.947 39.3365C133.811 38.9924 133.746 38.6242 133.756 38.2542C133.741 37.831 133.831 37.4108 134.016 37.0301C134.201 36.6494 134.477 36.3197 134.818 36.0698C135.149 35.8207 135.523 35.634 135.92 35.5188C136.338 35.3917 136.773 35.3287 137.209 35.3318C137.744 35.3248 138.276 35.4148 138.779 35.5975C139.276 35.7876 139.715 36.1069 140.048 36.5224L139.054 37.3489Z" fill="#F8F8F8"/>
<path d="M149.022 36.6798H145.667V45.7126H144.461V36.6798H141.106V35.563H149.022V36.6798Z" fill="#F8F8F8"/>
<path d="M152.417 35.5581H153.548L157.868 45.7077H156.461L155.428 43.2133H150.37L149.322 45.7077H147.959L152.417 35.5581ZM152.963 37.1078H152.933L150.828 42.0965H154.97L152.963 37.1078Z" fill="#F8F8F8"/>
<path d="M164.706 36.6798H161.351V45.7126H160.146V36.6798H156.79V35.563H164.706V36.6798Z" fill="#F8F8F8"/>
<path d="M166.128 35.563H172.504V36.6798H167.329V39.8629H172.16V40.9797H167.329V44.5909H172.765V45.7126H166.128V35.563Z" fill="#F8F8F8"/>
<path d="M12.4029 22.7567V23.3962C12.4036 23.4203 12.3994 23.4443 12.3905 23.4667C12.3815 23.4891 12.3682 23.5094 12.3511 23.5265C12.3341 23.5435 12.3138 23.5569 12.2914 23.5658C12.269 23.5747 12.2449 23.5789 12.2209 23.5783H10.4301C10.1417 23.5806 9.85899 23.4985 9.6168 23.342C9.37461 23.1855 9.18358 22.9615 9.06728 22.6976L8.21616 23.5783H5.60862C2.48453 23.5783 0 21.4529 0 18.1664C0 14.88 2.48453 12.7546 5.60862 12.7546C8.73272 12.7546 11.1926 14.8751 11.1926 18.1664V22.5648H12.2209C12.2449 22.5641 12.269 22.5683 12.2914 22.5773C12.3138 22.5862 12.3341 22.5995 12.3511 22.6166C12.3682 22.6336 12.3815 22.654 12.3905 22.6764C12.3994 22.6988 12.4036 22.7227 12.4029 22.7468M9.00825 22.5648C8.94378 22.4003 8.912 22.2248 8.91474 22.0482V18.1664C8.91474 14.4077 6.73035 13.7681 5.60862 13.7681C4.4869 13.7681 2.30251 14.4077 2.30251 18.1664C2.30251 21.9252 4.51642 22.5648 5.60862 22.5648H9.00825ZM3.97034 11.5296L2.54358 10.1028L3.97034 8.62689L5.44629 10.1028L3.97034 11.5296ZM7.06488 11.5296L5.63811 10.1028L7.06488 8.62689L8.49164 10.1028L7.06488 11.5296Z" fill="#F8F8F8"/>
<path d="M14.0905 22.7567V23.3962C14.0912 23.4203 14.0869 23.4443 14.078 23.4667C14.0691 23.4891 14.0557 23.5094 14.0387 23.5265C14.0216 23.5435 14.0013 23.5569 13.9789 23.5658C13.9565 23.5747 13.9326 23.579 13.9085 23.5783H12.2112C12.1871 23.579 12.163 23.5747 12.1406 23.5658C12.1183 23.5569 12.0979 23.5435 12.0809 23.5265C12.0639 23.5094 12.0505 23.4891 12.0416 23.4667C12.0326 23.4443 12.0284 23.4203 12.0291 23.3962V22.7567C12.0335 22.7099 12.0541 22.6661 12.0873 22.6328C12.1206 22.5996 12.1644 22.579 12.2112 22.5746H13.9085C13.9556 22.5781 14 22.5983 14.0334 22.6318C14.0668 22.6652 14.0871 22.7095 14.0905 22.7567Z" fill="#F8F8F8"/>
<path d="M15.8026 22.7567V23.3962C15.8033 23.4203 15.799 23.4443 15.7901 23.4667C15.7812 23.4891 15.7679 23.5094 15.7508 23.5265C15.7338 23.5435 15.7134 23.5569 15.691 23.5658C15.6686 23.5747 15.6446 23.579 15.6206 23.5783H13.9183C13.8942 23.579 13.8703 23.5747 13.8479 23.5658C13.8255 23.5569 13.8051 23.5435 13.788 23.5265C13.771 23.5094 13.7576 23.4891 13.7487 23.4667C13.7398 23.4443 13.7356 23.4203 13.7363 23.3962V22.7567C13.7407 22.7099 13.7612 22.6661 13.7945 22.6328C13.8277 22.5996 13.8715 22.579 13.9183 22.5746H15.6206C15.6673 22.579 15.7112 22.5996 15.7444 22.6328C15.7776 22.6661 15.7982 22.7099 15.8026 22.7567Z" fill="#F8F8F8"/>
<path d="M17.5 22.7567V23.3962C17.5007 23.4203 17.4964 23.4443 17.4875 23.4667C17.4786 23.4891 17.4652 23.5094 17.4482 23.5265C17.4311 23.5435 17.4108 23.5569 17.3884 23.5658C17.366 23.5747 17.342 23.579 17.318 23.5783H15.6206C15.5965 23.579 15.5725 23.5747 15.5501 23.5658C15.5277 23.5569 15.5074 23.5435 15.4904 23.5265C15.4733 23.5094 15.4599 23.4891 15.451 23.4667C15.4421 23.4443 15.4379 23.4203 15.4385 23.3962V22.7567C15.442 22.7095 15.4622 22.6652 15.4957 22.6318C15.5291 22.5983 15.5734 22.5781 15.6206 22.5746H17.318C17.3648 22.579 17.4085 22.5996 17.4417 22.6328C17.475 22.6661 17.4956 22.7099 17.5 22.7567Z" fill="#F8F8F8"/>
<path d="M19.1973 22.7567V23.3962C19.1979 23.4203 19.1937 23.4443 19.1848 23.4667C19.1759 23.4891 19.1625 23.5094 19.1454 23.5265C19.1284 23.5435 19.1081 23.5569 19.0857 23.5658C19.0633 23.5747 19.0393 23.579 19.0152 23.5783H17.3179C17.2938 23.579 17.2698 23.5747 17.2474 23.5658C17.225 23.5569 17.2047 23.5435 17.1876 23.5265C17.1706 23.5094 17.1572 23.4891 17.1483 23.4667C17.1394 23.4443 17.1351 23.4203 17.1358 23.3962V22.7567C17.1392 22.7095 17.1596 22.6652 17.193 22.6318C17.2264 22.5983 17.2708 22.5781 17.3179 22.5746H19.0103C19.0574 22.5781 19.1018 22.5983 19.1352 22.6318C19.1686 22.6652 19.1889 22.7095 19.1923 22.7567" fill="#F8F8F8"/>
<path d="M20.8945 22.7567V23.3962C20.8952 23.4203 20.891 23.4443 20.8821 23.4667C20.8732 23.4891 20.8598 23.5094 20.8427 23.5265C20.8257 23.5435 20.8053 23.5569 20.7829 23.5658C20.7605 23.5747 20.7366 23.579 20.7125 23.5783H19.0102C18.9861 23.579 18.9622 23.5747 18.9398 23.5658C18.9174 23.5569 18.8971 23.5435 18.88 23.5265C18.863 23.5094 18.8496 23.4891 18.8407 23.4667C18.8318 23.4443 18.8275 23.4203 18.8282 23.3962V22.7567C18.8326 22.7099 18.8532 22.6661 18.8864 22.6328C18.9196 22.5996 18.9634 22.579 19.0102 22.5746H20.7075C20.7547 22.5781 20.799 22.5983 20.8325 22.6318C20.8659 22.6652 20.8862 22.7095 20.8896 22.7567" fill="#F8F8F8"/>
<path d="M22.5968 22.7567V23.3962C22.5975 23.4203 22.5932 23.4443 22.5843 23.4667C22.5754 23.4891 22.562 23.5094 22.545 23.5265C22.528 23.5435 22.5076 23.5569 22.4852 23.5658C22.4629 23.5747 22.4389 23.579 22.4148 23.5783H20.7125C20.6884 23.579 20.6644 23.5747 20.6421 23.5658C20.6197 23.5569 20.5993 23.5435 20.5823 23.5265C20.5653 23.5094 20.5519 23.4891 20.543 23.4667C20.534 23.4443 20.5298 23.4203 20.5305 23.3962V22.7567C20.5348 22.7099 20.5554 22.6661 20.5887 22.6328C20.6219 22.5996 20.6657 22.579 20.7125 22.5746H22.4148C22.4616 22.579 22.5054 22.5996 22.5386 22.6328C22.5719 22.6661 22.5925 22.7099 22.5968 22.7567Z" fill="#F8F8F8"/>
<path d="M24.2942 22.7567V23.3962C24.2949 23.4203 24.2907 23.4443 24.2817 23.4667C24.2728 23.4891 24.2595 23.5094 24.2424 23.5265C24.2254 23.5435 24.205 23.5569 24.1827 23.5658C24.1603 23.5747 24.1363 23.579 24.1122 23.5783H22.4149C22.3908 23.579 22.3668 23.5747 22.3444 23.5658C22.322 23.5569 22.3017 23.5435 22.2846 23.5265C22.2676 23.5094 22.2542 23.4891 22.2453 23.4667C22.2364 23.4443 22.2322 23.4203 22.2329 23.3962V22.7567C22.2363 22.7095 22.2565 22.6652 22.29 22.6318C22.3234 22.5983 22.3677 22.5781 22.4149 22.5746H24.1122C24.159 22.579 24.2028 22.5996 24.236 22.6328C24.2693 22.6661 24.2899 22.7099 24.2942 22.7567Z" fill="#F8F8F8"/>
<path d="M25.9915 22.7567V23.3962C25.9922 23.4203 25.988 23.4443 25.9791 23.4667C25.9702 23.4891 25.9568 23.5094 25.9397 23.5265C25.9227 23.5435 25.9024 23.5569 25.88 23.5658C25.8576 23.5747 25.8336 23.579 25.8095 23.5783H24.1122C24.0881 23.579 24.0641 23.5747 24.0417 23.5658C24.0193 23.5569 23.999 23.5435 23.982 23.5265C23.9649 23.5094 23.9515 23.4891 23.9426 23.4667C23.9337 23.4443 23.9294 23.4203 23.9301 23.3962V22.7567C23.9335 22.7095 23.9538 22.6652 23.9872 22.6318C24.0207 22.5983 24.065 22.5781 24.1122 22.5746H25.8095C25.8566 22.5781 25.901 22.5983 25.9344 22.6318C25.9678 22.6652 25.9881 22.7095 25.9915 22.7567Z" fill="#F8F8F8"/>
<path d="M27.689 22.7567V23.3962C27.6896 23.4203 27.6854 23.4443 27.6765 23.4667C27.6676 23.4891 27.6542 23.5094 27.6371 23.5265C27.6201 23.5435 27.5998 23.5569 27.5774 23.5658C27.555 23.5747 27.531 23.579 27.5069 23.5783H25.8095C25.7855 23.579 25.7615 23.5747 25.7391 23.5658C25.7167 23.5569 25.6964 23.5435 25.6793 23.5265C25.6623 23.5094 25.6489 23.4891 25.64 23.4667C25.6311 23.4443 25.6268 23.4203 25.6275 23.3962V22.7567C25.6319 22.7099 25.6525 22.6661 25.6858 22.6328C25.719 22.5996 25.7627 22.579 25.8095 22.5746H27.5069C27.5541 22.5781 27.5984 22.5983 27.6318 22.6318C27.6653 22.6652 27.6855 22.7095 27.689 22.7567Z" fill="#F8F8F8"/>
<path d="M29.3911 22.7567V23.3962C29.3918 23.4203 29.3876 23.4443 29.3787 23.4667C29.3697 23.4891 29.3564 23.5094 29.3393 23.5265C29.3223 23.5435 29.3019 23.5569 29.2795 23.5658C29.2571 23.5747 29.2331 23.579 29.2091 23.5783H27.5068C27.4827 23.579 27.4588 23.5747 27.4364 23.5658C27.414 23.5569 27.3936 23.5435 27.3765 23.5265C27.3595 23.5094 27.3461 23.4891 27.3372 23.4667C27.3283 23.4443 27.3241 23.4203 27.3248 23.3962V22.7567C27.3292 22.7099 27.3497 22.6661 27.383 22.6328C27.4162 22.5996 27.46 22.579 27.5068 22.5746H29.2091C29.2559 22.579 29.2997 22.5996 29.3329 22.6328C29.3661 22.6661 29.3867 22.7099 29.3911 22.7567Z" fill="#F8F8F8"/>
<path d="M31.0885 22.7567V23.3962C31.0892 23.4203 31.0849 23.4443 31.076 23.4667C31.0671 23.4891 31.0537 23.5094 31.0367 23.5265C31.0196 23.5435 30.9993 23.5569 30.9769 23.5658C30.9545 23.5747 30.9305 23.579 30.9065 23.5783H29.2091C29.185 23.579 29.161 23.5747 29.1386 23.5658C29.1162 23.5569 29.0959 23.5435 29.0789 23.5265C29.0618 23.5094 29.0484 23.4891 29.0395 23.4667C29.0306 23.4443 29.0264 23.4203 29.027 23.3962V22.7567C29.0305 22.7095 29.0507 22.6652 29.0842 22.6318C29.1176 22.5983 29.1619 22.5781 29.2091 22.5746H30.9065C30.9533 22.579 30.997 22.5996 31.0302 22.6328C31.0635 22.6661 31.0841 22.7099 31.0885 22.7567Z" fill="#F8F8F8"/>
<path d="M32.7858 22.7567V23.3962C32.7865 23.4203 32.7822 23.4443 32.7733 23.4667C32.7644 23.4891 32.751 23.5094 32.734 23.5265C32.7169 23.5435 32.6966 23.5569 32.6742 23.5658C32.6518 23.5747 32.6279 23.579 32.6038 23.5783H30.9065C30.8824 23.579 30.8584 23.5747 30.836 23.5658C30.8136 23.5569 30.7932 23.5435 30.7762 23.5265C30.7592 23.5094 30.7458 23.4891 30.7369 23.4667C30.728 23.4443 30.7238 23.4203 30.7244 23.3962V22.7567C30.7279 22.7095 30.7481 22.6652 30.7815 22.6318C30.815 22.5983 30.8593 22.5781 30.9065 22.5746H32.6038C32.6509 22.5781 32.6953 22.5983 32.7287 22.6318C32.7621 22.6652 32.7824 22.7095 32.7858 22.7567Z" fill="#F8F8F8"/>
<path d="M34.4832 22.7567V23.3962C34.4839 23.4203 34.4797 23.4443 34.4708 23.4667C34.4619 23.4891 34.4485 23.5094 34.4314 23.5265C34.4144 23.5435 34.3941 23.5569 34.3717 23.5658C34.3493 23.5747 34.3253 23.579 34.3012 23.5783H32.6039C32.5798 23.579 32.5558 23.5747 32.5334 23.5658C32.511 23.5569 32.4907 23.5435 32.4737 23.5265C32.4566 23.5094 32.4432 23.4891 32.4343 23.4667C32.4254 23.4443 32.4211 23.4203 32.4218 23.3962V22.7567C32.4262 22.7099 32.4468 22.6661 32.48 22.6328C32.5133 22.5996 32.5571 22.579 32.6039 22.5746H34.3012C34.3483 22.5781 34.3927 22.5983 34.4261 22.6318C34.4595 22.6652 34.4798 22.7095 34.4832 22.7567Z" fill="#F8F8F8"/>
<path d="M36.1855 22.7567V23.3962C36.1861 23.4203 36.1819 23.4443 36.173 23.4667C36.1641 23.4891 36.1507 23.5094 36.1336 23.5265C36.1166 23.5435 36.0963 23.5569 36.0739 23.5658C36.0515 23.5747 36.0275 23.579 36.0034 23.5783H34.3011C34.277 23.579 34.2531 23.5747 34.2307 23.5658C34.2083 23.5569 34.188 23.5435 34.1709 23.5265C34.1539 23.5094 34.1405 23.4891 34.1316 23.4667C34.1227 23.4443 34.1184 23.4203 34.1191 23.3962V22.7567C34.1235 22.7099 34.144 22.6661 34.1773 22.6328C34.2105 22.5996 34.2543 22.579 34.3011 22.5746H36.0034C36.0502 22.579 36.094 22.5996 36.1273 22.6328C36.1605 22.6661 36.1811 22.7099 36.1855 22.7567Z" fill="#F8F8F8"/>
<path d="M37.8829 22.7567V23.3962C37.8835 23.4203 37.8793 23.4443 37.8704 23.4667C37.8615 23.4891 37.8481 23.5094 37.8311 23.5265C37.8141 23.5435 37.7937 23.5569 37.7713 23.5658C37.7489 23.5747 37.7249 23.579 37.7008 23.5783H36.0035C35.9794 23.579 35.9555 23.5747 35.9331 23.5658C35.9107 23.5569 35.8903 23.5435 35.8733 23.5265C35.8562 23.5094 35.8428 23.4891 35.8339 23.4667C35.825 23.4443 35.8208 23.4203 35.8215 23.3962V22.7567C35.8249 22.7095 35.8452 22.6652 35.8786 22.6318C35.912 22.5983 35.9564 22.5781 36.0035 22.5746H37.7058C37.7526 22.579 37.7964 22.5996 37.8296 22.6328C37.8628 22.6661 37.8834 22.7099 37.8878 22.7567" fill="#F8F8F8"/>
<path d="M40.4609 23.5783H37.7058C37.6817 23.579 37.6577 23.5747 37.6353 23.5658C37.6129 23.5569 37.5926 23.5435 37.5756 23.5265C37.5585 23.5094 37.5452 23.4891 37.5362 23.4667C37.5273 23.4443 37.5231 23.4203 37.5238 23.3962V22.7567C37.5231 22.7326 37.5273 22.7086 37.5362 22.6862C37.5452 22.6638 37.5585 22.6435 37.5756 22.6264C37.5926 22.6094 37.6129 22.596 37.6353 22.5871C37.6577 22.5782 37.6817 22.574 37.7058 22.5746H41.253C41.1929 22.4091 41.1629 22.2342 41.1644 22.0581V14.7521L43.4669 13.5369V23.5783H42.6797C42.3927 23.5721 42.1129 23.4866 41.8715 23.3311C41.6301 23.1757 41.4364 22.9564 41.312 22.6976L40.4609 23.5783ZM39.2457 25.5757L40.7216 27.0025L39.2457 28.4292L37.8239 27.0025L39.2457 25.5757ZM43.767 27.0025L42.291 28.4292L40.8643 27.0025L42.291 25.5757L43.767 27.0025Z" fill="#F8F8F8"/>
<path d="M50.1036 13.5369V22.7862C50.1556 24.1166 49.6987 25.4168 48.8258 26.4222C47.9529 27.4276 46.7297 28.0626 45.4052 28.198L44.5245 27.2878C45.6463 27.2878 47.8307 26.5892 47.8307 22.796V14.7521L50.1036 13.5369Z" fill="#F8F8F8"/>
<path d="M57.7195 22.7567V23.3963C57.7202 23.4204 57.7159 23.4443 57.707 23.4667C57.6981 23.4891 57.6847 23.5095 57.6677 23.5265C57.6506 23.5436 57.6303 23.5569 57.6079 23.5659C57.5855 23.5748 57.5616 23.579 57.5375 23.5783H53.5327V10.5457L55.8352 9.33047V22.555H57.5375C57.5616 22.5543 57.5855 22.5586 57.6079 22.5675C57.6303 22.5764 57.6506 22.5898 57.6677 22.6068C57.6847 22.6238 57.6981 22.6442 57.707 22.6666C57.7159 22.689 57.7202 22.7129 57.7195 22.737" fill="#F8F8F8"/>
<path d="M72.5185 22.7567V23.3963C72.5151 23.4434 72.4948 23.4878 72.4614 23.5212C72.428 23.5546 72.3836 23.5749 72.3365 23.5783H70.4276C70.1405 23.5721 69.8607 23.4866 69.6193 23.3311C69.3779 23.1757 69.1843 22.9564 69.0598 22.6977L68.2431 23.5783H57.5376C57.5135 23.579 57.4895 23.5747 57.4671 23.5658C57.4447 23.5569 57.4244 23.5435 57.4074 23.5265C57.3903 23.5095 57.3769 23.4891 57.368 23.4667C57.3591 23.4443 57.3549 23.4204 57.3555 23.3963V22.7567C57.3549 22.7326 57.3591 22.7086 57.368 22.6862C57.3769 22.6638 57.3903 22.6435 57.4074 22.6265C57.4244 22.6094 57.4447 22.596 57.4671 22.5871C57.4895 22.5782 57.5135 22.574 57.5376 22.5747H62.236C61.5336 22.0803 60.9641 21.4202 60.5779 20.6529C60.1917 19.8857 60.0008 19.035 60.0221 18.1763C60.0221 14.8997 62.5115 12.7645 65.6012 12.7645C68.6908 12.7645 71.2147 14.885 71.2147 18.1763V22.5747H72.3365C72.3836 22.5781 72.428 22.5983 72.4614 22.6318C72.4948 22.6652 72.5151 22.7095 72.5185 22.7567ZM69.0008 22.5747C68.939 22.4094 68.9074 22.2345 68.9074 22.0581V18.1763C68.9074 14.4176 66.7278 13.778 65.6012 13.778C64.4745 13.778 62.2951 14.4176 62.2951 18.1763C62.2951 21.9351 64.5139 22.5747 65.6012 22.5747H69.0008ZM64.081 11.5346L62.6542 10.1078L64.081 8.63184L65.5077 10.1078L64.081 11.5346ZM67.146 11.5346L65.7193 10.1078L67.146 8.63184L68.622 10.1078L67.146 11.5346Z" fill="#F8F8F8"/>
<path d="M86.6825 22.7567V23.3963C86.6832 23.4203 86.6789 23.4443 86.67 23.4667C86.6611 23.4891 86.6477 23.5094 86.6307 23.5265C86.6137 23.5435 86.5933 23.5569 86.5709 23.5658C86.5486 23.5747 86.5246 23.579 86.5005 23.5783H72.3363C72.3122 23.579 72.2882 23.5747 72.2658 23.5658C72.2434 23.5569 72.2231 23.5435 72.206 23.5265C72.189 23.5094 72.1756 23.4891 72.1667 23.4667C72.1578 23.4443 72.1536 23.4203 72.1542 23.3963V22.7567C72.1536 22.7326 72.1578 22.7086 72.1667 22.6862C72.1756 22.6638 72.189 22.6435 72.206 22.6264C72.2231 22.6094 72.2434 22.596 72.2658 22.5871C72.2882 22.5782 72.3122 22.574 72.3363 22.5746H77.1577C76.4553 22.0803 75.8857 21.4202 75.4995 20.6529C75.1133 19.8857 74.9224 19.035 74.9438 18.1763C74.9438 14.8997 77.4332 12.7645 80.5278 12.7645C83.0714 12.7645 85.1672 14.1912 85.8953 16.4642L83.8339 17.5564C83.5879 14.3733 81.5856 13.7632 80.5278 13.7632C79.47 13.7632 77.2216 14.4028 77.2216 18.1616C77.2216 21.9203 79.4012 22.5599 80.5278 22.5599H86.5005C86.5246 22.5592 86.5486 22.5634 86.5709 22.5724C86.5933 22.5813 86.6137 22.5946 86.6307 22.6117C86.6477 22.6287 86.6611 22.6491 86.67 22.6715C86.6789 22.6939 86.6832 22.7178 86.6825 22.7419" fill="#F8F8F8"/>
<path d="M92.2617 9.35013V23.5783H91.4745C91.1879 23.5729 90.9085 23.4876 90.6677 23.332C90.427 23.1764 90.2344 22.9567 90.1117 22.6976L89.2606 23.5783H86.5006C86.4765 23.579 86.4525 23.5747 86.4301 23.5658C86.4077 23.5569 86.3874 23.5435 86.3703 23.5265C86.3533 23.5094 86.3399 23.4891 86.331 23.4667C86.3221 23.4443 86.3179 23.4203 86.3186 23.3963V22.7567C86.3179 22.7326 86.3221 22.7086 86.331 22.6862C86.3399 22.6638 86.3533 22.6435 86.3703 22.6264C86.3874 22.6094 86.4077 22.596 86.4301 22.5871C86.4525 22.5782 86.4765 22.574 86.5006 22.5746H90.0478C89.9877 22.4091 89.9576 22.2342 89.9592 22.0581V10.5456L92.2617 9.35013Z" fill="#F8F8F8"/>
<path d="M95.6317 10.5653L97.9391 9.35504V23.5783H95.6317V10.5653Z" fill="#F8F8F8"/>
<path d="M134.454 22.7567V23.3962C134.455 23.4203 134.451 23.4443 134.442 23.4667C134.433 23.4891 134.419 23.5094 134.402 23.5265C134.385 23.5435 134.365 23.5569 134.343 23.5658C134.32 23.5747 134.296 23.579 134.272 23.5783H132.575C132.282 23.5818 131.994 23.5005 131.746 23.3443C131.498 23.188 131.301 22.9635 131.178 22.6976L130.361 23.5783H117.254C116.925 26.4269 114.588 28.2177 111.705 28.2177C108.61 28.2177 106.126 26.0923 106.126 22.8059V18.5305L108.399 17.3202V22.8059C108.399 26.5696 110.613 27.2042 111.705 27.2042C112.797 27.2042 115.011 26.5696 115.011 22.8059V14.7521L117.318 13.5369V16.2035L118.106 15.3572C126.568 13.9895 126.873 13.96 128.113 13.9305C131.301 13.8715 133.332 15.4064 133.332 19.1504V22.5943H134.272C134.296 22.5936 134.32 22.5979 134.343 22.6068C134.365 22.6157 134.385 22.6291 134.402 22.6461C134.419 22.6632 134.433 22.6835 134.442 22.7059C134.451 22.7283 134.455 22.7523 134.454 22.7763M131.148 22.5943C131.086 22.4291 131.055 22.2541 131.055 22.0777V19.0176C131.055 16.6807 130.449 15.0817 128.147 15.0128C127.266 14.9833 127.055 14.9833 117.323 16.4888V22.5845L131.148 22.5943Z" fill="#F8F8F8"/>
<path d="M136.152 22.7567V23.3962C136.152 23.4203 136.148 23.4443 136.139 23.4667C136.13 23.4891 136.117 23.5094 136.1 23.5265C136.083 23.5435 136.062 23.5569 136.04 23.5658C136.018 23.5747 135.994 23.579 135.97 23.5783H134.272C134.248 23.579 134.224 23.5747 134.202 23.5658C134.179 23.5569 134.159 23.5435 134.142 23.5265C134.125 23.5094 134.111 23.4891 134.103 23.4667C134.094 23.4443 134.089 23.4203 134.09 23.3962V22.7567C134.095 22.7099 134.115 22.6661 134.148 22.6328C134.182 22.5996 134.225 22.579 134.272 22.5746H135.97C136.017 22.5781 136.061 22.5983 136.094 22.6318C136.128 22.6652 136.148 22.7095 136.152 22.7567Z" fill="#F8F8F8"/>
<path d="M137.849 22.7567V23.3962C137.85 23.4203 137.845 23.4443 137.836 23.4667C137.827 23.4891 137.814 23.5094 137.797 23.5265C137.78 23.5435 137.76 23.5569 137.737 23.5658C137.715 23.5747 137.691 23.579 137.667 23.5783H135.969C135.945 23.579 135.921 23.5747 135.899 23.5658C135.877 23.5569 135.856 23.5435 135.839 23.5265C135.822 23.5094 135.809 23.4891 135.8 23.4667C135.791 23.4443 135.787 23.4203 135.787 23.3962V22.7567C135.792 22.7099 135.812 22.6661 135.846 22.6328C135.879 22.5996 135.923 22.579 135.969 22.5746H137.667C137.714 22.5781 137.758 22.5983 137.792 22.6318C137.825 22.6652 137.845 22.7095 137.849 22.7567Z" fill="#F8F8F8"/>
<path d="M139.546 22.7567V23.3962C139.547 23.4203 139.543 23.4443 139.534 23.4667C139.525 23.4891 139.511 23.5094 139.494 23.5265C139.477 23.5435 139.457 23.5569 139.435 23.5658C139.412 23.5747 139.388 23.579 139.364 23.5783H137.662C137.638 23.579 137.614 23.5747 137.591 23.5658C137.569 23.5569 137.549 23.5435 137.532 23.5265C137.515 23.5094 137.501 23.4891 137.492 23.4667C137.483 23.4443 137.479 23.4203 137.48 23.3962V22.7567C137.484 22.7099 137.505 22.6661 137.538 22.6328C137.571 22.5996 137.615 22.579 137.662 22.5746H139.364C139.411 22.579 139.455 22.5996 139.488 22.6328C139.521 22.6661 139.542 22.7099 139.546 22.7567Z" fill="#F8F8F8"/>
<path d="M141.249 22.7567V23.3962C141.249 23.4203 141.245 23.4443 141.236 23.4667C141.227 23.4891 141.214 23.5094 141.197 23.5265C141.18 23.5435 141.159 23.5569 141.137 23.5658C141.115 23.5747 141.091 23.579 141.067 23.5783H139.369C139.345 23.579 139.321 23.5747 139.299 23.5658C139.276 23.5569 139.256 23.5435 139.239 23.5265C139.222 23.5094 139.209 23.4891 139.2 23.4667C139.191 23.4443 139.187 23.4203 139.187 23.3962V22.7567C139.191 22.7095 139.211 22.6652 139.244 22.6318C139.278 22.5983 139.322 22.5781 139.369 22.5746H141.067C141.113 22.579 141.157 22.5996 141.19 22.6328C141.224 22.6661 141.244 22.7099 141.249 22.7567Z" fill="#F8F8F8"/>
<path d="M142.946 22.7567V23.3962C142.947 23.4203 142.942 23.4443 142.933 23.4667C142.925 23.4891 142.911 23.5094 142.894 23.5265C142.877 23.5435 142.857 23.5569 142.834 23.5658C142.812 23.5747 142.788 23.579 142.764 23.5783H141.067C141.042 23.579 141.018 23.5747 140.996 23.5658C140.974 23.5569 140.953 23.5435 140.936 23.5265C140.919 23.5094 140.906 23.4891 140.897 23.4667C140.888 23.4443 140.884 23.4203 140.884 23.3962V22.7567C140.888 22.7095 140.908 22.6652 140.942 22.6318C140.975 22.5983 141.019 22.5781 141.067 22.5746H142.764C142.811 22.5781 142.855 22.5983 142.889 22.6318C142.922 22.6652 142.942 22.7095 142.946 22.7567Z" fill="#F8F8F8"/>
<path d="M144.643 22.7567V23.3962C144.644 23.4203 144.64 23.4443 144.631 23.4667C144.622 23.4891 144.608 23.5094 144.591 23.5265C144.574 23.5435 144.554 23.5569 144.532 23.5658C144.509 23.5747 144.485 23.579 144.461 23.5783H142.764C142.74 23.579 142.716 23.5747 142.693 23.5658C142.671 23.5569 142.651 23.5435 142.634 23.5265C142.616 23.5094 142.603 23.4891 142.594 23.4667C142.585 23.4443 142.581 23.4203 142.582 23.3962V22.7567C142.586 22.7099 142.607 22.6661 142.64 22.6328C142.673 22.5996 142.717 22.579 142.764 22.5746H144.466C144.513 22.5781 144.558 22.5983 144.591 22.6318C144.624 22.6652 144.645 22.7095 144.648 22.7567" fill="#F8F8F8"/>
<path d="M146.345 22.7567V23.3962C146.346 23.4203 146.342 23.4443 146.333 23.4667C146.324 23.4891 146.311 23.5094 146.294 23.5265C146.277 23.5435 146.256 23.5569 146.234 23.5658C146.211 23.5747 146.187 23.579 146.163 23.5783H144.466C144.442 23.579 144.418 23.5747 144.396 23.5658C144.373 23.5569 144.353 23.5435 144.336 23.5265C144.319 23.5094 144.305 23.4891 144.296 23.4667C144.288 23.4443 144.283 23.4203 144.284 23.3962V22.7567C144.288 22.7099 144.309 22.6661 144.342 22.6328C144.375 22.5996 144.419 22.579 144.466 22.5746H146.168C146.215 22.579 146.259 22.5996 146.292 22.6328C146.325 22.6661 146.346 22.7099 146.35 22.7567" fill="#F8F8F8"/>
<path d="M148.043 22.7567V23.3962C148.043 23.4203 148.039 23.4443 148.03 23.4667C148.021 23.4891 148.008 23.5094 147.991 23.5265C147.974 23.5435 147.954 23.5569 147.931 23.5658C147.909 23.5747 147.885 23.579 147.861 23.5783H146.163C146.139 23.579 146.115 23.5747 146.093 23.5658C146.07 23.5569 146.05 23.5435 146.033 23.5265C146.016 23.5094 146.003 23.4891 145.994 23.4667C145.985 23.4443 145.981 23.4203 145.981 23.3962V22.7567C145.985 22.7095 146.005 22.6652 146.038 22.6318C146.072 22.5983 146.116 22.5781 146.163 22.5746H147.861C147.907 22.579 147.951 22.5996 147.985 22.6328C148.018 22.6661 148.038 22.7099 148.043 22.7567Z" fill="#F8F8F8"/>
<path d="M149.74 22.7567V23.3962C149.741 23.4203 149.737 23.4443 149.728 23.4667C149.719 23.4891 149.705 23.5094 149.688 23.5265C149.671 23.5435 149.651 23.5569 149.629 23.5658C149.606 23.5747 149.582 23.579 149.558 23.5783H147.861C147.837 23.579 147.813 23.5747 147.79 23.5658C147.768 23.5569 147.748 23.5435 147.731 23.5265C147.714 23.5094 147.7 23.4891 147.691 23.4667C147.682 23.4443 147.678 23.4203 147.679 23.3962V22.7567C147.682 22.7095 147.702 22.6652 147.736 22.6318C147.769 22.5983 147.814 22.5781 147.861 22.5746H149.558C149.605 22.5781 149.65 22.5983 149.683 22.6318C149.716 22.6652 149.737 22.7095 149.74 22.7567Z" fill="#F8F8F8"/>
<path d="M151.437 22.7567V23.3962C151.438 23.4203 151.434 23.4443 151.425 23.4667C151.416 23.4891 151.403 23.5094 151.386 23.5265C151.369 23.5435 151.348 23.5569 151.326 23.5658C151.304 23.5747 151.28 23.579 151.255 23.5783H149.558C149.534 23.579 149.51 23.5747 149.488 23.5658C149.465 23.5569 149.445 23.5435 149.428 23.5265C149.411 23.5094 149.397 23.4891 149.389 23.4667C149.38 23.4443 149.375 23.4203 149.376 23.3962V22.7567C149.38 22.7099 149.401 22.6661 149.434 22.6328C149.467 22.5996 149.511 22.579 149.558 22.5746H151.255C151.303 22.5781 151.347 22.5983 151.38 22.6318C151.414 22.6652 151.434 22.7095 151.437 22.7567Z" fill="#F8F8F8"/>
<path d="M153.14 22.7567V23.3962C153.14 23.4203 153.136 23.4443 153.127 23.4667C153.118 23.4891 153.105 23.5094 153.088 23.5265C153.071 23.5435 153.051 23.5569 153.028 23.5658C153.006 23.5747 152.982 23.579 152.958 23.5783H151.255C151.231 23.579 151.207 23.5747 151.185 23.5658C151.163 23.5569 151.142 23.5435 151.125 23.5265C151.108 23.5094 151.095 23.4891 151.086 23.4667C151.077 23.4443 151.073 23.4203 151.073 23.3962V22.7567C151.078 22.7099 151.098 22.6661 151.132 22.6328C151.165 22.5996 151.209 22.579 151.255 22.5746H152.958C153.005 22.579 153.048 22.5996 153.082 22.6328C153.115 22.6661 153.135 22.7099 153.14 22.7567Z" fill="#F8F8F8"/>
<path d="M154.837 22.7567V23.3962C154.838 23.4203 154.833 23.4443 154.825 23.4667C154.816 23.4891 154.802 23.5094 154.785 23.5265C154.768 23.5435 154.748 23.5569 154.725 23.5658C154.703 23.5747 154.679 23.579 154.655 23.5783H152.958C152.934 23.579 152.91 23.5747 152.887 23.5658C152.865 23.5569 152.844 23.5435 152.827 23.5265C152.81 23.5094 152.797 23.4891 152.788 23.4667C152.779 23.4443 152.775 23.4203 152.776 23.3962V22.7567C152.779 22.7095 152.799 22.6652 152.833 22.6318C152.866 22.5983 152.91 22.5781 152.958 22.5746H154.655C154.702 22.579 154.746 22.5996 154.779 22.6328C154.812 22.6661 154.833 22.7099 154.837 22.7567Z" fill="#F8F8F8"/>
<path d="M156.534 22.7567V23.3962C156.535 23.4203 156.531 23.4443 156.522 23.4667C156.513 23.4891 156.5 23.5094 156.483 23.5265C156.466 23.5435 156.445 23.5569 156.423 23.5658C156.4 23.5747 156.376 23.579 156.352 23.5783H154.655C154.631 23.579 154.607 23.5747 154.585 23.5658C154.562 23.5569 154.542 23.5435 154.525 23.5265C154.508 23.5094 154.494 23.4891 154.485 23.4667C154.477 23.4443 154.472 23.4203 154.473 23.3962V22.7567C154.476 22.7095 154.497 22.6652 154.53 22.6318C154.564 22.5983 154.608 22.5781 154.655 22.5746H156.352C156.4 22.5781 156.444 22.5983 156.477 22.6318C156.511 22.6652 156.531 22.7095 156.534 22.7567Z" fill="#F8F8F8"/>
<path d="M158.242 22.7567V23.3962C158.242 23.4203 158.238 23.4443 158.229 23.4667C158.22 23.4891 158.207 23.5094 158.19 23.5265C158.173 23.5435 158.152 23.5569 158.13 23.5658C158.108 23.5747 158.084 23.579 158.06 23.5783H156.362C156.338 23.579 156.314 23.5747 156.292 23.5658C156.269 23.5569 156.249 23.5435 156.232 23.5265C156.215 23.5094 156.202 23.4891 156.193 23.4667C156.184 23.4443 156.18 23.4203 156.18 23.3962V22.7567C156.185 22.7099 156.205 22.6661 156.238 22.6328C156.272 22.5996 156.315 22.579 156.362 22.5746H158.06C158.107 22.5781 158.151 22.5983 158.185 22.6318C158.218 22.6652 158.238 22.7095 158.242 22.7567Z" fill="#F8F8F8"/>
<path d="M159.934 22.7567V23.3962C159.935 23.4203 159.931 23.4443 159.922 23.4667C159.913 23.4891 159.899 23.5094 159.882 23.5265C159.865 23.5435 159.845 23.5569 159.823 23.5658C159.8 23.5747 159.776 23.579 159.752 23.5783H158.05C158.026 23.579 158.002 23.5747 157.979 23.5658C157.957 23.5569 157.937 23.5435 157.92 23.5265C157.903 23.5094 157.889 23.4891 157.88 23.4667C157.871 23.4443 157.867 23.4203 157.868 23.3962V22.7567C157.872 22.7099 157.893 22.6661 157.926 22.6328C157.959 22.5996 158.003 22.579 158.05 22.5746H159.752C159.799 22.579 159.843 22.5996 159.876 22.6328C159.909 22.6661 159.93 22.7099 159.934 22.7567Z" fill="#F8F8F8"/>
<path d="M161.631 22.7567V23.3962C161.632 23.4203 161.628 23.4443 161.619 23.4667C161.61 23.4891 161.597 23.5094 161.58 23.5265C161.562 23.5435 161.542 23.5569 161.52 23.5658C161.497 23.5747 161.473 23.579 161.449 23.5783H159.752C159.728 23.579 159.704 23.5747 159.681 23.5658C159.659 23.5569 159.639 23.5435 159.622 23.5265C159.605 23.5094 159.591 23.4891 159.582 23.4667C159.573 23.4443 159.569 23.4203 159.57 23.3962V22.7567C159.573 22.7095 159.594 22.6652 159.627 22.6318C159.66 22.5983 159.705 22.5781 159.752 22.5746H161.449C161.496 22.579 161.54 22.5996 161.573 22.6328C161.606 22.6661 161.627 22.7099 161.631 22.7567Z" fill="#F8F8F8"/>
<path d="M163.329 22.7567V23.3962C163.329 23.4203 163.325 23.4443 163.316 23.4667C163.307 23.4891 163.294 23.5094 163.277 23.5265C163.26 23.5435 163.24 23.5569 163.217 23.5658C163.195 23.5747 163.171 23.579 163.147 23.5783H161.449C161.425 23.579 161.401 23.5747 161.379 23.5658C161.357 23.5569 161.336 23.5435 161.319 23.5265C161.302 23.5094 161.289 23.4891 161.28 23.4667C161.271 23.4443 161.267 23.4203 161.267 23.3962V22.7567C161.271 22.7095 161.291 22.6652 161.325 22.6318C161.358 22.5983 161.402 22.5781 161.449 22.5746H163.162C163.209 22.5781 163.253 22.5983 163.286 22.6318C163.32 22.6652 163.34 22.7095 163.344 22.7567" fill="#F8F8F8"/>
<path d="M165.026 22.7567V23.3962C165.027 23.4203 165.023 23.4443 165.014 23.4667C165.005 23.4891 164.991 23.5094 164.974 23.5265C164.957 23.5435 164.937 23.5569 164.915 23.5658C164.892 23.5747 164.868 23.579 164.844 23.5783H163.161C163.137 23.579 163.113 23.5747 163.091 23.5658C163.069 23.5569 163.048 23.5435 163.031 23.5265C163.014 23.5094 163.001 23.4891 162.992 23.4667C162.983 23.4443 162.979 23.4203 162.979 23.3962V22.7567C162.984 22.7099 163.004 22.6661 163.038 22.6328C163.071 22.5996 163.115 22.579 163.161 22.5746H164.859C164.906 22.5781 164.95 22.5983 164.984 22.6318C165.017 22.6652 165.037 22.7095 165.041 22.7567" fill="#F8F8F8"/>
<path d="M166.728 22.7567V23.3962C166.729 23.4203 166.725 23.4443 166.716 23.4667C166.707 23.4891 166.694 23.5094 166.677 23.5265C166.659 23.5435 166.639 23.5569 166.617 23.5658C166.594 23.5747 166.57 23.579 166.546 23.5783H164.844C164.82 23.579 164.796 23.5747 164.774 23.5658C164.751 23.5569 164.731 23.5435 164.714 23.5265C164.697 23.5094 164.683 23.4891 164.674 23.4667C164.666 23.4443 164.661 23.4203 164.662 23.3962V22.7567C164.666 22.7099 164.687 22.6661 164.72 22.6328C164.753 22.5996 164.797 22.579 164.844 22.5746H166.546C166.593 22.579 166.637 22.5996 166.67 22.6328C166.703 22.6661 166.724 22.7099 166.728 22.7567Z" fill="#F8F8F8"/>
<path d="M189.173 22.7567V23.3962C189.173 23.4203 189.169 23.4443 189.16 23.4667C189.151 23.4891 189.138 23.5094 189.121 23.5265C189.104 23.5435 189.083 23.5569 189.061 23.5658C189.039 23.5747 189.015 23.579 188.991 23.5783H187.2C186.912 23.5761 186.63 23.4922 186.388 23.3363C186.146 23.1804 185.953 22.9589 185.832 22.6976L184.986 23.5783H166.546C166.522 23.579 166.498 23.5747 166.476 23.5658C166.453 23.5569 166.433 23.5435 166.416 23.5265C166.399 23.5094 166.386 23.4891 166.377 23.4667C166.368 23.4443 166.364 23.4203 166.364 23.3962V22.7567C166.364 22.7326 166.368 22.7086 166.377 22.6862C166.386 22.6638 166.399 22.6435 166.416 22.6264C166.433 22.6094 166.453 22.596 166.476 22.5871C166.498 22.5782 166.522 22.574 166.546 22.5746H169.67V14.7521L171.943 13.5369V16.2035L172.765 15.3572C181.193 13.9895 181.527 13.96 182.772 13.9305C185.925 13.901 187.987 15.4064 187.987 19.1504V22.5943H188.971C188.995 22.5936 189.019 22.5979 189.041 22.6068C189.064 22.6157 189.084 22.6291 189.101 22.6461C189.118 22.6632 189.132 22.6835 189.14 22.7059C189.149 22.7283 189.154 22.7523 189.153 22.7763M185.753 22.5943C185.693 22.4288 185.663 22.2538 185.665 22.0777V19.0176C185.665 16.6807 185.055 15.0817 182.752 15.0128C181.871 14.9833 181.66 14.9833 171.929 16.4888V22.5845L185.753 22.5943Z" fill="#F8F8F8"/>
<path d="M190.87 22.7567V23.3962C190.871 23.4203 190.866 23.4443 190.857 23.4667C190.849 23.4891 190.835 23.5094 190.818 23.5265C190.801 23.5435 190.781 23.5569 190.758 23.5658C190.736 23.5747 190.712 23.579 190.688 23.5783H188.991C188.966 23.579 188.943 23.5747 188.92 23.5658C188.898 23.5569 188.877 23.5435 188.86 23.5265C188.843 23.5094 188.83 23.4891 188.821 23.4667C188.812 23.4443 188.808 23.4203 188.809 23.3962V22.7567C188.812 22.7095 188.832 22.6652 188.866 22.6318C188.899 22.5983 188.943 22.5781 188.991 22.5746H190.713C190.759 22.579 190.803 22.5996 190.836 22.6328C190.87 22.6661 190.89 22.7099 190.895 22.7567" fill="#F8F8F8"/>
<path d="M192.567 22.7567V23.3962C192.568 23.4203 192.564 23.4443 192.555 23.4667C192.546 23.4891 192.532 23.5094 192.515 23.5265C192.498 23.5435 192.478 23.5569 192.456 23.5658C192.433 23.5747 192.409 23.579 192.385 23.5783H190.712C190.688 23.579 190.664 23.5747 190.642 23.5658C190.62 23.5569 190.599 23.5435 190.582 23.5265C190.565 23.5094 190.552 23.4891 190.543 23.4667C190.534 23.4443 190.53 23.4203 190.53 23.3962V22.7567C190.534 22.7095 190.554 22.6652 190.588 22.6318C190.621 22.5983 190.665 22.5781 190.712 22.5746H192.41C192.457 22.5781 192.501 22.5983 192.535 22.6318C192.568 22.6652 192.588 22.7095 192.592 22.7567" fill="#F8F8F8"/>
<path d="M194.265 22.7567V23.3962C194.265 23.4203 194.261 23.4443 194.252 23.4667C194.243 23.4891 194.23 23.5094 194.213 23.5265C194.196 23.5435 194.176 23.5569 194.153 23.5658C194.131 23.5747 194.107 23.579 194.083 23.5783H192.385C192.361 23.579 192.337 23.5747 192.315 23.5658C192.293 23.5569 192.272 23.5435 192.255 23.5265C192.238 23.5094 192.225 23.4891 192.216 23.4667C192.207 23.4443 192.203 23.4203 192.203 23.3962V22.7567C192.208 22.7099 192.228 22.6661 192.262 22.6328C192.295 22.5996 192.339 22.579 192.385 22.5746H194.083C194.13 22.5781 194.174 22.5983 194.208 22.6318C194.241 22.6652 194.261 22.7095 194.265 22.7567Z" fill="#F8F8F8"/>
<path d="M195.967 22.7567V23.3962C195.968 23.4203 195.963 23.4443 195.954 23.4667C195.946 23.4891 195.932 23.5094 195.915 23.5265C195.898 23.5435 195.878 23.5569 195.855 23.5658C195.833 23.5747 195.809 23.579 195.785 23.5783H194.083C194.059 23.579 194.035 23.5747 194.012 23.5658C193.99 23.5569 193.969 23.5435 193.952 23.5265C193.935 23.5094 193.922 23.4891 193.913 23.4667C193.904 23.4443 193.9 23.4203 193.901 23.3962V22.7567C193.905 22.7099 193.926 22.6661 193.959 22.6328C193.992 22.5996 194.036 22.579 194.083 22.5746H195.785C195.832 22.579 195.875 22.5996 195.909 22.6328C195.942 22.6661 195.963 22.7099 195.967 22.7567Z" fill="#F8F8F8"/>
<path d="M217.107 22.5746L216.168 23.5586H215.346C215.042 23.5646 214.743 23.4853 214.482 23.3296C214.221 23.1739 214.009 22.9482 213.87 22.678L213.019 23.5586H195.8C195.776 23.5593 195.752 23.555 195.729 23.5461C195.707 23.5372 195.686 23.5238 195.669 23.5068C195.652 23.4898 195.639 23.4694 195.63 23.447C195.621 23.4246 195.617 23.4007 195.618 23.3766V22.737C195.617 22.7129 195.621 22.6889 195.63 22.6665C195.639 22.6441 195.652 22.6238 195.669 22.6068C195.686 22.5897 195.707 22.5764 195.729 22.5674C195.752 22.5585 195.776 22.5543 195.8 22.555H213.816C213.058 21.2512 212.448 19.6031 211.691 17.9156C211.022 16.4396 209.993 15.185 207.72 15.185H197.527L198.51 14.2011H208.094C211.13 14.2011 213.014 15.5934 213.998 17.4432C214.982 19.4751 215.577 21.143 216.094 22.0876C216.142 22.2272 216.231 22.3491 216.35 22.4369C216.468 22.5248 216.611 22.5745 216.758 22.5796L217.107 22.5746Z" fill="#F8F8F8"/>
<path d="M42.6353 40.4828H3.12415V41.2553H42.6353V40.4828Z" fill="#F8F8F8"/>
<path d="M217.717 40.4828H178.206V41.2553H217.717V40.4828Z" fill="#F8F8F8"/>
<path d="M283.473 41.2688C282.903 40.8511 282.295 40.4892 281.656 40.1883C278.266 38.4516 274.009 37.5072 270.235 36.987C269.073 36.819 267.903 36.7148 266.73 36.6749H266.69C266.942 36.971 267.182 37.2591 267.386 37.5112L267.466 37.6193C267.51 37.6713 267.55 37.7273 267.586 37.7754C267.622 37.8234 267.706 37.9314 267.75 37.9994L267.774 38.0315L264.409 36.6709C262.671 36.7258 260.94 36.9239 259.235 37.2631C252.956 38.5157 247.326 41.901 241.075 43.2456C240.643 43.3416 240.203 43.4257 239.767 43.4977L237.086 44.4781V44.4581C237.258 44.226 237.422 43.9939 237.582 43.7578H237.546C236.986 43.7978 236.425 43.8138 235.865 43.8098C235.277 43.8057 234.689 43.7696 234.105 43.7018C233.932 44.0419 233.756 44.374 233.572 44.7062C233.612 44.354 233.64 43.9979 233.664 43.6417C233.544 43.6417 233.424 43.6057 233.308 43.5817C232.932 43.5137 232.552 43.4296 232.188 43.3256C231.597 43.0516 230.992 42.8098 230.375 42.6013C230.331 42.6013 229.467 42.2492 229.315 42.4333C229.078 42.7294 232.276 44.314 232.32 44.338C233.521 44.9211 234.759 45.4263 236.025 45.8506C238.476 46.6967 241.069 47.0477 243.656 46.8831C246.654 46.663 249.559 45.8266 252.384 44.8022L252.512 44.9063C254.566 46.3808 256.831 47.5369 259.231 48.3356C260.438 48.7764 261.708 49.0183 262.992 49.0519C265.421 49.0519 267.75 48.2036 269.875 47.0511C272.908 45.4265 281.388 40.2844 283.481 41.2688M265.873 42.6613C264.065 43.7658 262.188 44.8862 260.143 45.4625C259.184 45.7381 258.192 45.8861 257.194 45.9027C256.856 45.912 256.518 45.9013 256.182 45.8706C255.441 45.5025 254.677 45.1824 253.929 44.8942C253.793 44.8462 253.336 44.6902 252.932 44.5901C256.069 43.4296 259.139 42.0571 262.344 41.1047C264.506 40.4643 266.728 40.046 268.975 39.8562C269.611 39.8002 270.251 39.7642 270.887 39.7482H271.104L270.903 39.8362C270.387 40.0723 269.879 40.3284 269.375 40.6005C268.174 41.2448 267.006 41.9691 265.873 42.6613Z" fill="#F8F8F8"/>
<path d="M252.156 7.20291C252.132 7.14689 252.036 7.15089 251.884 7.20291C251.12 7.45502 249.039 8.83158 249.007 8.85559C247.678 9.75296 246.422 10.7552 245.253 11.8528C243.557 13.4375 242.162 15.3167 241.136 17.3991C239.823 20.1042 239.099 23.0413 238.57 25.9985L238.418 26.0586C236.112 27.0985 233.978 28.4828 232.088 30.1642C231.102 30.9857 230.257 31.963 229.587 33.0574C228.984 34.1038 228.548 35.2379 228.294 36.4188C227.951 38.0249 227.861 39.6748 228.026 41.3088C228.618 47.9715 225.625 54.5581 225.589 54.6102C229.683 53.4337 234.045 48.2996 236.029 45.8466C236.394 45.3984 236.746 44.9382 237.082 44.4741V44.454C237.254 44.2219 237.418 43.9899 237.578 43.7538C238.038 43.0935 238.474 42.4132 238.887 41.7209C240.017 39.8134 240.946 37.7938 241.66 35.6945C243.717 29.628 243.601 23.0614 245.561 16.9749C245.605 16.8348 245.653 16.6948 245.701 16.5507C245.904 15.9451 246.131 15.3489 246.382 14.762C246.47 14.5579 246.558 14.3618 246.654 14.1457C246.826 13.7736 247.01 13.4014 247.206 13.0373C247.35 12.7705 247.502 12.5037 247.662 12.237C247.766 12.0609 247.874 11.8848 247.982 11.7127L248.01 11.6687C248.346 11.1381 248.716 10.6302 249.119 10.1481C249.371 9.85199 249.639 9.55987 249.919 9.29176C250.452 8.9206 250.964 8.51981 251.452 8.09128C251.707 7.89574 251.93 7.66069 252.112 7.39499C252.121 7.37283 252.126 7.34902 252.126 7.32496C252.126 7.30091 252.121 7.2771 252.112 7.25494M234.073 32.4092C234.314 31.4415 234.679 30.5092 235.161 29.636C235.325 29.34 235.504 29.0528 235.697 28.7757C236.39 28.3195 237.046 27.8153 237.666 27.3111C237.933 27.0871 238.188 26.8493 238.43 26.5988C237.87 29.8961 237.522 33.2415 236.742 36.4948C236.139 39.0104 235.243 41.4467 234.073 43.7538C233.901 44.0939 233.725 44.426 233.54 44.7582C233.58 44.406 233.608 44.0499 233.632 43.6937C233.729 42.0531 233.673 40.3804 233.632 38.7717C233.58 36.6549 233.548 34.47 234.069 32.4092" fill="#F8F8F8"/>
<path d="M271.232 42.7494C271.156 41.765 271.044 40.7926 270.883 39.8402C270.367 40.0723 269.859 40.3284 269.355 40.6005C269.637 41.136 269.88 41.691 270.083 42.2612C270.211 42.6213 270.331 42.9895 270.423 43.3616C270.479 44.0106 270.571 44.6558 270.699 45.2944C270.699 45.3424 270.847 46.2588 271.1 46.2948C271.472 46.3548 271.252 42.7894 271.248 42.7414M270.251 36.967C269.715 35.0762 268.881 33.2825 267.782 31.6529C266.093 29.1638 263.917 27.067 261.62 25.1342C261.62 25.0862 261.62 25.0302 261.644 24.9701C261.891 22.4526 261.756 19.9122 261.244 17.4351C261.023 16.1744 260.599 14.958 259.987 13.8336C258.787 11.7208 256.874 10.1401 254.825 8.8636C253.969 8.33138 253.064 7.83518 252.148 7.33498L251.884 7.20292C249.563 5.9144 243.188 1.36856 243.016 0C242.472 3.77753 244.073 8.47944 245.253 11.8608C245.593 12.8412 245.973 13.8096 246.402 14.758C246.4 14.7699 246.4 14.7821 246.402 14.794L246.662 14.1417C246.834 13.7696 247.018 13.3974 247.214 13.0333L247.262 16.5907C248.454 18.895 249.923 21.0451 251.636 22.9933C255.537 27.4391 260.735 30.4964 264.889 34.6701L264.913 34.6981C265.249 35.0302 265.577 35.3784 265.897 35.7305C266.218 36.0826 266.45 36.3508 266.698 36.6749C266.946 36.999 267.142 37.2271 267.354 37.5072L267.434 37.6153L267.554 37.7713C267.618 37.8554 267.674 37.9274 267.718 37.9954L267.742 38.0274C268.176 38.6196 268.577 39.2354 268.943 39.8722C269.579 39.8162 270.219 39.7802 270.855 39.7641C270.702 38.8264 270.49 37.8989 270.223 36.987M253.436 18.3875C251.337 16.3965 249.507 14.139 247.994 11.6727L247.878 11.4807L248.042 11.6007C249.64 12.6834 251.301 13.6696 253.016 14.5539C254.877 15.5703 256.786 16.6348 258.314 18.1154C259.031 18.8076 259.654 19.5906 260.167 20.4443C260.339 20.7364 260.503 21.0325 260.647 21.3407C260.699 22.1572 260.793 22.9706 260.927 23.7777C260.951 23.9217 261.047 24.3939 261.163 24.7941C258.586 22.6612 255.865 20.6884 253.436 18.3915" fill="#F8F8F8"/>
</svg>
