<svg width="56" height="57" viewBox="0 0 56 57" fill="none" xmlns="http://www.w3.org/2000/svg">
<path d="M20.1743 7.91935C26.5192 7.30033 31.6648 8.49968 36.3848 11.4787C37.0812 11.9043 37.3134 12.2912 36.9652 13.0649C36.5783 13.9548 36.2688 14.8833 36.0753 15.8118C35.8432 16.9725 34.9147 17.5141 34.1796 18.2105C33.6766 18.6748 33.4058 18.0945 33.135 17.901C26.7127 13.4131 18.2398 13.8774 12.5139 19.1004C7.09751 24.0138 5.58865 32.0224 8.87719 38.4834C12.3205 45.3313 19.4005 48.6972 27.0996 47.1884C33.9088 45.8729 39.2478 39.7214 39.8281 32.564C40.0603 29.7011 39.596 26.9542 38.3966 24.3233C38.1645 23.8591 37.5842 23.3174 37.855 22.8919C38.3193 22.2342 38.9383 21.5378 39.7508 21.3443C41.1435 20.9961 42.575 20.8414 43.9678 20.5705C44.6642 20.4545 44.7416 20.9574 44.8963 21.3443C48.6491 30.2814 47.7593 38.7155 41.6078 46.1824C35.6498 53.4172 27.6799 56.1254 18.5494 54.1136C9.45752 52.1792 3.49946 46.4146 0.907322 37.4388C-3.07761 23.5496 6.55587 9.42821 20.1743 7.91935Z" fill="#8F806C"/>
<path d="M48.3396 2.23213C48.1848 4.32132 48.0688 6.41051 47.914 8.92527C48.9973 7.49379 49.7711 7.64855 50.5062 8.80921C51.0865 9.73773 49.8871 9.69905 49.8098 10.4341C51.8603 10.5889 53.9108 10.7436 56 10.8984C55.8452 11.5561 55.3036 11.7882 54.9167 12.1364C53.4465 13.4518 51.8603 14.6512 50.4675 16.044C48.8426 17.7076 46.9081 18.4427 44.7029 18.7135C42.9619 18.9456 41.2209 19.2938 39.4799 19.5647C38.8996 19.642 38.474 19.9515 38.0484 20.2997C33.7153 24.0525 29.4208 27.7667 25.0877 31.5195C25.0103 31.5968 24.8943 31.6742 24.8169 31.7516C24.1592 32.3706 23.4241 32.7188 22.7664 31.8677C22.1474 31.0939 22.5729 30.4749 23.192 29.9332C25.2038 28.2309 27.2156 26.4899 29.1887 24.7489C31.5874 22.6984 33.9474 20.6093 36.3461 18.5588C36.9264 18.0558 37.3133 17.4368 37.5455 16.7017C38.1645 14.6125 38.8996 12.562 39.5186 10.4728C39.8281 9.42823 40.331 8.57708 41.1822 7.88068C43.5035 5.94624 45.7475 3.97312 48.0301 2C48.1462 2.11607 48.2235 2.15475 48.3396 2.23213Z" fill="#02464F"/>
<path d="M28.2603 23.3174C26.0937 25.2132 23.9658 26.9928 21.9153 28.8112C20.1356 30.3974 20.4838 33.0283 22.573 33.8794C23.7724 34.3824 24.8557 34.0729 25.8229 33.2217C27.8734 31.4034 29.9239 29.6624 32.0131 27.844C33.8701 30.823 32.5547 35.9299 29.3435 38.4447C25.6681 41.3463 20.4065 41.0755 17.0405 37.787C13.752 34.5758 13.3651 29.2368 16.1894 25.6001C19.0524 21.8473 24.0819 20.8413 28.2603 23.3174Z" fill="#8F806C"/>
</svg>
