<svg width="22" height="22" viewBox="0 0 22 22" fill="none" xmlns="http://www.w3.org/2000/svg">
<path fill-rule="evenodd" clip-rule="evenodd" d="M0.5 3.16797C0.5 2.37232 0.816071 1.60926 1.37868 1.04665C1.94129 0.484043 2.70435 0.167973 3.5 0.167973H4.872C5.732 0.167973 6.482 0.753973 6.691 1.58797L7.796 6.01097C7.88554 6.36897 7.86746 6.74543 7.74401 7.0932C7.62055 7.44096 7.39723 7.74456 7.102 7.96597L5.809 8.93597C5.674 9.03697 5.645 9.18497 5.683 9.28797C6.24738 10.8228 7.1386 12.2167 8.29495 13.373C9.4513 14.5294 10.8451 15.4206 12.38 15.985C12.483 16.023 12.63 15.994 12.732 15.859L13.702 14.566C13.9234 14.2707 14.227 14.0474 14.5748 13.924C14.9225 13.8005 15.299 13.7824 15.657 13.872L20.08 14.977C20.914 15.186 21.5 15.936 21.5 16.797V18.168C21.5 18.9636 21.1839 19.7267 20.6213 20.2893C20.0587 20.8519 19.2956 21.168 18.5 21.168H16.25C7.552 21.168 0.5 14.116 0.5 5.41797V3.16797Z" fill="#521501"/>
</svg>
