<svg width="64" height="64" viewBox="0 0 64 64" fill="none" xmlns="http://www.w3.org/2000/svg">
<g clip-path="url(#clip0_308_174)">
<path d="M40.1499 23.7969C39.4843 24.1661 38.6535 23.9154 38.2961 23.2409C37.9343 22.5619 38.18 21.7143 38.8455 21.3497C41.9902 19.6088 43.4554 17.3575 43.7502 15.1563C43.9065 13.9805 43.7279 12.8002 43.2946 11.7064C42.8524 10.599 42.1511 9.59186 41.2621 8.78066C39.5334 7.20384 37.1079 6.37441 34.5752 7.01699C33.5478 7.27675 32.6589 7.80084 31.8816 8.53912C31.0553 9.32298 30.3405 10.3484 29.7152 11.5606C29.3623 12.2442 28.5359 12.504 27.8703 12.1485C27.2003 11.7885 26.9457 10.9454 27.2941 10.2663C28.0624 8.78066 28.9603 7.50462 30.0234 6.4929C31.1357 5.44017 32.4266 4.68365 33.9275 4.3054C37.4117 3.42584 40.7306 4.54694 43.0891 6.69798C44.2862 7.79173 45.2377 9.15436 45.8363 10.6583C46.4393 12.1758 46.685 13.8438 46.4572 15.5346C46.0507 18.5515 44.1567 21.5775 40.1499 23.7969ZM29.6705 34.8119C24.4889 27.7117 24.3638 20.9851 30.6532 14.7325L26.1238 12.1804C22.4966 10.7403 15.841 21.3542 18.4139 24.1889L21.9428 29.53L21.2146 31.0795C21.0136 31.5398 21.2102 31.8633 21.7015 32.0867L22.1795 32.2188L13 50.7533L14.8582 54.7956L18.5747 53.6791L19.5306 51.7833L18.6149 50.0333L20.6339 49.5912L21.103 48.6615L20.0488 47.0209L20.7412 45.6492L22.7557 45.3894L23.4124 44.0906L22.2867 42.5912L23.0059 41.1693L25.0607 40.8275L27.8569 35.3816L28.3304 35.6459C29.1523 36.1563 29.5767 35.8282 29.6705 34.8119ZM39.4218 39.2644L38.0549 44.4688L36.1565 45.2344L35.7589 46.752L37.1436 47.9506L36.7818 49.3314L34.9057 50.0059L34.5216 51.4643L35.8661 52.8087L35.607 53.7976L33.7622 54.6498L34.9951 56.1309L34.4635 58.1498L31.1357 60.0046L28.5359 56.5274L33.4942 37.6465L32.2926 37.3184C32.0469 37.2501 31.895 36.9903 31.962 36.7351L32.4668 34.8165C28.8307 32.0046 27.0306 27.1374 28.2813 22.3659C29.8894 16.2364 35.9554 12.5359 41.9679 13.9122C41.9947 14.2403 41.9902 14.573 41.9456 14.9057C41.8339 15.7351 41.481 16.5873 40.8288 17.4122C40.7395 17.5215 40.6457 17.6355 40.5474 17.7449C38.6267 17.6172 36.8265 18.8842 36.3083 20.8529C36.085 21.7006 36.1341 22.5574 36.3977 23.3275C36.4602 23.601 36.5629 23.8653 36.697 24.1251C37.0141 24.7175 37.4787 25.1687 38.0236 25.4558C38.381 25.6973 38.783 25.8796 39.2163 26.0027C41.3738 26.5906 43.5849 25.3236 44.2282 23.1589C44.8803 22.571 45.4476 21.9512 45.9345 21.3132C46.8815 20.0691 47.5292 18.7475 47.9134 17.4031C50.522 20.2742 51.67 24.4076 50.6024 28.4727C49.3517 33.2442 45.3985 36.5437 40.878 37.1225L40.3732 39.0411C40.3062 39.2917 40.0516 39.4467 39.8015 39.3783L39.4218 39.2644Z" fill="#8F806C"/>
</g>
<defs>
<clipPath id="clip0_308_174">
<rect width="38" height="56" fill="white" transform="translate(13 4)"/>
</clipPath>
</defs>
</svg>
