<svg width="30" height="30" viewBox="0 0 30 30" fill="none" xmlns="http://www.w3.org/2000/svg">
<path fill-rule="evenodd" clip-rule="evenodd" d="M25.3847 4.60344C22.6 1.82852 18.8963 0.299565 14.9501 0.298157C6.81863 0.298157 0.200831 6.8835 0.198002 14.9781C0.196587 17.5657 0.876334 20.0915 2.16722 22.3173L0.0742188 29.9255L7.89448 27.884C10.049 29.054 12.4751 29.6699 14.9438 29.6707H14.9501C23.0802 29.6707 29.6988 23.0846 29.7015 14.99C29.7029 11.067 28.1701 7.37907 25.3847 4.60414V4.60344ZM14.9501 27.1914H14.9452C12.7453 27.1907 10.5873 26.6022 8.70441 25.4907L8.25665 25.226L3.61584 26.4375L4.85437 21.9344L4.56295 21.4726C3.33573 19.5298 2.6871 17.2841 2.68852 14.9788C2.69135 8.25125 8.19156 2.77742 14.9551 2.77742C18.23 2.77883 21.3084 4.04945 23.6234 6.35625C25.9385 8.66236 27.2124 11.7287 27.211 14.9886C27.2082 21.7169 21.708 27.1907 14.9501 27.1907V27.1914ZM21.6754 18.0529C21.3069 17.8692 19.4948 16.9822 19.1566 16.8597C18.8185 16.7372 18.5731 16.676 18.3276 17.0434C18.0822 17.4109 17.3756 18.2373 17.1605 18.4816C16.9455 18.7265 16.7305 18.7568 16.3619 18.5731C15.9935 18.3893 14.8058 18.0022 13.3975 16.7527C12.3019 15.7798 11.562 14.579 11.347 14.2115C11.132 13.844 11.3244 13.6455 11.5082 13.4632C11.6737 13.2985 11.8768 13.0345 12.0614 12.8205C12.246 12.6065 12.3068 12.4531 12.4299 12.2088C12.553 11.9638 12.4914 11.7499 12.3995 11.5661C12.3075 11.3824 11.5705 9.57672 11.2628 8.84254C10.9636 8.12736 10.6595 8.2245 10.4338 8.21253C10.2188 8.20197 9.97337 8.19986 9.72721 8.19986C9.48106 8.19986 9.08208 8.29138 8.744 8.65883C8.40592 9.02625 7.45382 9.91392 7.45382 11.7188C7.45382 13.5237 8.77445 15.2688 8.95904 15.5138C9.14364 15.7588 11.5584 19.4636 15.2557 21.0531C16.1349 21.4311 16.8217 21.657 17.3572 21.826C18.24 22.1055 19.0434 22.0661 19.6786 21.9717C20.3867 21.8661 21.8594 21.084 22.1663 20.2273C22.4733 19.3706 22.4733 18.6357 22.3814 18.483C22.2894 18.3302 22.0433 18.238 21.6748 18.0543L21.6754 18.0529Z" fill="white"/>
</svg>
