<svg width="45" height="45" viewBox="0 0 45 45" fill="none" xmlns="http://www.w3.org/2000/svg">
<g clip-path="url(#clip0_383_696)">
<path d="M11.25 12.6563C10.1375 12.6563 9.04995 12.3264 8.12492 11.7083C7.19989 11.0902 6.47892 10.2117 6.05318 9.18385C5.62744 8.15601 5.51604 7.02501 5.73309 5.93387C5.95013 4.84273 6.48586 3.84045 7.27253 3.05378C8.0592 2.26711 9.06148 1.73138 10.1526 1.51434C11.2438 1.29729 12.3748 1.40869 13.4026 1.83443C14.4304 2.26017 15.3089 2.98114 15.927 3.90617C16.5451 4.8312 16.875 5.91873 16.875 7.03125C16.875 8.5231 16.2824 9.95384 15.2275 11.0087C14.1726 12.0636 12.7418 12.6563 11.25 12.6563ZM11.25 4.21875C10.6937 4.21875 10.15 4.3837 9.68746 4.69274C9.22495 5.00179 8.86446 5.44104 8.65159 5.95496C8.43872 6.46887 8.38302 7.03437 8.49154 7.57994C8.60006 8.12552 8.86793 8.62666 9.26126 9.01999C9.6546 9.41333 10.1557 9.68119 10.7013 9.78971C11.2469 9.89823 11.8124 9.84254 12.3263 9.62966C12.8402 9.41679 13.2795 9.05631 13.5885 8.59379C13.8976 8.13128 14.0625 7.58751 14.0625 7.03125C14.0625 6.28533 13.7662 5.56996 13.2387 5.04251C12.7113 4.51507 11.9959 4.21875 11.25 4.21875Z" fill="#02464F"/>
<path d="M33.75 12.6563C32.6375 12.6563 31.5499 12.3264 30.6249 11.7083C29.6999 11.0902 28.9789 10.2117 28.5532 9.18385C28.1274 8.15601 28.016 7.02501 28.2331 5.93387C28.4501 4.84273 28.9859 3.84045 29.7725 3.05378C30.5592 2.26711 31.5615 1.73138 32.6526 1.51434C33.7438 1.29729 34.8748 1.40869 35.9026 1.83443C36.9304 2.26017 37.8089 2.98114 38.427 3.90617C39.0451 4.8312 39.375 5.91873 39.375 7.03125C39.375 8.5231 38.7824 9.95384 37.7275 11.0087C36.6726 12.0636 35.2418 12.6563 33.75 12.6563ZM33.75 4.21875C33.1937 4.21875 32.65 4.3837 32.1875 4.69274C31.7249 5.00179 31.3645 5.44104 31.1516 5.95496C30.9387 6.46887 30.883 7.03437 30.9915 7.57994C31.1001 8.12552 31.3679 8.62666 31.7613 9.01999C32.1546 9.41333 32.6557 9.68119 33.2013 9.78971C33.7469 9.89823 34.3124 9.84254 34.8263 9.62966C35.3402 9.41679 35.7795 9.05631 36.0885 8.59379C36.3976 8.13128 36.5625 7.58751 36.5625 7.03125C36.5625 6.28533 36.2662 5.56996 35.7387 5.04251C35.2113 4.51507 34.4959 4.21875 33.75 4.21875Z" fill="#02464F"/>
<path d="M36.5625 42.1875H30.9375C30.1916 42.1875 29.4762 41.8912 28.9488 41.3637C28.4213 40.8363 28.125 40.1209 28.125 39.375V29.5312H30.9375V39.375H36.5625V26.7188H39.375V18.2812C39.375 17.9083 39.2268 17.5506 38.9631 17.2869C38.6994 17.0232 38.3417 16.875 37.9688 16.875H28.9406L22.5 28.125L16.0594 16.875H7.03125C6.65829 16.875 6.3006 17.0232 6.03688 17.2869C5.77316 17.5506 5.625 17.9083 5.625 18.2812V26.7188H8.4375V39.375H14.0625V29.5312H16.875V39.375C16.875 40.1209 16.5787 40.8363 16.0512 41.3637C15.5238 41.8912 14.8084 42.1875 14.0625 42.1875H8.4375C7.69158 42.1875 6.97621 41.8912 6.44876 41.3637C5.92132 40.8363 5.625 40.1209 5.625 39.375V29.5312C4.87908 29.5312 4.16371 29.2349 3.63626 28.7075C3.10882 28.18 2.8125 27.4647 2.8125 26.7188V18.2812C2.8125 17.1624 3.25697 16.0893 4.04814 15.2981C4.83931 14.507 5.91237 14.0625 7.03125 14.0625H17.6906L22.5 22.5L27.3094 14.0625H37.9688C39.0876 14.0625 40.1607 14.507 40.9519 15.2981C41.743 16.0893 42.1875 17.1624 42.1875 18.2812V26.7188C42.1875 27.4647 41.8912 28.18 41.3637 28.7075C40.8363 29.2349 40.1209 29.5312 39.375 29.5312V39.375C39.375 40.1209 39.0787 40.8363 38.5512 41.3637C38.0238 41.8912 37.3084 42.1875 36.5625 42.1875Z" fill="#02464F"/>
</g>
<defs>
<clipPath id="clip0_383_696">
<rect width="45" height="45" fill="white"/>
</clipPath>
</defs>
</svg>
