<svg width="45" height="43" viewBox="0 0 45 43" fill="none" xmlns="http://www.w3.org/2000/svg">
<g clip-path="url(#clip0_588_5)">
<path d="M9.43254 39.8295L12.1609 37.7194L15.2668 39.2184L14.1057 35.9759L16.4926 33.4884L13.0488 33.5962L11.4168 30.5587L10.4498 33.8694L7.05283 34.4805L9.90344 36.4217L9.43254 39.8295ZM22.0859 43L23.3908 39.8079L26.8274 39.5527L24.1996 37.3239L25.0228 33.9737L22.0895 35.789L19.1562 33.9737L19.9794 37.3239L17.3445 39.5527L20.7811 39.8079L22.0859 43ZM11.9237 18.8615C13.5197 18.2648 15.5579 17.5027 17.0246 16.5932C18.7069 18.1533 19.7997 19.9291 19.886 22.0859H24.3003C24.3866 19.9291 25.4793 18.1533 27.1617 16.5932C28.6283 17.5027 30.6665 18.2612 32.2626 18.8615C36.9645 20.6193 34.6674 23.8294 31.9247 26.5326C29.4084 29.0094 25.9323 30.5407 22.0895 30.5407C18.2468 30.5407 14.7743 29.013 12.2544 26.5326C9.55116 23.8689 7.18943 20.6301 11.9237 18.8615ZM18.6278 14.4004C18.6997 13.8109 16.9599 11.5786 16.6435 10.5038C15.9605 9.42535 15.7197 7.69988 16.4638 6.55676C16.7622 6.10383 16.6328 5.29142 16.6328 4.66954C16.6328 -1.55292 27.5355 -1.56011 27.5355 4.66954C27.5355 5.45678 27.3558 6.0571 27.7836 6.67539C28.4989 7.71067 28.1287 9.54757 27.5247 10.511C27.1401 11.6361 25.314 13.7678 25.4434 14.4076C25.5512 17.5961 18.6027 17.4919 18.6278 14.4004ZM44.1719 30.3933L42.0618 27.6685L43.5608 24.5627L40.3147 25.7274L37.8272 23.3405L37.935 26.7842L34.8975 28.4162L38.2082 29.3796L38.8193 32.7766L40.7569 29.926L44.1719 30.3933ZM34.7393 39.8295L34.2756 36.4109L37.1262 34.4697L33.7328 33.855L32.7694 30.5443L31.1374 33.5818L27.6901 33.474L30.077 35.9615L28.9051 39.2112L32.011 37.7122L34.7393 39.8295ZM0 30.3897L3.41858 29.926L5.35972 32.7766L5.97442 29.3832L9.28515 28.4198L6.24762 26.7878L6.35546 23.3441L3.86432 25.731L0.611102 24.5627L2.1101 27.6685L0 30.3897Z" fill="#02464F"/>
</g>
<defs>
<clipPath id="clip0_588_5">
<rect width="44.1719" height="43" fill="white"/>
</clipPath>
</defs>
</svg>
