<svg width="56" height="41" viewBox="0 0 56 41" fill="none" xmlns="http://www.w3.org/2000/svg">
<g clip-path="url(#clip0_383_690)">
<path fill-rule="evenodd" clip-rule="evenodd" d="M1.47752 17.2955L2.52424 30.2684C2.66534 31.6094 2.95518 32.4713 3.36424 32.9459C3.68799 33.3211 4.12987 33.4283 4.66034 33.3309C4.70299 33.3233 4.74456 33.32 4.78612 33.32L9.84799 33.3178L9.92346 33.3211C10.6333 33.3331 11.1244 33.122 11.4328 32.725C11.7927 32.2623 11.9677 31.5328 11.995 30.5911L11.9928 16.2892C11.9742 16.2258 11.9644 16.1591 11.9644 16.0902C11.9644 16.0716 11.9644 16.053 11.9666 16.0344C11.8878 15.5783 11.6888 15.2709 11.3935 15.0795C10.9855 14.8159 10.373 14.7142 9.62377 14.723H9.61503V14.7263L3.19034 14.7252C2.52862 14.7569 2.02112 14.9155 1.73674 15.2567C1.43268 15.622 1.32331 16.2531 1.47096 17.2309L1.47752 17.2955ZM42.4286 16.7442C42.4286 16.5145 42.4428 16.2969 42.4713 16.0913L40.0902 14.5009C39.7478 14.2723 39.3727 14.0098 38.9964 13.7463C38.3544 13.2967 37.7047 12.8417 37.0375 12.4436C37.2716 12.0389 37.4772 11.6145 37.6511 11.1748C38.3916 11.6091 39.1003 12.1067 39.7992 12.5967C40.1482 12.8406 40.4949 13.0834 40.87 13.3339L42.9864 14.7427C43.0936 14.5939 43.2172 14.4583 43.355 14.3336C43.9599 13.7889 44.8261 13.5231 45.9374 13.522V13.5188L51.9639 13.5209C53.2239 13.5166 54.251 13.7463 54.9608 14.2931C55.7505 14.9023 56.1224 15.8288 55.9638 17.1577L54.6316 30.9269C54.5342 32.1552 54.2094 33.1198 53.6308 33.7848C53.015 34.4925 52.1575 34.8414 51.0342 34.7944L45.6147 34.7955C44.8556 34.8348 44.2125 34.6292 43.6733 34.1994C43.2796 33.8844 42.9536 33.4534 42.6922 32.9164H40.8175C41.0702 33.6547 41.0571 34.3558 40.8558 34.977C40.648 35.618 40.2444 36.1627 39.7292 36.5717C39.225 36.972 38.6092 37.2455 37.9661 37.3505C37.3372 37.4533 36.6799 37.3975 36.0685 37.1438C35.3564 37.8864 34.6083 38.3556 33.8274 38.57C33.0432 38.7855 32.2491 38.7417 31.4452 38.4606C30.6828 39.305 29.8396 39.8355 28.9099 40.0367C27.9638 40.2423 26.9586 40.1002 25.8922 39.5981C25.5608 39.8584 25.213 40.0641 24.8499 40.2139C24.3358 40.4261 23.7955 40.5245 23.2322 40.5081C21.8814 40.4688 20.9714 40.0684 20.2474 39.4209C19.5572 38.8041 19.0913 38.0111 18.5685 37.0989L15.5814 31.8883H13.2649C13.1303 32.562 12.8952 33.1319 12.5441 33.5836C11.9535 34.3459 11.0861 34.7495 9.88737 34.7255L4.83315 34.7266C3.83237 34.8895 2.97377 34.6434 2.30221 33.8647C1.70721 33.1756 1.30034 32.0589 1.12643 30.4161L1.11987 30.3559L0.0753366 17.418C-0.132476 16.0213 0.0972115 15.0336 0.658305 14.3588C1.22487 13.6784 2.07799 13.3711 3.13018 13.3219L3.21659 13.3164H9.61503V13.3197C10.6246 13.3088 11.493 13.475 12.1525 13.9016C12.683 14.245 13.0636 14.7284 13.2594 15.3858H17.6136C18.7074 14.6475 19.7322 14.0678 20.8653 13.7145C21.0338 13.662 21.2033 13.615 21.3761 13.5734C21.6069 13.8655 21.8541 14.1433 22.1166 14.4058C22.25 14.5398 22.3875 14.6696 22.5289 14.7952C22.0925 14.8455 21.6802 14.9341 21.2832 15.0577C20.2605 15.3759 19.3067 15.9316 18.2633 16.6436C18.143 16.7388 17.991 16.7945 17.8269 16.7945H13.4016V30.4795H15.9883C16.2617 30.4795 16.4991 30.6348 16.6161 30.8623L19.7913 36.4C20.2561 37.2116 20.6663 37.9127 21.1836 38.3753C21.6671 38.8073 22.2992 39.0753 23.2705 39.1048C23.6358 39.1147 23.9847 39.0513 24.3172 38.9145C24.5207 38.8303 24.7208 38.7166 24.9166 38.5744L22.8483 34.7036C22.8049 34.6223 22.7779 34.5333 22.7689 34.4415C22.7599 34.3498 22.7691 34.2572 22.7959 34.1691C22.8227 34.0809 22.8667 33.9989 22.9252 33.9277C22.9837 33.8565 23.0557 33.7976 23.1371 33.7542C23.2183 33.7108 23.3074 33.6838 23.3991 33.6748C23.4908 33.6658 23.5834 33.6749 23.6716 33.7017C23.7598 33.7286 23.8418 33.7725 23.913 33.8311C23.9842 33.8896 24.0431 33.9616 24.0864 34.043L26.3352 38.2506C27.1719 38.6761 27.931 38.8084 28.6135 38.6608C29.2369 38.5263 29.8253 38.1511 30.3777 37.5463L27.138 32.4603C27.0886 32.3826 27.0549 32.2959 27.039 32.2052C27.0231 32.1145 27.0252 32.0216 27.0452 31.9317C27.0652 31.8418 27.1027 31.7567 27.1556 31.6814C27.2085 31.606 27.2757 31.5417 27.3535 31.4923C27.4311 31.4427 27.5177 31.4089 27.6084 31.3928C27.6991 31.3767 27.792 31.3787 27.8819 31.3986C27.9719 31.4186 28.057 31.456 28.1324 31.5089C28.2078 31.5618 28.272 31.629 28.3214 31.7067L31.7361 37.0683C32.3355 37.3111 32.9108 37.3658 33.4588 37.2159C33.9816 37.0716 34.5055 36.7369 35.0283 36.1944L31.9341 30.3702C31.7525 30.0267 31.8827 29.6002 32.2261 29.4186C32.391 29.3309 32.584 29.3122 32.7627 29.3668C32.9414 29.4213 33.091 29.5446 33.1788 29.7095L36.3791 35.735C36.7947 35.9767 37.2771 36.0391 37.7408 35.9636C38.1455 35.8969 38.5349 35.7241 38.8532 35.4703C39.1616 35.2264 39.4 34.9092 39.5182 34.5472C39.6461 34.1502 39.633 33.6831 39.4121 33.1767C39.3677 33.0745 39.3482 32.9631 39.3552 32.8519C39.2577 32.8094 39.171 32.7454 39.1017 32.6647C39.0324 32.584 38.9822 32.4887 38.9549 32.3859L31.9297 19.7148C31.1499 18.4089 30.4455 18.375 29.7652 18.7808C29.2828 19.0684 28.7753 19.5322 28.2667 19.9959C27.9594 20.2781 27.6499 20.5603 27.3939 20.7714L26.1471 21.7984C25.2786 22.4897 24.3008 22.8594 23.3733 22.937C22.7564 22.9873 22.156 22.9086 21.6167 22.7063C21.0589 22.4973 20.57 22.1583 20.1992 21.6967C19.7989 21.2013 19.5375 20.5713 19.4752 19.8231C19.4577 19.6077 19.5386 19.4086 19.6786 19.2675L23.066 15.237C23.4389 15.5225 23.8349 15.7817 24.2483 16.0092L20.9157 19.9763C20.9813 20.3109 21.1136 20.592 21.2941 20.8163C21.503 21.0766 21.7841 21.2702 22.1067 21.3905C22.448 21.5195 22.8417 21.5677 23.2585 21.5338C23.9235 21.4791 24.6322 21.2067 25.271 20.7003L26.4971 19.6875C26.8066 19.4316 27.0636 19.1964 27.3207 18.9613C27.8861 18.445 28.4516 17.9288 29.0444 17.5755C30.4181 16.7563 31.7853 16.7289 33.1372 18.9973L40.0705 31.5011H42.4264L42.4286 16.7442ZM28.8235 0C33.0771 0 36.5235 3.44859 36.5235 7.7C36.5235 11.9536 33.0749 15.3989 28.8235 15.3989C24.5688 15.3989 21.1235 11.9514 21.1235 7.7C21.1235 3.44531 24.571 0 28.8235 0ZM26.6753 6.98469C26.9422 7.13781 27.1621 7.27891 27.3677 7.43859C27.525 7.56052 27.6738 7.69318 27.8128 7.83563C28.1814 7.29641 28.8858 6.40938 29.5792 5.66891C30.1578 5.05203 30.7375 4.53031 31.1291 4.37828L31.163 4.36516H33.2182L32.9392 4.67469C31.8652 5.86797 31.0175 6.85781 30.2563 7.90344C29.495 8.95016 28.8147 10.0592 28.071 11.4931L27.8982 11.8256L27.7396 11.4866C27.3557 10.6652 26.9925 9.97063 26.5364 9.35484C26.0836 8.74234 25.5357 8.20203 24.7777 7.6825L24.4277 7.44297L26.613 6.94859L26.6753 6.98469ZM7.18909 27.3098C7.85737 27.3098 8.39987 27.8513 8.39987 28.5206C8.39987 29.1889 7.85737 29.7314 7.18909 29.7314C6.51971 29.7314 5.97721 29.1889 5.97721 28.5206C5.97721 27.8513 6.51971 27.3098 7.18909 27.3098ZM48.6182 27.3098C49.2875 27.3098 49.83 27.8513 49.83 28.5206C49.83 29.1889 49.2875 29.7314 48.6182 29.7314C47.9499 29.7314 47.4074 29.1889 47.4074 28.5206C47.4074 27.8513 47.9499 27.3098 48.6182 27.3098Z" fill="#02464F"/>
</g>
<defs>
<clipPath id="clip0_383_690">
<rect width="56" height="40.5103" fill="white"/>
</clipPath>
</defs>
</svg>
