<svg width="28" height="28" viewBox="0 0 28 28" fill="none" xmlns="http://www.w3.org/2000/svg">
<path d="M13.9307 0C21.6241 0.000116995 27.8613 6.23716 27.8613 13.9307C27.8612 21.6241 21.6241 27.8612 13.9307 27.8613C6.23716 27.8613 0.000117003 21.6241 0 13.9307C0 6.23709 6.23709 0 13.9307 0ZM8.8418 7.96094C8.61091 7.95833 8.38786 8.04767 8.22266 8.20898C8.05744 8.37037 7.96278 8.59132 7.95996 8.82227V19.0391C7.96268 19.2701 8.05745 19.4908 8.22266 19.6523C8.38786 19.8138 8.61079 19.9028 8.8418 19.9004H19.0156C19.2471 19.9033 19.4709 19.8148 19.6367 19.6533C19.8026 19.4918 19.8972 19.2706 19.9004 19.0391V8.82129C19.8971 8.59 19.8024 8.36937 19.6367 8.20801C19.4709 8.04663 19.247 7.95789 19.0156 7.96094H8.8418ZM11.501 18.1348H9.73047V12.4365H11.501V18.1348ZM16.0107 12.2949C17.8039 12.2949 18.1348 13.4743 18.1348 15.0088L18.1338 18.1348H16.3652V15.3633C16.3652 14.7026 16.3525 13.8525 15.4443 13.8525C14.5233 13.8527 14.3819 14.5723 14.3818 15.3154V18.1338H12.6133V12.4365H14.3115V13.2148H14.335C14.5049 12.9243 14.7509 12.6855 15.0459 12.5234C15.3409 12.3614 15.6744 12.2825 16.0107 12.2949ZM10.416 9.62402C10.6152 9.58437 10.8221 9.60494 11.0098 9.68262C11.1971 9.7603 11.357 9.89192 11.4697 10.0605C11.5826 10.2294 11.6435 10.4278 11.6436 10.6309C11.6436 10.7656 11.6169 10.899 11.5654 11.0234C11.5139 11.1479 11.438 11.2611 11.3428 11.3564C11.2475 11.4517 11.1342 11.5275 11.0098 11.5791C10.8853 11.6307 10.7519 11.6572 10.6172 11.6572C10.4141 11.6573 10.2148 11.5972 10.0459 11.4844C9.87736 11.3717 9.74564 11.2117 9.66797 11.0244C9.59023 10.8368 9.5698 10.6298 9.60938 10.4307C9.64897 10.2316 9.74712 10.0489 9.89062 9.90527C10.0342 9.76169 10.2169 9.66369 10.416 9.62402Z" fill="#8F806C"/>
</svg>
