<svg width="24" height="24" viewBox="0 0 24 24" fill="none" xmlns="http://www.w3.org/2000/svg">
<rect x="0.5" y="0.5" width="23" height="23" rx="11.5" stroke="#8F806C"/>
<path fill-rule="evenodd" clip-rule="evenodd" d="M6.25452 7.89596C6.25452 7.46059 6.42747 7.04305 6.73532 6.7352C7.04317 6.42734 7.46071 6.25439 7.89608 6.25439H8.64682C9.1174 6.25439 9.52779 6.57505 9.64215 7.0314L10.2468 9.45161C10.2958 9.6475 10.2859 9.8535 10.2183 10.0438C10.1508 10.2341 10.0286 10.4002 9.86705 10.5214L9.15953 11.0521C9.08566 11.1074 9.0698 11.1884 9.09059 11.2447C9.39941 12.0846 9.88707 12.8473 10.5198 13.48C11.1526 14.1128 11.9153 14.6004 12.7551 14.9093C12.8115 14.93 12.8919 14.9142 12.9477 14.8403L13.4785 14.1328C13.5996 13.9713 13.7658 13.8491 13.9561 13.7815C14.1463 13.7139 14.3523 13.7041 14.5482 13.753L16.9684 14.3577C17.4248 14.4721 17.7454 14.8824 17.7454 15.3536V16.1038C17.7454 16.5391 17.5725 16.9567 17.2646 17.2645C16.9568 17.5724 16.5393 17.7453 16.1039 17.7453H14.8727C10.1133 17.7453 6.25452 13.8866 6.25452 9.12713V7.89596Z" fill="#8F806C"/>
</svg>
