<svg width="284" height="55" viewBox="0 0 284 55" fill="none" xmlns="http://www.w3.org/2000/svg">
<path d="M57.8833 41.2688C57.3139 40.8511 56.7055 40.4892 56.0666 40.1883C52.6772 38.4516 48.4195 37.5072 44.646 36.987C43.4841 36.819 42.3138 36.7148 41.1405 36.6749H41.1005C41.3526 36.971 41.5927 37.2591 41.7968 37.5112L41.8768 37.6193C41.9208 37.6713 41.9609 37.7273 41.9969 37.7754C42.0329 37.8234 42.117 37.9314 42.161 37.9994L42.185 38.0315L38.8196 36.6709C37.0816 36.7258 35.351 36.9239 33.6455 37.2631C27.367 38.5157 21.7367 41.901 15.4861 43.2456C15.054 43.3416 14.6138 43.4257 14.1776 43.4977L11.4965 44.4781V44.4581C11.6686 44.226 11.8327 43.9939 11.9927 43.7578H11.9567C11.3965 43.7978 10.8362 43.8138 10.276 43.8098C9.68758 43.8057 9.0998 43.7696 8.51528 43.7018C8.34321 44.0419 8.16716 44.374 7.98308 44.7062C8.0231 44.354 8.0511 43.9979 8.07511 43.6417C7.95506 43.6417 7.83501 43.6057 7.71896 43.5817C7.34281 43.5137 6.96269 43.4296 6.59854 43.3256C6.00783 43.0516 5.40269 42.8098 4.78579 42.6013C4.74177 42.6013 3.87741 42.2492 3.72535 42.4333C3.48925 42.7294 6.68656 44.314 6.73057 44.338C7.93207 44.9211 9.1698 45.4263 10.4361 45.8506C12.8863 46.6967 15.4802 47.0477 18.0672 46.8831C21.0644 46.663 23.9696 45.8266 26.7947 44.8022L26.9228 44.9063C28.9771 46.3808 31.2422 47.5369 33.6415 48.3356C34.8483 48.7764 36.1187 49.0183 37.403 49.0519C39.832 49.0519 42.161 48.2036 44.2858 47.0511C47.319 45.4265 55.7985 40.2844 57.8913 41.2688M40.2842 42.6613C38.4755 43.7658 36.5987 44.8862 34.5539 45.4625C33.5944 45.7381 32.6028 45.8861 31.6047 45.9027C31.2669 45.912 30.9288 45.9013 30.5923 45.8706C29.852 45.5025 29.0877 45.1824 28.3393 44.8942C28.2033 44.8462 27.7471 44.6902 27.3429 44.5901C30.4802 43.4296 33.5495 42.0571 36.7548 41.1047C38.9169 40.4643 41.1385 40.046 43.3855 39.8562C44.0217 39.8002 44.662 39.7642 45.2982 39.7482H45.5143L45.3143 39.8362C44.7981 40.0723 44.2898 40.3284 43.7856 40.6005C42.5851 41.2448 41.4167 41.9691 40.2842 42.6613Z" fill="#F8F8F8"/>
<path d="M26.5668 7.20291C26.5428 7.14689 26.4467 7.15089 26.2947 7.20291C25.5303 7.45502 23.4495 8.83158 23.4175 8.85559C22.0884 9.75296 20.8332 10.7552 19.664 11.8528C17.9675 13.4375 16.5724 15.3167 15.5463 17.3991C14.2338 20.1042 13.5095 23.0413 12.9812 25.9985L12.8292 26.0586C10.5231 27.0985 8.3886 28.4828 6.49863 30.1642C5.51265 30.9857 4.6678 31.963 3.99762 33.0574C3.39449 34.1038 2.9584 35.2379 2.7051 36.4188C2.36197 38.0249 2.2715 39.6748 2.43698 41.3088C3.02922 47.9715 0.0360146 54.5581 0 54.6102C4.09366 53.4337 8.45542 48.2996 10.4402 45.8466C10.8044 45.3984 11.1565 44.9382 11.4927 44.4741V44.454C11.6647 44.2219 11.8288 43.9899 11.9889 43.7538C12.449 43.0935 12.8852 42.4132 13.2974 41.7209C14.4276 39.8134 15.3569 37.7938 16.0705 35.6945C18.1273 29.628 18.0113 23.0614 19.9721 16.9749C20.0161 16.8348 20.0641 16.6948 20.1122 16.5507C20.3149 15.9451 20.5417 15.3489 20.7924 14.762C20.8805 14.5579 20.9685 14.3618 21.0646 14.1457C21.2366 13.7736 21.4207 13.4014 21.6168 13.0373C21.7608 12.7705 21.9129 12.5037 22.0729 12.237C22.177 12.0609 22.285 11.8848 22.3931 11.7127L22.4211 11.6687C22.7569 11.1381 23.1272 10.6302 23.5295 10.1481C23.7816 9.85199 24.0497 9.55987 24.3298 9.29176C24.8628 8.9206 25.3745 8.51981 25.8625 8.09128C26.1182 7.89574 26.341 7.66069 26.5227 7.39499C26.5321 7.37283 26.5369 7.34902 26.5369 7.32496C26.5369 7.30091 26.5321 7.2771 26.5227 7.25494M8.48342 32.4092C8.72434 31.4415 9.09022 30.5092 9.57185 29.636C9.73532 29.34 9.91435 29.0528 10.1081 28.7757C10.8004 28.3195 11.4566 27.8153 12.0769 27.3111C12.3438 27.0871 12.599 26.8493 12.8412 26.5988C12.281 29.8961 11.9328 33.2415 11.1525 36.4948C10.5494 39.0104 9.65357 41.4467 8.48342 43.7538C8.31135 44.0939 8.1353 44.426 7.95123 44.7582C7.99124 44.406 8.01925 44.0499 8.04326 43.6937C8.13929 42.0531 8.08327 40.3804 8.04326 38.7717C7.99123 36.6549 7.95921 34.47 8.47942 32.4092" fill="#F8F8F8"/>
<path d="M45.6424 42.7494C45.5663 41.765 45.4543 40.7926 45.2942 39.8402C44.778 40.0723 44.2698 40.3284 43.7656 40.6005C44.0475 41.136 44.2909 41.691 44.4939 42.2612C44.6219 42.6213 44.742 42.9895 44.834 43.3616C44.8896 44.0106 44.9818 44.6558 45.1102 45.2944C45.1102 45.3424 45.2582 46.2588 45.5103 46.2948C45.8825 46.3548 45.6624 42.7894 45.6584 42.7414M44.662 36.967C44.1253 35.0762 43.2919 33.2825 42.193 31.6529C40.5043 29.1638 38.3274 27.067 36.0304 25.1342C36.0304 25.0862 36.0305 25.0302 36.0545 24.9701C36.3021 22.4526 36.1672 19.9122 35.6543 17.4351C35.4337 16.1744 35.0093 14.958 34.3978 13.8336C33.1973 11.7208 31.2845 10.1401 29.2357 8.8636C28.3793 8.33138 27.475 7.83518 26.5586 7.33498L26.2945 7.20292C23.9736 5.9144 17.599 1.36856 17.4269 0C16.8827 3.77753 18.4834 8.47944 19.6638 11.8608C20.004 12.8412 20.3841 13.8096 20.8123 14.758C20.8106 14.7699 20.8106 14.7821 20.8123 14.794L21.0724 14.1417C21.2444 13.7696 21.4285 13.3974 21.6246 13.0333L21.6726 16.5907C22.8646 18.895 24.3334 21.0451 26.0464 22.9933C29.948 27.4391 35.1461 30.4964 39.2998 34.6701L39.3238 34.6981C39.66 35.0302 39.9881 35.3784 40.3082 35.7305C40.6283 36.0826 40.8604 36.3508 41.1085 36.6749C41.3566 36.999 41.5527 37.2271 41.7648 37.5072L41.8448 37.6153L41.9649 37.7713C42.0289 37.8554 42.0849 37.9274 42.1289 37.9954L42.1529 38.0274C42.5871 38.6196 42.9879 39.2354 43.3534 39.8722C43.9897 39.8162 44.63 39.7802 45.2662 39.7641C45.1124 38.8264 44.9012 37.8989 44.6339 36.987M27.8471 18.3875C25.7476 16.3965 23.918 14.139 22.4049 11.6727L22.2889 11.4807L22.453 11.6007C24.0506 12.6834 25.7115 13.6696 27.4269 14.5539C29.2877 15.5703 31.1965 16.6348 32.7251 18.1154C33.4415 18.8076 34.0644 19.5906 34.5778 20.4443C34.7499 20.7364 34.914 21.0325 35.0581 21.3407C35.1099 22.1572 35.2033 22.9706 35.3382 23.7777C35.3622 23.9217 35.4582 24.3939 35.5742 24.7941C32.9972 22.6612 30.2761 20.6884 27.8471 18.3915" fill="#F8F8F8"/>
<path d="M111.705 35.563H112.91V39.8629H118.327V35.563H119.532V45.7126H118.327V40.9797H112.91V45.7126H111.705V35.563Z" fill="#F8F8F8"/>
<path d="M123.261 35.563H122.056V45.7126H123.261V35.563Z" fill="#F8F8F8"/>
<path d="M130.597 37.3489C130.409 37.0357 130.129 36.7883 129.795 36.6405C129.465 36.4938 129.108 36.4184 128.747 36.4191C128.482 36.4197 128.217 36.4527 127.96 36.5175C127.713 36.5796 127.479 36.6827 127.266 36.8225C127.061 36.9546 126.892 37.1355 126.774 37.3489C126.666 37.5623 126.603 37.7957 126.59 38.0344C126.576 38.2731 126.612 38.5121 126.695 38.7363C126.771 38.9257 126.891 39.0944 127.045 39.2283C127.244 39.3956 127.468 39.5317 127.709 39.6317C128.04 39.7742 128.378 39.899 128.722 40.0056C129.116 40.1286 129.495 40.2615 129.864 40.4041C130.217 40.5354 130.549 40.7195 130.848 40.9502C131.13 41.1717 131.36 41.4522 131.522 41.7719C131.695 42.1783 131.781 42.6169 131.772 43.0588C131.764 43.5006 131.662 43.9356 131.473 44.3351C131.277 44.6976 131.005 45.0132 130.676 45.26C130.333 45.5081 129.948 45.6915 129.539 45.8012C129.105 45.9236 128.657 45.9849 128.206 45.9832C127.909 45.9808 127.613 45.9545 127.32 45.9045C127.027 45.8515 126.741 45.7691 126.464 45.6585C126.19 45.5511 125.932 45.4071 125.697 45.2305C125.453 45.0511 125.243 44.8295 125.077 44.5762L126.11 43.73C126.325 44.0979 126.645 44.3927 127.03 44.5762C127.417 44.7664 127.843 44.8641 128.275 44.8615C128.54 44.8622 128.803 44.8241 129.057 44.7484C129.31 44.6773 129.55 44.5642 129.765 44.4138C129.966 44.2647 130.134 44.0753 130.257 43.8579C130.394 43.6291 130.464 43.3667 130.459 43.1002C130.469 42.8355 130.415 42.5722 130.302 42.3327C130.18 42.1311 130.011 41.9623 129.81 41.8407C129.551 41.6757 129.271 41.5451 128.978 41.4521L127.802 41.0486C127.465 40.9417 127.136 40.8102 126.818 40.6551C126.526 40.516 126.257 40.3317 126.021 40.109C125.794 39.8902 125.613 39.6274 125.49 39.3365C125.354 38.9924 125.288 38.6242 125.298 38.2542C125.284 37.831 125.373 37.4108 125.558 37.0301C125.744 36.6494 126.019 36.3197 126.361 36.0698C126.692 35.8207 127.065 35.634 127.463 35.5188C127.881 35.3913 128.315 35.3283 128.752 35.3318C129.287 35.3248 129.818 35.4148 130.321 35.5975C130.818 35.7903 131.255 36.1091 131.591 36.5224L130.597 37.3489Z" fill="#F8F8F8"/>
<path d="M137.047 35.5581H138.183L142.498 45.7077H141.091L140.058 43.2133H134.985L133.938 45.7077H132.575L137.047 35.5581ZM137.593 37.1078H137.563L135.448 42.0965H139.59L137.593 37.1078Z" fill="#F8F8F8"/>
<path d="M148.662 37.3489C148.475 37.0357 148.194 36.7883 147.86 36.6405C147.531 36.4938 147.174 36.4184 146.813 36.4191C146.547 36.4197 146.283 36.4527 146.025 36.5175C145.777 36.5795 145.541 36.6826 145.327 36.8225C145.123 36.9563 144.955 37.1368 144.835 37.3489C144.727 37.5623 144.664 37.7957 144.651 38.0344C144.637 38.2731 144.673 38.5121 144.756 38.7363C144.83 38.9267 144.95 39.0957 145.105 39.2283C145.304 39.3946 145.526 39.5306 145.765 39.6317C146.098 39.7733 146.438 39.8981 146.783 40.0056C147.177 40.1286 147.555 40.2615 147.924 40.4041C148.278 40.5354 148.61 40.7195 148.908 40.9502C149.19 41.1717 149.42 41.4521 149.582 41.7719C149.762 42.1615 149.848 42.5878 149.833 43.0166C149.843 43.474 149.74 43.9268 149.533 44.3351C149.338 44.6976 149.066 45.0132 148.736 45.26C148.392 45.5092 148.005 45.6927 147.595 45.8012C147.161 45.9239 146.712 45.9852 146.262 45.9832C145.966 45.9808 145.672 45.9545 145.381 45.9045C145.086 45.851 144.798 45.7686 144.52 45.6585C144.247 45.5492 143.989 45.4054 143.752 45.2305C143.511 45.0496 143.303 44.8282 143.137 44.5762L144.171 43.73C144.384 44.0975 144.703 44.3924 145.086 44.5762C145.475 44.7665 145.902 44.8641 146.335 44.8615C146.6 44.8619 146.864 44.8237 147.118 44.7484C147.371 44.6773 147.61 44.5642 147.826 44.4138C148.027 44.2647 148.194 44.0753 148.318 43.8579C148.455 43.6291 148.525 43.3667 148.52 43.1002C148.53 42.8355 148.476 42.5722 148.362 42.3327C148.242 42.1304 148.073 41.9613 147.87 41.8407C147.612 41.6747 147.332 41.544 147.039 41.4521L145.863 41.0486C145.526 40.9401 145.198 40.8086 144.879 40.6551C144.587 40.5171 144.32 40.3327 144.087 40.109C143.858 39.8915 143.677 39.6283 143.556 39.3365C143.419 38.9924 143.354 38.6242 143.364 38.2542C143.353 37.8124 143.451 37.3748 143.649 36.9799C143.834 36.622 144.098 36.3108 144.422 36.0698C144.754 35.8208 145.129 35.6341 145.528 35.5188C145.946 35.3913 146.381 35.3283 146.817 35.3318C147.352 35.3248 147.884 35.4148 148.387 35.5975C148.883 35.7903 149.321 36.1091 149.656 36.5224L148.662 37.3489Z" fill="#F8F8F8"/>
<path d="M154.394 35.5581H156.992C157.485 35.5572 157.978 35.5868 158.468 35.6466C158.917 35.6936 159.355 35.8184 159.762 36.0156C160.144 36.2064 160.467 36.4972 160.696 36.8569C160.953 37.3053 161.077 37.8169 161.056 38.3329C161.071 38.664 161.019 38.9948 160.904 39.3058C160.789 39.6167 160.613 39.9015 160.386 40.1434C159.877 40.6328 159.219 40.9391 158.517 41.0142L161.4 45.688H159.924L157.169 41.1323H155.619V45.688H154.414L154.394 35.5581ZM155.6 40.0302H156.677C157.005 40.0302 157.349 40.0204 157.71 40.0007C158.045 39.9875 158.377 39.9262 158.694 39.8187C158.982 39.722 159.239 39.5525 159.442 39.3267C159.657 39.046 159.761 38.6954 159.732 38.3427C159.748 38.0381 159.674 37.7356 159.521 37.4719C159.378 37.262 159.183 37.0925 158.955 36.9799C158.706 36.8571 158.438 36.7773 158.163 36.7438C157.871 36.7044 157.577 36.6846 157.282 36.6847H155.619L155.6 40.0302Z" fill="#F8F8F8"/>
<path d="M163.156 35.563H169.537V36.6798H164.362V39.8629H169.193V40.9797H164.362V44.5909H169.798V45.7126H163.156V35.563Z" fill="#F8F8F8"/>
<path d="M174.954 35.5581H176.086L180.405 45.7077H178.998L177.965 43.2133H172.893L171.845 45.7077H170.482L174.954 35.5581ZM175.5 37.1078H175.471L173.365 42.0965H177.507L175.5 37.1078Z" fill="#F8F8F8"/>
<path d="M181.753 35.563H182.959V44.5909H187.603V45.7126H181.753V35.563Z" fill="#F8F8F8"/>
<path d="M191.504 35.563H197.881V36.6798H192.705V39.8629H197.536V40.9797H192.705V44.5909H198.141V45.7126H191.504V35.563Z" fill="#F8F8F8"/>
<path d="M204.817 37.3489C204.63 37.0357 204.349 36.7883 204.015 36.6405C203.686 36.4938 203.329 36.4184 202.968 36.4191C202.702 36.42 202.438 36.453 202.18 36.5175C201.934 36.5796 201.699 36.6827 201.487 36.8225C201.282 36.9546 201.113 37.1355 200.995 37.3489C200.867 37.5877 200.802 37.8554 200.808 38.1263C200.806 38.3346 200.843 38.5414 200.916 38.7363C200.992 38.9269 201.114 39.0959 201.27 39.2283C201.468 39.3957 201.69 39.5318 201.929 39.6317C202.26 39.7742 202.599 39.899 202.943 40.0056C203.337 40.1286 203.715 40.2615 204.084 40.4041C204.438 40.5354 204.77 40.7195 205.068 40.9502C205.352 41.1698 205.582 41.4507 205.742 41.7719C205.916 42.1783 206.001 42.6169 205.993 43.0588C205.984 43.5006 205.882 43.9356 205.693 44.3351C205.498 44.6976 205.226 45.0132 204.896 45.26C204.553 45.5081 204.168 45.6915 203.76 45.8012C203.326 45.9236 202.877 45.9849 202.426 45.9832C202.13 45.9808 201.833 45.9545 201.541 45.9045C201.248 45.8515 200.961 45.7691 200.685 45.6585C200.411 45.5511 200.153 45.4071 199.917 45.2305C199.673 45.0511 199.463 44.8295 199.297 44.5762L200.331 43.73C200.545 44.0979 200.866 44.3927 201.251 44.5762C201.638 44.7664 202.064 44.8641 202.495 44.8615C202.76 44.8626 203.024 44.8244 203.277 44.7484C203.531 44.6783 203.771 44.5651 203.986 44.4138C204.187 44.2647 204.354 44.0753 204.478 43.8579C204.615 43.6291 204.684 43.3667 204.68 43.1002C204.69 42.8355 204.636 42.5722 204.522 42.3327C204.404 42.1289 204.234 41.9594 204.03 41.8407C203.771 41.6757 203.492 41.5451 203.199 41.4521L202.023 41.0486C201.686 40.9417 201.357 40.8102 201.039 40.6551C200.746 40.516 200.477 40.3317 200.242 40.109C200.016 39.8889 199.835 39.6264 199.711 39.3365C199.574 38.9924 199.509 38.6242 199.519 38.2542C199.504 37.831 199.594 37.4108 199.779 37.0301C199.964 36.6494 200.24 36.3197 200.581 36.0698C200.912 35.8207 201.286 35.634 201.683 35.5188C202.101 35.3917 202.536 35.3287 202.972 35.3318C203.507 35.3248 204.039 35.4148 204.542 35.5975C205.04 35.7876 205.478 36.1069 205.811 36.5224L204.817 37.3489Z" fill="#F8F8F8"/>
<path d="M214.785 36.6798H211.43V45.7126H210.224V36.6798H206.869V35.563H214.785V36.6798Z" fill="#F8F8F8"/>
<path d="M218.18 35.5581H219.311L223.631 45.7077H222.224L221.191 43.2133H216.133L215.085 45.7077H213.722L218.18 35.5581ZM218.726 37.1078H218.696L216.591 42.0965H220.733L218.726 37.1078Z" fill="#F8F8F8"/>
<path d="M230.469 36.6798H227.114V45.7126H225.909V36.6798H222.553V35.563H230.469V36.6798Z" fill="#F8F8F8"/>
<path d="M231.891 35.563H238.267V36.6798H233.092V39.8629H237.923V40.9797H233.092V44.5909H238.528V45.7126H231.891V35.563Z" fill="#F8F8F8"/>
<path d="M78.1661 22.7567V23.3962C78.1667 23.4203 78.1625 23.4443 78.1536 23.4667C78.1447 23.4891 78.1313 23.5094 78.1143 23.5265C78.0973 23.5435 78.0769 23.5569 78.0545 23.5658C78.0321 23.5747 78.0081 23.5789 77.984 23.5783H76.1933C75.9049 23.5806 75.6222 23.4985 75.38 23.342C75.1378 23.1855 74.9468 22.9615 74.8305 22.6976L73.9793 23.5783H71.3718C68.2477 23.5783 65.7632 21.4529 65.7632 18.1664C65.7632 14.88 68.2477 12.7546 71.3718 12.7546C74.4959 12.7546 76.9558 14.8751 76.9558 18.1664V22.5648H77.984C78.0081 22.5641 78.0321 22.5683 78.0545 22.5773C78.0769 22.5862 78.0973 22.5995 78.1143 22.6166C78.1313 22.6336 78.1447 22.654 78.1536 22.6764C78.1625 22.6988 78.1667 22.7227 78.1661 22.7468M74.7714 22.5648C74.707 22.4003 74.6752 22.2248 74.6779 22.0482V18.1664C74.6779 14.4077 72.4935 13.7681 71.3718 13.7681C70.2501 13.7681 68.0657 14.4077 68.0657 18.1664C68.0657 21.9252 70.2796 22.5648 71.3718 22.5648H74.7714ZM69.7335 11.5296L68.3068 10.1028L69.7335 8.62689L71.2095 10.1028L69.7335 11.5296ZM72.8281 11.5296L71.4013 10.1028L72.8281 8.62689L74.2548 10.1028L72.8281 11.5296Z" fill="#F8F8F8"/>
<path d="M79.8537 22.7567V23.3962C79.8544 23.4203 79.8501 23.4443 79.8412 23.4667C79.8323 23.4891 79.8189 23.5094 79.8019 23.5265C79.7848 23.5435 79.7645 23.5569 79.7421 23.5658C79.7197 23.5747 79.6957 23.579 79.6717 23.5783H77.9743C77.9502 23.579 77.9262 23.5747 77.9038 23.5658C77.8814 23.5569 77.8611 23.5435 77.8441 23.5265C77.827 23.5094 77.8136 23.4891 77.8047 23.4667C77.7958 23.4443 77.7916 23.4203 77.7923 23.3962V22.7567C77.7967 22.7099 77.8173 22.6661 77.8505 22.6328C77.8837 22.5996 77.9275 22.579 77.9743 22.5746H79.6717C79.7188 22.5781 79.7632 22.5983 79.7966 22.6318C79.83 22.6652 79.8503 22.7095 79.8537 22.7567Z" fill="#F8F8F8"/>
<path d="M81.5658 22.7567V23.3962C81.5664 23.4203 81.5622 23.4443 81.5533 23.4667C81.5444 23.4891 81.531 23.5094 81.514 23.5265C81.497 23.5435 81.4766 23.5569 81.4542 23.5658C81.4318 23.5747 81.4078 23.579 81.3837 23.5783H79.6815C79.6574 23.579 79.6334 23.5747 79.611 23.5658C79.5887 23.5569 79.5683 23.5435 79.5512 23.5265C79.5342 23.5094 79.5208 23.4891 79.5119 23.4667C79.503 23.4443 79.4988 23.4203 79.4995 23.3962V22.7567C79.5038 22.7099 79.5244 22.6661 79.5577 22.6328C79.5909 22.5996 79.6347 22.579 79.6815 22.5746H81.3837C81.4305 22.579 81.4743 22.5996 81.5076 22.6328C81.5408 22.6661 81.5614 22.7099 81.5658 22.7567Z" fill="#F8F8F8"/>
<path d="M83.2632 22.7567V23.3962C83.2639 23.4203 83.2596 23.4443 83.2507 23.4667C83.2418 23.4891 83.2284 23.5094 83.2113 23.5265C83.1943 23.5435 83.174 23.5569 83.1516 23.5658C83.1292 23.5747 83.1052 23.579 83.0811 23.5783H81.3838C81.3597 23.579 81.3357 23.5747 81.3133 23.5658C81.2909 23.5569 81.2706 23.5435 81.2536 23.5265C81.2365 23.5094 81.2231 23.4891 81.2142 23.4667C81.2053 23.4443 81.2011 23.4203 81.2017 23.3962V22.7567C81.2052 22.7095 81.2254 22.6652 81.2588 22.6318C81.2923 22.5983 81.3366 22.5781 81.3838 22.5746H83.0811C83.1279 22.579 83.1717 22.5996 83.2049 22.6328C83.2382 22.6661 83.2588 22.7099 83.2632 22.7567Z" fill="#F8F8F8"/>
<path d="M84.9604 22.7567V23.3962C84.9611 23.4203 84.9569 23.4443 84.9479 23.4667C84.939 23.4891 84.9256 23.5094 84.9086 23.5265C84.8916 23.5435 84.8712 23.5569 84.8489 23.5658C84.8265 23.5747 84.8025 23.579 84.7784 23.5783H83.0811C83.057 23.579 83.033 23.5747 83.0106 23.5658C82.9882 23.5569 82.9679 23.5435 82.9508 23.5265C82.9338 23.5094 82.9204 23.4891 82.9115 23.4667C82.9026 23.4443 82.8983 23.4203 82.899 23.3962V22.7567C82.9024 22.7095 82.9227 22.6652 82.9562 22.6318C82.9896 22.5983 83.0339 22.5781 83.0811 22.5746H84.7735C84.8206 22.5781 84.865 22.5983 84.8984 22.6318C84.9318 22.6652 84.9521 22.7095 84.9555 22.7567" fill="#F8F8F8"/>
<path d="M86.6577 22.7567V23.3962C86.6584 23.4203 86.6542 23.4443 86.6453 23.4667C86.6363 23.4891 86.623 23.5094 86.6059 23.5265C86.5889 23.5435 86.5685 23.5569 86.5461 23.5658C86.5237 23.5747 86.4997 23.579 86.4757 23.5783H84.7734C84.7493 23.579 84.7254 23.5747 84.703 23.5658C84.6806 23.5569 84.6602 23.5435 84.6432 23.5265C84.6262 23.5094 84.6128 23.4891 84.6039 23.4667C84.595 23.4443 84.5907 23.4203 84.5914 23.3962V22.7567C84.5958 22.7099 84.6163 22.6661 84.6496 22.6328C84.6828 22.5996 84.7266 22.579 84.7734 22.5746H86.4707C86.5179 22.5781 86.5622 22.5983 86.5956 22.6318C86.6291 22.6652 86.6493 22.7095 86.6528 22.7567" fill="#F8F8F8"/>
<path d="M88.36 22.7567V23.3962C88.3607 23.4203 88.3564 23.4443 88.3475 23.4667C88.3386 23.4891 88.3252 23.5094 88.3082 23.5265C88.2911 23.5435 88.2708 23.5569 88.2484 23.5658C88.226 23.5747 88.2021 23.579 88.178 23.5783H86.4757C86.4516 23.579 86.4276 23.5747 86.4052 23.5658C86.3828 23.5569 86.3625 23.5435 86.3455 23.5265C86.3284 23.5094 86.315 23.4891 86.3061 23.4667C86.2972 23.4443 86.293 23.4203 86.2936 23.3962V22.7567C86.298 22.7099 86.3186 22.6661 86.3518 22.6328C86.3851 22.5996 86.4289 22.579 86.4757 22.5746H88.178C88.2248 22.579 88.2686 22.5996 88.3018 22.6328C88.3351 22.6661 88.3556 22.7099 88.36 22.7567Z" fill="#F8F8F8"/>
<path d="M90.0574 22.7567V23.3962C90.0581 23.4203 90.0538 23.4443 90.0449 23.4667C90.036 23.4891 90.0226 23.5094 90.0056 23.5265C89.9886 23.5435 89.9682 23.5569 89.9458 23.5658C89.9234 23.5747 89.8995 23.579 89.8754 23.5783H88.1781C88.154 23.579 88.13 23.5747 88.1076 23.5658C88.0852 23.5569 88.0649 23.5435 88.0478 23.5265C88.0308 23.5094 88.0174 23.4891 88.0085 23.4667C87.9996 23.4443 87.9954 23.4203 87.996 23.3962V22.7567C87.9995 22.7095 88.0197 22.6652 88.0532 22.6318C88.0866 22.5983 88.1309 22.5781 88.1781 22.5746H89.8754C89.9222 22.579 89.966 22.5996 89.9992 22.6328C90.0325 22.6661 90.053 22.7099 90.0574 22.7567Z" fill="#F8F8F8"/>
<path d="M91.7547 22.7567V23.3962C91.7554 23.4203 91.7512 23.4443 91.7423 23.4667C91.7333 23.4891 91.72 23.5094 91.7029 23.5265C91.6859 23.5435 91.6656 23.5569 91.6432 23.5658C91.6208 23.5747 91.5967 23.579 91.5727 23.5783H89.8753C89.8512 23.579 89.8273 23.5747 89.8049 23.5658C89.7825 23.5569 89.7622 23.5435 89.7451 23.5265C89.7281 23.5094 89.7147 23.4891 89.7058 23.4667C89.6969 23.4443 89.6926 23.4203 89.6933 23.3962V22.7567C89.6967 22.7095 89.717 22.6652 89.7504 22.6318C89.7838 22.5983 89.8282 22.5781 89.8753 22.5746H91.5727C91.6198 22.5781 91.6642 22.5983 91.6976 22.6318C91.731 22.6652 91.7513 22.7095 91.7547 22.7567Z" fill="#F8F8F8"/>
<path d="M93.4521 22.7567V23.3962C93.4528 23.4203 93.4486 23.4443 93.4396 23.4667C93.4307 23.4891 93.4173 23.5094 93.4003 23.5265C93.3833 23.5435 93.3629 23.5569 93.3406 23.5658C93.3182 23.5747 93.2942 23.579 93.2701 23.5783H91.5727C91.5486 23.579 91.5247 23.5747 91.5023 23.5658C91.4799 23.5569 91.4596 23.5435 91.4425 23.5265C91.4255 23.5094 91.4121 23.4891 91.4032 23.4667C91.3943 23.4443 91.39 23.4203 91.3907 23.3962V22.7567C91.3951 22.7099 91.4157 22.6661 91.4489 22.6328C91.4822 22.5996 91.5259 22.579 91.5727 22.5746H93.2701C93.3173 22.5781 93.3616 22.5983 93.395 22.6318C93.4284 22.6652 93.4487 22.7095 93.4521 22.7567Z" fill="#F8F8F8"/>
<path d="M95.1543 22.7567V23.3962C95.1549 23.4203 95.1507 23.4443 95.1418 23.4667C95.1329 23.4891 95.1195 23.5094 95.1025 23.5265C95.0855 23.5435 95.0651 23.5569 95.0427 23.5658C95.0203 23.5747 94.9963 23.579 94.9722 23.5783H93.27C93.2459 23.579 93.2219 23.5747 93.1995 23.5658C93.1772 23.5569 93.1568 23.5435 93.1397 23.5265C93.1227 23.5094 93.1093 23.4891 93.1004 23.4667C93.0915 23.4443 93.0873 23.4203 93.088 23.3962V22.7567C93.0923 22.7099 93.1129 22.6661 93.1462 22.6328C93.1794 22.5996 93.2232 22.579 93.27 22.5746H94.9722C95.019 22.579 95.0628 22.5996 95.0961 22.6328C95.1293 22.6661 95.1499 22.7099 95.1543 22.7567Z" fill="#F8F8F8"/>
<path d="M96.8517 22.7567V23.3962C96.8524 23.4203 96.8481 23.4443 96.8392 23.4667C96.8303 23.4891 96.8169 23.5094 96.7998 23.5265C96.7828 23.5435 96.7625 23.5569 96.7401 23.5658C96.7177 23.5747 96.6937 23.579 96.6696 23.5783H94.9723C94.9482 23.579 94.9242 23.5747 94.9018 23.5658C94.8794 23.5569 94.8591 23.5435 94.8421 23.5265C94.825 23.5094 94.8116 23.4891 94.8027 23.4667C94.7938 23.4443 94.7896 23.4203 94.7902 23.3962V22.7567C94.7937 22.7095 94.8139 22.6652 94.8473 22.6318C94.8808 22.5983 94.9251 22.5781 94.9723 22.5746H96.6696C96.7164 22.579 96.7602 22.5996 96.7934 22.6328C96.8267 22.6661 96.8473 22.7099 96.8517 22.7567Z" fill="#F8F8F8"/>
<path d="M98.549 22.7567V23.3962C98.5497 23.4203 98.5454 23.4443 98.5365 23.4667C98.5276 23.4891 98.5142 23.5094 98.4972 23.5265C98.4801 23.5435 98.4598 23.5569 98.4374 23.5658C98.415 23.5747 98.3911 23.579 98.367 23.5783H96.6697C96.6456 23.579 96.6215 23.5747 96.5991 23.5658C96.5768 23.5569 96.5564 23.5435 96.5394 23.5265C96.5223 23.5094 96.509 23.4891 96.5001 23.4667C96.4911 23.4443 96.4869 23.4203 96.4876 23.3962V22.7567C96.491 22.7095 96.5113 22.6652 96.5447 22.6318C96.5782 22.5983 96.6225 22.5781 96.6697 22.5746H98.367C98.4141 22.5781 98.4585 22.5983 98.4919 22.6318C98.5253 22.6652 98.5456 22.7095 98.549 22.7567Z" fill="#F8F8F8"/>
<path d="M100.246 22.7567V23.3962C100.247 23.4203 100.243 23.4443 100.234 23.4667C100.225 23.4891 100.212 23.5094 100.195 23.5265C100.178 23.5435 100.157 23.5569 100.135 23.5658C100.112 23.5747 100.088 23.579 100.064 23.5783H98.367C98.3429 23.579 98.319 23.5747 98.2966 23.5658C98.2742 23.5569 98.2539 23.5435 98.2368 23.5265C98.2198 23.5094 98.2064 23.4891 98.1975 23.4667C98.1886 23.4443 98.1843 23.4203 98.185 23.3962V22.7567C98.1894 22.7099 98.21 22.6661 98.2432 22.6328C98.2764 22.5996 98.3202 22.579 98.367 22.5746H100.064C100.112 22.5781 100.156 22.5983 100.189 22.6318C100.223 22.6652 100.243 22.7095 100.246 22.7567Z" fill="#F8F8F8"/>
<path d="M101.949 22.7567V23.3962C101.949 23.4203 101.945 23.4443 101.936 23.4667C101.927 23.4891 101.914 23.5094 101.897 23.5265C101.88 23.5435 101.859 23.5569 101.837 23.5658C101.815 23.5747 101.791 23.579 101.767 23.5783H100.064C100.04 23.579 100.016 23.5747 99.9939 23.5658C99.9715 23.5569 99.9511 23.5435 99.9341 23.5265C99.9171 23.5094 99.9037 23.4891 99.8948 23.4667C99.8859 23.4443 99.8816 23.4203 99.8823 23.3962V22.7567C99.8867 22.7099 99.9072 22.6661 99.9405 22.6328C99.9737 22.5996 100.018 22.579 100.064 22.5746H101.767C101.813 22.579 101.857 22.5996 101.89 22.6328C101.924 22.6661 101.944 22.7099 101.949 22.7567Z" fill="#F8F8F8"/>
<path d="M103.646 22.7567V23.3962C103.647 23.4203 103.642 23.4443 103.634 23.4667C103.625 23.4891 103.611 23.5094 103.594 23.5265C103.577 23.5435 103.557 23.5569 103.534 23.5658C103.512 23.5747 103.488 23.579 103.464 23.5783H101.767C101.743 23.579 101.719 23.5747 101.696 23.5658C101.674 23.5569 101.653 23.5435 101.636 23.5265C101.619 23.5094 101.606 23.4891 101.597 23.4667C101.588 23.4443 101.584 23.4203 101.585 23.3962V22.7567C101.588 22.7095 101.608 22.6652 101.642 22.6318C101.675 22.5983 101.72 22.5781 101.767 22.5746H103.469C103.516 22.579 103.56 22.5996 103.593 22.6328C103.626 22.6661 103.647 22.7099 103.651 22.7567" fill="#F8F8F8"/>
<path d="M106.224 23.5783H103.469C103.445 23.5789 103.421 23.5747 103.399 23.5658C103.376 23.5569 103.356 23.5435 103.339 23.5265C103.322 23.5094 103.308 23.4891 103.299 23.4667C103.291 23.4443 103.286 23.4203 103.287 23.3962V22.7567C103.286 22.7326 103.291 22.7086 103.299 22.6862C103.308 22.6638 103.322 22.6435 103.339 22.6264C103.356 22.6094 103.376 22.596 103.399 22.5871C103.421 22.5782 103.445 22.574 103.469 22.5746H107.016C106.956 22.4091 106.926 22.2341 106.928 22.058V14.7521L109.23 13.5369V23.5783H108.443C108.156 23.5721 107.876 23.4865 107.635 23.3311C107.393 23.1757 107.2 22.9564 107.075 22.6976L106.224 23.5783ZM105.009 25.5757L106.485 27.0025L105.009 28.4292L103.587 27.0025L105.009 25.5757ZM109.53 27.0025L108.054 28.4292L106.628 27.0025L108.054 25.5757L109.53 27.0025Z" fill="#F8F8F8"/>
<path d="M115.867 13.5369V22.7862C115.919 24.1166 115.462 25.4168 114.589 26.4222C113.716 27.4276 112.493 28.0626 111.168 28.198L110.288 27.2878C111.409 27.2878 113.594 26.5892 113.594 22.796V14.7521L115.867 13.5369Z" fill="#F8F8F8"/>
<path d="M123.483 22.7567V23.3963C123.483 23.4204 123.479 23.4443 123.47 23.4667C123.461 23.4891 123.448 23.5095 123.431 23.5265C123.414 23.5435 123.393 23.5569 123.371 23.5658C123.349 23.5747 123.325 23.579 123.301 23.5783H119.296V10.5457L121.598 9.33046V22.555H123.301C123.325 22.5543 123.349 22.5585 123.371 22.5675C123.393 22.5764 123.414 22.5897 123.431 22.6068C123.448 22.6238 123.461 22.6442 123.47 22.6665C123.479 22.6889 123.483 22.7129 123.483 22.737" fill="#F8F8F8"/>
<path d="M138.282 22.7567V23.3962C138.278 23.4434 138.258 23.4877 138.225 23.5212C138.191 23.5546 138.147 23.5749 138.1 23.5783H136.191C135.904 23.5721 135.624 23.4866 135.383 23.3311C135.141 23.1757 134.947 22.9564 134.823 22.6976L134.006 23.5783H123.301C123.277 23.579 123.253 23.5747 123.23 23.5658C123.208 23.5569 123.188 23.5435 123.171 23.5265C123.154 23.5094 123.14 23.4891 123.131 23.4667C123.122 23.4443 123.118 23.4203 123.119 23.3962V22.7567C123.118 22.7326 123.122 22.7086 123.131 22.6862C123.14 22.6638 123.154 22.6435 123.171 22.6264C123.188 22.6094 123.208 22.596 123.23 22.5871C123.253 22.5782 123.277 22.574 123.301 22.5746H127.999C127.297 22.0803 126.727 21.4202 126.341 20.6529C125.955 19.8857 125.764 19.035 125.785 18.1763C125.785 14.8997 128.275 12.7645 131.364 12.7645C134.454 12.7645 136.978 14.8849 136.978 18.1763V22.5746H138.1C138.147 22.5781 138.191 22.5983 138.225 22.6318C138.258 22.6652 138.278 22.7095 138.282 22.7567ZM134.764 22.5746C134.702 22.4094 134.671 22.2344 134.671 22.0581V18.1763C134.671 14.4176 132.491 13.778 131.364 13.778C130.238 13.778 128.058 14.4176 128.058 18.1763C128.058 21.9351 130.277 22.5746 131.364 22.5746H134.764ZM129.844 11.5345L128.417 10.1078L129.844 8.63182L131.271 10.1078L129.844 11.5345ZM132.909 11.5345L131.482 10.1078L132.909 8.63182L134.385 10.1078L132.909 11.5345Z" fill="#F8F8F8"/>
<path d="M152.446 22.7567V23.3963C152.446 23.4203 152.442 23.4443 152.433 23.4667C152.424 23.4891 152.411 23.5094 152.394 23.5265C152.377 23.5435 152.357 23.5569 152.334 23.5658C152.312 23.5747 152.288 23.579 152.264 23.5783H138.099C138.075 23.579 138.051 23.5747 138.029 23.5658C138.007 23.5569 137.986 23.5435 137.969 23.5265C137.952 23.5094 137.939 23.4891 137.93 23.4667C137.921 23.4443 137.917 23.4203 137.917 23.3963V22.7567C137.917 22.7326 137.921 22.7086 137.93 22.6862C137.939 22.6638 137.952 22.6435 137.969 22.6264C137.986 22.6094 138.007 22.596 138.029 22.5871C138.051 22.5782 138.075 22.574 138.099 22.5746H142.921C142.218 22.0803 141.649 21.4202 141.263 20.6529C140.877 19.8857 140.686 19.035 140.707 18.1763C140.707 14.8997 143.196 12.7645 146.291 12.7645C148.835 12.7645 150.93 14.1912 151.658 16.4642L149.597 17.5564C149.351 14.3733 147.349 13.7632 146.291 13.7632C145.233 13.7632 142.985 14.4028 142.985 18.1616C142.985 21.9203 145.164 22.5599 146.291 22.5599H152.264C152.288 22.5592 152.312 22.5634 152.334 22.5724C152.357 22.5813 152.377 22.5946 152.394 22.6117C152.411 22.6287 152.424 22.6491 152.433 22.6715C152.442 22.6939 152.446 22.7178 152.446 22.7419" fill="#F8F8F8"/>
<path d="M158.025 9.35013V23.5783H157.238C156.951 23.5729 156.672 23.4876 156.431 23.332C156.19 23.1764 155.998 22.9567 155.875 22.6976L155.024 23.5783H152.264C152.24 23.579 152.216 23.5747 152.193 23.5658C152.171 23.5569 152.151 23.5435 152.134 23.5265C152.116 23.5094 152.103 23.4891 152.094 23.4667C152.085 23.4443 152.081 23.4203 152.082 23.3963V22.7567C152.081 22.7326 152.085 22.7086 152.094 22.6862C152.103 22.6638 152.116 22.6435 152.134 22.6264C152.151 22.6094 152.171 22.596 152.193 22.5871C152.216 22.5782 152.24 22.574 152.264 22.5746H155.811C155.751 22.4091 155.721 22.2342 155.722 22.0581V10.5456L158.025 9.35013Z" fill="#F8F8F8"/>
<path d="M161.395 10.5653L163.702 9.35506V23.5783H161.395V10.5653Z" fill="#F8F8F8"/>
<path d="M200.217 22.7567V23.3962C200.218 23.4203 200.214 23.4443 200.205 23.4667C200.196 23.4891 200.183 23.5094 200.166 23.5265C200.148 23.5435 200.128 23.5569 200.106 23.5658C200.083 23.5747 200.059 23.5789 200.035 23.5783H198.338C198.045 23.5817 197.757 23.5005 197.509 23.3442C197.261 23.188 197.064 22.9635 196.941 22.6976L196.124 23.5783H183.018C182.688 26.4268 180.351 28.2177 177.468 28.2177C174.373 28.2177 171.889 26.0923 171.889 22.8059V18.5305L174.162 17.3202V22.8059C174.162 26.5695 176.376 27.2042 177.468 27.2042C178.56 27.2042 180.774 26.5695 180.774 22.8059V14.7521L183.082 13.5369V16.2034L183.869 15.3572C192.331 13.9895 192.636 13.96 193.876 13.9305C197.064 13.8714 199.096 15.4064 199.096 19.1504V22.5943H200.035C200.059 22.5936 200.083 22.5979 200.106 22.6068C200.128 22.6157 200.148 22.6291 200.166 22.6461C200.183 22.6632 200.196 22.6835 200.205 22.7059C200.214 22.7283 200.218 22.7522 200.217 22.7763M196.911 22.5943C196.849 22.4291 196.818 22.2541 196.818 22.0777V19.0176C196.818 16.6807 196.213 15.0817 193.91 15.0128C193.029 14.9833 192.818 14.9833 183.086 16.4888V22.5845L196.911 22.5943Z" fill="#F8F8F8"/>
<path d="M201.915 22.7567V23.3962C201.915 23.4203 201.911 23.4443 201.902 23.4667C201.893 23.4891 201.88 23.5094 201.863 23.5265C201.846 23.5435 201.826 23.5569 201.803 23.5658C201.781 23.5747 201.757 23.579 201.733 23.5783H200.035C200.011 23.579 199.987 23.5747 199.965 23.5658C199.943 23.5569 199.922 23.5435 199.905 23.5265C199.888 23.5094 199.875 23.4891 199.866 23.4667C199.857 23.4443 199.853 23.4203 199.853 23.3962V22.7567C199.858 22.7099 199.878 22.6661 199.912 22.6328C199.945 22.5996 199.989 22.579 200.035 22.5746H201.733C201.78 22.5781 201.824 22.5983 201.858 22.6318C201.891 22.6652 201.911 22.7095 201.915 22.7567Z" fill="#F8F8F8"/>
<path d="M203.612 22.7567V23.3962C203.613 23.4203 203.608 23.4443 203.6 23.4667C203.591 23.4891 203.577 23.5094 203.56 23.5265C203.543 23.5435 203.523 23.5569 203.5 23.5658C203.478 23.5747 203.454 23.579 203.43 23.5783H201.733C201.709 23.579 201.685 23.5747 201.662 23.5658C201.64 23.5569 201.619 23.5435 201.602 23.5265C201.585 23.5094 201.572 23.4891 201.563 23.4667C201.554 23.4443 201.55 23.4203 201.551 23.3962V22.7567C201.555 22.7099 201.576 22.6661 201.609 22.6328C201.642 22.5996 201.686 22.579 201.733 22.5746H203.43C203.477 22.5781 203.521 22.5983 203.555 22.6318C203.588 22.6652 203.609 22.7095 203.612 22.7567Z" fill="#F8F8F8"/>
<path d="M205.309 22.7567V23.3962C205.31 23.4203 205.306 23.4443 205.297 23.4667C205.288 23.4891 205.275 23.5094 205.258 23.5265C205.241 23.5435 205.22 23.5569 205.198 23.5658C205.175 23.5747 205.151 23.579 205.127 23.5783H203.425C203.401 23.579 203.377 23.5747 203.355 23.5658C203.332 23.5569 203.312 23.5435 203.295 23.5265C203.278 23.5094 203.264 23.4891 203.256 23.4667C203.247 23.4443 203.242 23.4203 203.243 23.3962V22.7567C203.247 22.7099 203.268 22.6661 203.301 22.6328C203.335 22.5996 203.378 22.579 203.425 22.5746H205.127C205.174 22.579 205.218 22.5996 205.251 22.6328C205.284 22.6661 205.305 22.7099 205.309 22.7567Z" fill="#F8F8F8"/>
<path d="M207.012 22.7567V23.3962C207.012 23.4203 207.008 23.4443 206.999 23.4667C206.99 23.4891 206.977 23.5094 206.96 23.5265C206.943 23.5435 206.923 23.5569 206.9 23.5658C206.878 23.5747 206.854 23.579 206.83 23.5783H205.132C205.108 23.579 205.084 23.5747 205.062 23.5658C205.04 23.5569 205.019 23.5435 205.002 23.5265C204.985 23.5094 204.972 23.4891 204.963 23.4667C204.954 23.4443 204.95 23.4203 204.95 23.3962V22.7567C204.954 22.7095 204.974 22.6652 205.008 22.6318C205.041 22.5983 205.085 22.5781 205.132 22.5746H206.83C206.877 22.579 206.92 22.5996 206.954 22.6328C206.987 22.6661 207.007 22.7099 207.012 22.7567Z" fill="#F8F8F8"/>
<path d="M208.709 22.7567V23.3962C208.71 23.4203 208.706 23.4443 208.697 23.4667C208.688 23.4891 208.674 23.5094 208.657 23.5265C208.64 23.5435 208.62 23.5569 208.598 23.5658C208.575 23.5747 208.551 23.579 208.527 23.5783H206.83C206.806 23.579 206.782 23.5747 206.759 23.5658C206.737 23.5569 206.717 23.5435 206.699 23.5265C206.682 23.5094 206.669 23.4891 206.66 23.4667C206.651 23.4443 206.647 23.4203 206.648 23.3962V22.7567C206.651 22.7095 206.671 22.6652 206.705 22.6318C206.738 22.5983 206.783 22.5781 206.83 22.5746H208.527C208.574 22.5781 208.619 22.5983 208.652 22.6318C208.685 22.6652 208.706 22.7095 208.709 22.7567Z" fill="#F8F8F8"/>
<path d="M210.406 22.7567V23.3962C210.407 23.4203 210.403 23.4443 210.394 23.4667C210.385 23.4891 210.372 23.5094 210.355 23.5265C210.337 23.5435 210.317 23.5569 210.295 23.5658C210.272 23.5747 210.248 23.579 210.224 23.5783H208.527C208.503 23.579 208.479 23.5747 208.457 23.5658C208.434 23.5569 208.414 23.5435 208.397 23.5265C208.38 23.5094 208.366 23.4891 208.357 23.4667C208.348 23.4443 208.344 23.4203 208.345 23.3962V22.7567C208.349 22.7099 208.37 22.6661 208.403 22.6328C208.436 22.5996 208.48 22.579 208.527 22.5746H210.229C210.276 22.5781 210.321 22.5983 210.354 22.6318C210.388 22.6652 210.408 22.7095 210.411 22.7567" fill="#F8F8F8"/>
<path d="M212.109 22.7567V23.3962C212.109 23.4203 212.105 23.4443 212.096 23.4667C212.087 23.4891 212.074 23.5094 212.057 23.5265C212.04 23.5435 212.019 23.5569 211.997 23.5658C211.975 23.5747 211.951 23.579 211.927 23.5783H210.229C210.205 23.579 210.181 23.5747 210.159 23.5658C210.136 23.5569 210.116 23.5435 210.099 23.5265C210.082 23.5094 210.069 23.4891 210.06 23.4667C210.051 23.4443 210.047 23.4203 210.047 23.3962V22.7567C210.052 22.7099 210.072 22.6661 210.105 22.6328C210.139 22.5996 210.182 22.579 210.229 22.5746H211.931C211.978 22.579 212.022 22.5996 212.055 22.6328C212.089 22.6661 212.109 22.7099 212.113 22.7567" fill="#F8F8F8"/>
<path d="M213.806 22.7567V23.3962C213.807 23.4203 213.802 23.4443 213.793 23.4667C213.784 23.4891 213.771 23.5094 213.754 23.5265C213.737 23.5435 213.717 23.5569 213.694 23.5658C213.672 23.5747 213.648 23.579 213.624 23.5783H211.926C211.902 23.579 211.878 23.5747 211.856 23.5658C211.834 23.5569 211.813 23.5435 211.796 23.5265C211.779 23.5094 211.766 23.4891 211.757 23.4667C211.748 23.4443 211.744 23.4203 211.744 23.3962V22.7567C211.748 22.7095 211.768 22.6652 211.802 22.6318C211.835 22.5983 211.879 22.5781 211.926 22.5746H213.624C213.671 22.579 213.714 22.5996 213.748 22.6328C213.781 22.6661 213.802 22.7099 213.806 22.7567Z" fill="#F8F8F8"/>
<path d="M215.503 22.7567V23.3962C215.504 23.4203 215.5 23.4443 215.491 23.4667C215.482 23.4891 215.469 23.5094 215.452 23.5265C215.435 23.5435 215.414 23.5569 215.392 23.5658C215.369 23.5747 215.345 23.579 215.321 23.5783H213.624C213.6 23.579 213.576 23.5747 213.554 23.5658C213.531 23.5569 213.511 23.5435 213.494 23.5265C213.477 23.5094 213.463 23.4891 213.454 23.4667C213.445 23.4443 213.441 23.4203 213.442 23.3962V22.7567C213.445 22.7095 213.466 22.6652 213.499 22.6318C213.533 22.5983 213.577 22.5781 213.624 22.5746H215.321C215.368 22.5781 215.413 22.5983 215.446 22.6318C215.48 22.6652 215.5 22.7095 215.503 22.7567Z" fill="#F8F8F8"/>
<path d="M217.201 22.7567V23.3962C217.201 23.4203 217.197 23.4443 217.188 23.4667C217.179 23.4891 217.166 23.5094 217.149 23.5265C217.132 23.5435 217.111 23.5569 217.089 23.5658C217.067 23.5747 217.043 23.579 217.019 23.5783H215.321C215.297 23.579 215.273 23.5747 215.251 23.5658C215.228 23.5569 215.208 23.5435 215.191 23.5265C215.174 23.5094 215.161 23.4891 215.152 23.4667C215.143 23.4443 215.139 23.4203 215.139 23.3962V22.7567C215.144 22.7099 215.164 22.6661 215.197 22.6328C215.231 22.5996 215.274 22.579 215.321 22.5746H217.019C217.066 22.5781 217.11 22.5983 217.143 22.6318C217.177 22.6652 217.197 22.7095 217.201 22.7567Z" fill="#F8F8F8"/>
<path d="M218.903 22.7567V23.3962C218.904 23.4203 218.899 23.4443 218.89 23.4667C218.882 23.4891 218.868 23.5094 218.851 23.5265C218.834 23.5435 218.814 23.5569 218.791 23.5658C218.769 23.5747 218.745 23.579 218.721 23.5783H217.019C216.995 23.579 216.971 23.5747 216.948 23.5658C216.926 23.5569 216.905 23.5435 216.888 23.5265C216.871 23.5094 216.858 23.4891 216.849 23.4667C216.84 23.4443 216.836 23.4203 216.837 23.3962V22.7567C216.841 22.7099 216.862 22.6661 216.895 22.6328C216.928 22.5996 216.972 22.579 217.019 22.5746H218.721C218.768 22.579 218.811 22.5996 218.845 22.6328C218.878 22.6661 218.899 22.7099 218.903 22.7567Z" fill="#F8F8F8"/>
<path d="M220.6 22.7567V23.3962C220.601 23.4203 220.597 23.4443 220.588 23.4667C220.579 23.4891 220.565 23.5094 220.548 23.5265C220.531 23.5435 220.511 23.5569 220.489 23.5658C220.466 23.5747 220.442 23.579 220.418 23.5783H218.721C218.697 23.579 218.673 23.5747 218.65 23.5658C218.628 23.5569 218.608 23.5435 218.591 23.5265C218.573 23.5094 218.56 23.4891 218.551 23.4667C218.542 23.4443 218.538 23.4203 218.539 23.3962V22.7567C218.542 22.7095 218.562 22.6652 218.596 22.6318C218.629 22.5983 218.674 22.5781 218.721 22.5746H220.418C220.465 22.579 220.509 22.5996 220.542 22.6328C220.575 22.6661 220.596 22.7099 220.6 22.7567Z" fill="#F8F8F8"/>
<path d="M222.298 22.7567V23.3962C222.298 23.4203 222.294 23.4443 222.285 23.4667C222.276 23.4891 222.263 23.5094 222.246 23.5265C222.229 23.5435 222.208 23.5569 222.186 23.5658C222.164 23.5747 222.14 23.579 222.116 23.5783H220.418C220.394 23.579 220.37 23.5747 220.348 23.5658C220.325 23.5569 220.305 23.5435 220.288 23.5265C220.271 23.5094 220.258 23.4891 220.249 23.4667C220.24 23.4443 220.235 23.4203 220.236 23.3962V22.7567C220.24 22.7095 220.26 22.6652 220.293 22.6318C220.327 22.5983 220.371 22.5781 220.418 22.5746H222.116C222.163 22.5781 222.207 22.5983 222.24 22.6318C222.274 22.6652 222.294 22.7095 222.298 22.7567Z" fill="#F8F8F8"/>
<path d="M224.005 22.7567V23.3962C224.005 23.4203 224.001 23.4443 223.992 23.4667C223.983 23.4891 223.97 23.5094 223.953 23.5265C223.936 23.5435 223.916 23.5569 223.893 23.5658C223.871 23.5747 223.847 23.579 223.823 23.5783H222.125C222.101 23.579 222.077 23.5747 222.055 23.5658C222.033 23.5569 222.012 23.5435 221.995 23.5265C221.978 23.5094 221.965 23.4891 221.956 23.4667C221.947 23.4443 221.943 23.4203 221.943 23.3962V22.7567C221.948 22.7099 221.968 22.6661 222.002 22.6328C222.035 22.5996 222.079 22.579 222.125 22.5746H223.823C223.87 22.5781 223.914 22.5983 223.948 22.6318C223.981 22.6652 224.001 22.7095 224.005 22.7567Z" fill="#F8F8F8"/>
<path d="M225.697 22.7567V23.3962C225.698 23.4203 225.694 23.4443 225.685 23.4667C225.676 23.4891 225.663 23.5094 225.645 23.5265C225.628 23.5435 225.608 23.5569 225.586 23.5658C225.563 23.5747 225.539 23.579 225.515 23.5783H223.813C223.789 23.579 223.765 23.5747 223.743 23.5658C223.72 23.5569 223.7 23.5435 223.683 23.5265C223.666 23.5094 223.652 23.4891 223.643 23.4667C223.635 23.4443 223.63 23.4203 223.631 23.3962V22.7567C223.635 22.7099 223.656 22.6661 223.689 22.6328C223.722 22.5996 223.766 22.579 223.813 22.5746H225.515C225.562 22.579 225.606 22.5996 225.639 22.6328C225.672 22.6661 225.693 22.7099 225.697 22.7567Z" fill="#F8F8F8"/>
<path d="M227.395 22.7567V23.3962C227.395 23.4203 227.391 23.4443 227.382 23.4667C227.373 23.4891 227.36 23.5094 227.343 23.5265C227.326 23.5435 227.305 23.5569 227.283 23.5658C227.261 23.5747 227.237 23.579 227.212 23.5783H225.515C225.491 23.579 225.467 23.5747 225.445 23.5658C225.422 23.5569 225.402 23.5435 225.385 23.5265C225.368 23.5094 225.354 23.4891 225.346 23.4667C225.337 23.4443 225.332 23.4203 225.333 23.3962V22.7567C225.336 22.7095 225.357 22.6652 225.39 22.6318C225.424 22.5983 225.468 22.5781 225.515 22.5746H227.212C227.259 22.579 227.303 22.5996 227.336 22.6328C227.37 22.6661 227.39 22.7099 227.395 22.7567Z" fill="#F8F8F8"/>
<path d="M229.092 22.7567V23.3962C229.093 23.4203 229.088 23.4443 229.08 23.4667C229.071 23.4891 229.057 23.5094 229.04 23.5265C229.023 23.5435 229.003 23.5569 228.98 23.5658C228.958 23.5747 228.934 23.579 228.91 23.5783H227.213C227.189 23.579 227.165 23.5747 227.142 23.5658C227.12 23.5569 227.099 23.5435 227.082 23.5265C227.065 23.5094 227.052 23.4891 227.043 23.4667C227.034 23.4443 227.03 23.4203 227.031 23.3962V22.7567C227.034 22.7095 227.054 22.6652 227.088 22.6318C227.121 22.5983 227.165 22.5781 227.213 22.5746H228.925C228.972 22.5781 229.016 22.5983 229.05 22.6318C229.083 22.6652 229.103 22.7095 229.107 22.7567" fill="#F8F8F8"/>
<path d="M230.789 22.7567V23.3962C230.79 23.4203 230.786 23.4443 230.777 23.4667C230.768 23.4891 230.755 23.5094 230.737 23.5265C230.72 23.5435 230.7 23.5569 230.678 23.5658C230.655 23.5747 230.631 23.579 230.607 23.5783H228.925C228.901 23.579 228.877 23.5747 228.854 23.5658C228.832 23.5569 228.811 23.5435 228.794 23.5265C228.777 23.5094 228.764 23.4891 228.755 23.4667C228.746 23.4443 228.742 23.4203 228.743 23.3962V22.7567C228.747 22.7099 228.768 22.6661 228.801 22.6328C228.834 22.5996 228.878 22.579 228.925 22.5746H230.622C230.669 22.5781 230.713 22.5983 230.747 22.6318C230.78 22.6652 230.801 22.7095 230.804 22.7567" fill="#F8F8F8"/>
<path d="M232.492 22.7567V23.3962C232.492 23.4203 232.488 23.4443 232.479 23.4667C232.47 23.4891 232.457 23.5094 232.44 23.5265C232.423 23.5435 232.402 23.5569 232.38 23.5658C232.358 23.5747 232.334 23.579 232.31 23.5783H230.607C230.583 23.579 230.559 23.5747 230.537 23.5658C230.514 23.5569 230.494 23.5435 230.477 23.5265C230.46 23.5094 230.447 23.4891 230.438 23.4667C230.429 23.4443 230.425 23.4203 230.425 23.3962V22.7567C230.43 22.7099 230.45 22.6661 230.483 22.6328C230.517 22.5996 230.56 22.579 230.607 22.5746H232.31C232.356 22.579 232.4 22.5996 232.433 22.6328C232.467 22.6661 232.487 22.7099 232.492 22.7567Z" fill="#F8F8F8"/>
<path d="M254.936 22.7567V23.3962C254.936 23.4203 254.932 23.4443 254.923 23.4667C254.914 23.4891 254.901 23.5094 254.884 23.5265C254.867 23.5435 254.847 23.5569 254.824 23.5658C254.802 23.5747 254.778 23.5789 254.754 23.5783H252.963C252.675 23.5761 252.393 23.4922 252.151 23.3363C251.909 23.1804 251.716 22.9589 251.595 22.6976L250.749 23.5783H232.309C232.285 23.5789 232.261 23.5747 232.239 23.5658C232.217 23.5569 232.196 23.5435 232.179 23.5265C232.162 23.5094 232.149 23.4891 232.14 23.4667C232.131 23.4443 232.127 23.4203 232.127 23.3962V22.7567C232.127 22.7326 232.131 22.7086 232.14 22.6862C232.149 22.6638 232.162 22.6435 232.179 22.6264C232.196 22.6094 232.217 22.596 232.239 22.5871C232.261 22.5782 232.285 22.5739 232.309 22.5746H235.434V14.7521L237.706 13.5369V16.2034L238.528 15.3572C246.956 13.9895 247.29 13.96 248.535 13.9305C251.689 13.901 253.75 15.4064 253.75 19.1504V22.5943H254.734C254.758 22.5936 254.782 22.5979 254.804 22.6068C254.827 22.6157 254.847 22.6291 254.864 22.6461C254.881 22.6632 254.895 22.6835 254.904 22.7059C254.913 22.7283 254.917 22.7522 254.916 22.7763M251.516 22.5943C251.456 22.4288 251.426 22.2538 251.428 22.0777V19.0176C251.428 16.6807 250.818 15.0817 248.515 15.0128C247.635 14.9833 247.423 14.9833 237.692 16.4888V22.5845L251.516 22.5943Z" fill="#F8F8F8"/>
<path d="M256.633 22.7567V23.3962C256.634 23.4203 256.63 23.4443 256.621 23.4667C256.612 23.4891 256.598 23.5094 256.581 23.5265C256.564 23.5435 256.544 23.5569 256.522 23.5658C256.499 23.5747 256.475 23.579 256.451 23.5783H254.754C254.73 23.579 254.706 23.5747 254.683 23.5658C254.661 23.5569 254.641 23.5435 254.624 23.5265C254.607 23.5094 254.593 23.4891 254.584 23.4667C254.575 23.4443 254.571 23.4203 254.572 23.3962V22.7567C254.575 22.7095 254.595 22.6652 254.629 22.6318C254.662 22.5983 254.707 22.5781 254.754 22.5746H256.476C256.522 22.579 256.566 22.5996 256.6 22.6328C256.633 22.6661 256.653 22.7099 256.658 22.7567" fill="#F8F8F8"/>
<path d="M258.33 22.7567V23.3962C258.331 23.4203 258.327 23.4443 258.318 23.4667C258.309 23.4891 258.296 23.5094 258.279 23.5265C258.262 23.5435 258.241 23.5569 258.219 23.5658C258.196 23.5747 258.173 23.579 258.148 23.5783H256.476C256.452 23.579 256.428 23.5747 256.405 23.5658C256.383 23.5569 256.363 23.5435 256.345 23.5265C256.328 23.5094 256.315 23.4891 256.306 23.4667C256.297 23.4443 256.293 23.4203 256.294 23.3962V22.7567C256.297 22.7095 256.317 22.6652 256.351 22.6318C256.384 22.5983 256.429 22.5781 256.476 22.5746H258.173C258.22 22.5781 258.264 22.5983 258.298 22.6318C258.331 22.6652 258.352 22.7095 258.355 22.7567" fill="#F8F8F8"/>
<path d="M260.028 22.7567V23.3962C260.029 23.4203 260.024 23.4443 260.015 23.4667C260.007 23.4891 259.993 23.5094 259.976 23.5265C259.959 23.5435 259.939 23.5569 259.916 23.5658C259.894 23.5747 259.87 23.579 259.846 23.5783H258.149C258.124 23.579 258.1 23.5747 258.078 23.5658C258.056 23.5569 258.035 23.5435 258.018 23.5265C258.001 23.5094 257.988 23.4891 257.979 23.4667C257.97 23.4443 257.966 23.4203 257.967 23.3962V22.7567C257.971 22.7099 257.991 22.6661 258.025 22.6328C258.058 22.5996 258.102 22.579 258.149 22.5746H259.846C259.893 22.5781 259.937 22.5983 259.971 22.6318C260.004 22.6652 260.024 22.7095 260.028 22.7567Z" fill="#F8F8F8"/>
<path d="M261.73 22.7567V23.3962C261.731 23.4203 261.727 23.4443 261.718 23.4667C261.709 23.4891 261.695 23.5094 261.678 23.5265C261.661 23.5435 261.641 23.5569 261.619 23.5658C261.596 23.5747 261.572 23.579 261.548 23.5783H259.846C259.822 23.579 259.798 23.5747 259.775 23.5658C259.753 23.5569 259.733 23.5435 259.716 23.5265C259.699 23.5094 259.685 23.4891 259.676 23.4667C259.667 23.4443 259.663 23.4203 259.664 23.3962V22.7567C259.668 22.7099 259.689 22.6661 259.722 22.6328C259.755 22.5996 259.799 22.579 259.846 22.5746H261.548C261.595 22.579 261.639 22.5996 261.672 22.6328C261.705 22.6661 261.726 22.7099 261.73 22.7567Z" fill="#F8F8F8"/>
<path d="M282.871 22.5746L281.931 23.5586H281.109C280.806 23.5646 280.506 23.4853 280.245 23.3296C279.984 23.1739 279.772 22.9482 279.633 22.678L278.782 23.5586H261.563C261.539 23.5593 261.515 23.555 261.492 23.5461C261.47 23.5372 261.45 23.5238 261.433 23.5068C261.416 23.4898 261.402 23.4694 261.393 23.447C261.384 23.4246 261.38 23.4007 261.381 23.3766V22.737C261.38 22.7129 261.384 22.6889 261.393 22.6665C261.402 22.6441 261.416 22.6238 261.433 22.6068C261.45 22.5897 261.47 22.5764 261.492 22.5674C261.515 22.5585 261.539 22.5543 261.563 22.555H279.579C278.822 21.2512 278.212 19.6031 277.454 17.9156C276.785 16.4396 275.757 15.185 273.484 15.185H263.29L264.274 14.2011H273.858C276.893 14.2011 278.777 15.5934 279.761 17.4432C280.745 19.4751 281.341 21.143 281.857 22.0876C281.905 22.2272 281.994 22.3491 282.113 22.4369C282.231 22.5248 282.374 22.5745 282.521 22.5796L282.871 22.5746Z" fill="#F8F8F8"/>
<path d="M108.399 40.4828H68.8873V41.2553H108.399V40.4828Z" fill="#F8F8F8"/>
<path d="M283.481 40.4828H243.969V41.2553H283.481V40.4828Z" fill="#F8F8F8"/>
</svg>
