<svg width="80" height="80" viewBox="0 0 80 80" fill="none" xmlns="http://www.w3.org/2000/svg">
<rect width="80" height="80" rx="40" fill="#8F806C"/>
<path d="M23.888 43.5063C24.1006 43.3872 24.2563 43.1904 24.3208 42.959C24.3853 42.7276 24.3533 42.4806 24.232 42.2723L24 41.8805L27.12 41.3164L27.736 42.3702C28.1898 43.1339 28.9009 43.7191 29.7473 44.0252C30.5937 44.3314 31.5225 44.3394 32.3742 44.0479C33.2259 43.7564 33.9475 43.1836 34.4149 42.4278C34.8824 41.672 35.0666 40.7804 34.936 39.9061L41.696 38.6877L42.168 39.4947C42.2232 39.6064 42.3013 39.7057 42.3974 39.7865C42.4935 39.8674 42.6056 39.928 42.7266 39.9646C42.8476 40.0013 42.9751 40.0131 43.101 39.9995C43.2269 39.9859 43.3486 39.947 43.4585 39.8854C43.5685 39.8237 43.6643 39.7406 43.74 39.6412C43.8158 39.5417 43.8699 39.4281 43.8989 39.3073C43.9279 39.1866 43.9313 39.0613 43.9087 38.9392C43.8862 38.8171 43.8383 38.7008 43.768 38.5976L35.068 23.6679C34.938 23.4772 34.739 23.342 34.5111 23.2894C34.2833 23.2369 34.0435 23.2711 33.8404 23.385C33.6372 23.4989 33.4858 23.6841 33.4167 23.9031C33.3475 24.1222 33.3659 24.3587 33.468 24.5651L33.868 25.2349L22.076 38.5545L21.924 38.296C21.8687 38.1843 21.7906 38.085 21.6945 38.0042C21.5984 37.9234 21.4864 37.8627 21.3654 37.8261C21.2443 37.7895 21.1169 37.7776 20.991 37.7912C20.8651 37.8049 20.7434 37.8437 20.6334 37.9053C20.5235 37.967 20.4277 38.0501 20.3519 38.1495C20.2762 38.249 20.2221 38.3626 20.1931 38.4834C20.1641 38.6042 20.1607 38.7295 20.1832 38.8516C20.2058 38.9737 20.2537 39.0899 20.324 39.1931L22.628 43.1694C22.7495 43.3776 22.9505 43.5301 23.1868 43.5932C23.4231 43.6564 23.6753 43.6251 23.888 43.5063ZM33.132 40.2273C33.1882 40.6843 33.0815 41.1464 32.83 41.5352C32.5785 41.9241 32.1976 42.216 31.7517 42.3616C31.3058 42.5072 30.8223 42.4975 30.3828 42.3341C29.9434 42.1708 29.575 41.8639 29.34 41.4653L29.044 40.9795L33.132 40.2273ZM41.444 30.0104C41.3775 29.8965 41.3346 29.7708 41.3177 29.6406C41.3008 29.5104 41.3103 29.3783 41.3456 29.2517C41.3809 29.125 41.4413 29.0065 41.5234 28.9028C41.6055 28.799 41.7076 28.7122 41.824 28.6471L44.856 26.9508C44.9724 26.8773 45.1028 26.8278 45.2394 26.8053C45.376 26.7827 45.5158 26.7877 45.6503 26.8198C45.7849 26.8519 45.9113 26.9105 46.022 26.9921C46.1327 27.0736 46.2252 27.1764 46.294 27.2941C46.3628 27.4118 46.4064 27.542 46.4222 27.6768C46.4379 27.8115 46.4255 27.948 46.3856 28.0779C46.3458 28.2078 46.2793 28.3284 46.1903 28.4323C46.1013 28.5362 45.9916 28.6213 45.868 28.6824L42.832 30.4022C42.7146 30.4659 42.5856 30.5063 42.4523 30.5211C42.3189 30.5359 42.1839 30.5248 42.055 30.4884C41.926 30.452 41.8057 30.391 41.7009 30.309C41.596 30.227 41.5087 30.1255 41.444 30.0104ZM39.768 27.9694C39.5795 27.8005 39.4635 27.5678 39.4434 27.3184C39.4234 27.0689 39.5008 26.8214 39.66 26.6257L41.892 23.8834C41.973 23.7781 42.0748 23.6898 42.1913 23.6236C42.3078 23.5575 42.4367 23.5149 42.5702 23.4983C42.7038 23.4817 42.8395 23.4915 42.9691 23.5271C43.0988 23.5628 43.2198 23.6235 43.3251 23.7056C43.4304 23.7878 43.5178 23.8899 43.5822 24.0057C43.6466 24.1215 43.6866 24.2488 43.7 24.38C43.7133 24.5113 43.6996 24.6438 43.6598 24.7698C43.6199 24.8957 43.5547 25.0126 43.468 25.1135L41.236 27.8558C41.1498 27.9611 41.0426 28.0482 40.9208 28.1115C40.7991 28.1748 40.6654 28.2131 40.528 28.224H40.452C40.2006 28.2278 39.9568 28.1398 39.768 27.9772V27.9694ZM42.4 32.4667C42.3724 32.3349 42.3727 32.1989 42.4007 32.0672C42.4287 31.9355 42.4839 31.8107 42.563 31.7007C42.642 31.5906 42.7432 31.4975 42.8603 31.4272C42.9774 31.3568 43.108 31.3106 43.244 31.2914L46.776 30.7939C47.0412 30.757 47.3105 30.8248 47.5247 30.9824C47.7388 31.14 47.8803 31.3745 47.918 31.6342C47.9556 31.894 47.8864 32.1577 47.7255 32.3675C47.5646 32.5772 47.3252 32.7158 47.06 32.7527L43.516 33.2463H43.376C43.1473 33.2435 42.9263 33.1649 42.7491 33.0233C42.5718 32.8817 42.4488 32.6855 42.4 32.4667ZM30.4 57.9659C30.2434 57.9695 30.0877 57.9424 29.9419 57.8861C29.7962 57.8299 29.6635 57.7455 29.5517 57.6382C29.4398 57.5308 29.351 57.4026 29.2906 57.261C29.2302 57.1195 29.1994 56.9675 29.2 56.8141V52.8065C29.2 52.5021 29.3235 52.2101 29.5433 51.9949C29.7631 51.7796 30.0612 51.6587 30.372 51.6587H33.548C33.8588 51.6587 34.1569 51.7796 34.3767 51.9949C34.5965 52.2101 34.72 52.5021 34.72 52.8065V56.8141C34.72 56.9649 34.6897 57.1141 34.6308 57.2534C34.5719 57.3926 34.4855 57.5192 34.3767 57.6258C34.2679 57.7324 34.1387 57.8169 33.9965 57.8746C33.8543 57.9323 33.7019 57.962 33.548 57.962L30.4 57.9659ZM38.268 57.9659C37.9572 57.9659 37.659 57.8449 37.4393 57.6297C37.2195 57.4144 37.096 57.1225 37.096 56.818V51.4628C37.096 51.312 37.1263 51.1628 37.1852 51.0235C37.2441 50.8843 37.3304 50.7577 37.4393 50.6511C37.5481 50.5446 37.6773 50.46 37.8195 50.4023C37.9617 50.3446 38.1141 50.3149 38.268 50.3149H41.444C41.5979 50.3149 41.7503 50.3446 41.8925 50.4023C42.0347 50.46 42.1639 50.5446 42.2727 50.6511C42.3815 50.7577 42.4679 50.8843 42.5268 51.0235C42.5857 51.1628 42.616 51.312 42.616 51.4628V56.8141C42.616 56.9649 42.5857 57.1141 42.5268 57.2534C42.4679 57.3926 42.3815 57.5192 42.2727 57.6258C42.1639 57.7324 42.0347 57.8169 41.8925 57.8746C41.7503 57.9323 41.5979 57.962 41.444 57.962L38.268 57.9659ZM50.468 48.4228V56.8141C50.468 56.9649 50.4377 57.1141 50.3788 57.2534C50.3199 57.3926 50.2335 57.5192 50.1247 57.6258C50.0159 57.7324 49.8867 57.8169 49.7445 57.8746C49.6023 57.9323 49.4499 57.962 49.296 57.962H46.116C45.9621 57.962 45.8097 57.9323 45.6675 57.8746C45.5253 57.8169 45.3961 57.7324 45.2873 57.6258C45.1784 57.5192 45.0921 57.3926 45.0332 57.2534C44.9743 57.1141 44.944 56.9649 44.944 56.8141V48.4228C44.944 48.1184 45.0675 47.8264 45.2873 47.6111C45.507 47.3959 45.8052 47.2749 46.116 47.2749H49.292C49.4462 47.2744 49.5991 47.3037 49.7417 47.3612C49.8844 47.4186 50.014 47.5031 50.1233 47.6098C50.2326 47.7164 50.3192 47.8431 50.3784 47.9826C50.4375 48.1221 50.468 48.2717 50.468 48.4228ZM58.336 42.7267V56.7906C58.3361 57.0976 58.2135 57.3925 57.9945 57.6121C57.7754 57.8317 57.4774 57.9587 57.164 57.9659H54C53.6866 57.9587 53.3885 57.8317 53.1695 57.6121C52.9505 57.3925 52.8279 57.0976 52.828 56.7906V42.7267C52.8279 42.4197 52.9505 42.1248 53.1695 41.9052C53.3885 41.6856 53.6866 41.5586 54 41.5514H57.16C57.4741 41.5576 57.7732 41.6841 57.993 41.9039C58.2129 42.1236 58.336 42.419 58.336 42.7267ZM59.788 35.2834C59.852 35.5872 59.7908 35.9035 59.6177 36.1633C59.4446 36.423 59.1737 36.6053 58.864 36.6702C58.5532 36.7353 58.2287 36.677 57.9617 36.5081C57.6948 36.3392 57.5071 36.0734 57.44 35.7692L56.952 33.5362C54.7822 36.9919 51.9808 40.0265 48.688 42.4877C45.8944 44.5521 42.7707 46.1485 39.444 47.2123C36.398 48.2107 33.2118 48.738 30 48.7754C29.46 48.7754 29.14 48.7558 29.108 48.7519C28.7897 48.7295 28.4936 48.5843 28.2846 48.3481C28.0757 48.1119 27.9712 47.8041 27.994 47.4924C28.0168 47.1807 28.1651 46.8906 28.4063 46.686C28.6474 46.4814 28.9617 46.379 29.28 46.4013C29.28 46.4013 29.516 46.4013 29.948 46.4013C32.9408 46.3596 35.9092 45.8654 38.748 44.9362C45.516 42.7424 50.948 38.4801 54.9 32.2591L52.684 32.7527C52.3804 32.8001 52.0698 32.7315 51.8163 32.5612C51.5628 32.3908 51.3857 32.1317 51.3216 31.8372C51.2575 31.5428 51.3112 31.2354 51.4716 30.9786C51.6321 30.7218 51.8871 30.5351 52.184 30.457L57.276 29.3914C57.5868 29.3263 57.9113 29.3846 58.1782 29.5535C58.4452 29.7225 58.6329 29.9882 58.7 30.2925L59.788 35.2834Z" fill="#F0EFED"/>
</svg>
