<svg width="64" height="64" viewBox="0 0 64 64" fill="none" xmlns="http://www.w3.org/2000/svg">
<path d="M31.4294 55C25.8674 54.9737 20.1855 53.3907 14.8946 50.3309C14.5216 50.1156 14.4556 49.8993 14.5236 49.4899C14.9236 47.0487 15.2856 44.6004 15.6826 42.1572C16.0466 39.9131 17.0445 38.0602 18.9825 36.7876C19.1355 36.6865 19.2215 36.4014 19.2415 36.1922C19.4685 33.9127 19.6575 31.6302 19.8935 29.3518C20.2995 25.4479 20.7525 21.5511 21.7815 17.7493C21.9397 17.2365 21.9901 16.6959 21.9295 16.1622C21.8215 15.3121 22.2695 14.5095 23.0035 13.9566C23.1595 13.8393 23.3435 13.722 23.4345 13.5593C25.1754 10.458 27.9014 9.11763 31.3344 9.01048C33.4613 8.94578 35.5343 9.15907 37.4213 10.2619C38.7213 11.0231 39.6863 12.1219 40.4572 13.4117C40.5757 13.6095 40.735 13.7792 40.9242 13.909C41.3451 14.202 41.6673 14.618 41.8476 15.1013C42.028 15.5846 42.0578 16.1121 41.9332 16.6131C41.9168 16.7274 41.9299 16.844 41.9712 16.9517C43.0872 20.6787 43.5712 24.5219 43.9832 28.3743C44.2582 30.9368 44.4832 33.5043 44.7132 36.0699C44.7492 36.4671 44.8712 36.7289 45.2132 36.9655C47.0132 38.1886 47.9301 39.9768 48.2781 42.0874C48.6971 44.6287 49.0781 47.176 49.4901 49.7183C49.5471 50.065 49.3481 50.157 49.1311 50.2844C46.147 52.0428 42.9183 53.3376 39.5533 54.1256C37.0573 54.7149 34.5283 54.999 31.4294 55ZM38.5613 18.6843C38.0203 18.7601 37.5163 18.7712 37.0483 18.9067C33.7477 19.8816 30.24 19.8816 26.9394 18.9067C26.5764 18.8056 26.1874 18.7844 25.8094 18.7358C25.4744 18.6924 25.3404 18.8278 25.3514 19.1897C25.3784 20.0317 25.3514 20.8748 25.3684 21.7168C25.4012 23.7684 26.0212 25.7665 27.1534 27.4696C27.8374 28.5117 28.5584 28.7301 29.6654 28.1994C31.2274 27.4493 32.7783 27.4504 34.3363 28.2166C35.3613 28.722 36.0983 28.5077 36.7543 27.5696C38.6103 24.9182 38.7643 21.9079 38.5613 18.6843ZM20.1245 36.1608C20.2032 36.1491 20.281 36.1322 20.3575 36.1103C22.3405 35.2774 24.3145 34.4222 26.4444 34.0209C26.5212 33.9906 26.5898 33.9423 26.6444 33.8799C26.699 33.8175 26.7381 33.7428 26.7584 33.662C26.8584 32.9635 26.9234 32.259 26.9704 31.5554C26.9806 31.376 26.9239 31.1993 26.8114 31.0601C25.4914 29.6752 24.8464 27.9568 24.6994 26.0989C24.5315 23.9761 24.5485 21.8321 24.4855 19.6972C24.4855 19.5051 24.4855 19.313 24.4855 19.121L24.3535 19.0522C24.0355 19.309 23.6535 19.5162 23.4095 19.8296C22.3995 21.1103 21.6285 22.5457 21.4095 24.1762C21.0095 27.0753 20.7285 29.9906 20.4095 32.9008C20.2925 33.9643 20.2205 35.0327 20.1245 36.1608ZM39.4853 19.0613C39.4853 19.3242 39.4853 19.5061 39.4853 19.6881C39.4513 21.6087 39.4853 23.5293 39.3603 25.4398C39.2493 27.1643 38.9163 28.8989 37.7693 30.2474C37.0583 31.0823 36.8693 31.9031 37.0843 32.9099C37.1373 33.1556 37.1263 33.4214 37.2113 33.6529C37.2673 33.8056 37.4263 33.9996 37.5673 34.0269C39.4293 34.3868 41.1732 35.0964 42.9152 35.8161L43.8202 36.1901C43.8202 36.0234 43.8292 35.9253 43.8202 35.8293C43.4682 32.3641 43.0932 28.8999 42.7702 25.4317C42.5952 23.5556 41.9542 21.8715 40.9462 20.3107C40.6002 19.7503 40.0893 19.3135 39.4853 19.0613ZM41.7232 19.87L41.8302 19.8245C41.5982 18.9724 41.3542 18.1223 41.1432 17.2651C41.0582 16.9234 40.8792 16.7859 40.5432 16.702C35.1643 15.3424 29.7774 15.2868 24.3525 16.4574C23.2795 16.6879 22.6645 17.0973 22.5425 18.2244C22.4845 18.7662 22.2935 19.2938 22.1625 19.8276C22.3298 19.7214 22.4757 19.5842 22.5925 19.4232C23.7855 18.0505 25.2694 17.5168 27.0014 18.0192C30.3274 18.9845 33.6293 19.0037 36.9493 18.0192C38.6313 17.5137 40.3792 18.1202 41.4572 19.5213L41.7232 19.87ZM27.9314 32.1761C27.6934 33.288 27.4974 34.3241 27.2314 35.3441C27.1424 35.6888 27.2184 35.8586 27.4744 36.0567C29.9394 37.9773 34.0983 37.9551 36.5433 36.0143C36.7763 35.8293 36.8083 35.6716 36.7433 35.3794C36.5243 34.4495 36.3603 33.5074 36.1743 32.5693C36.1503 32.447 36.1223 32.3257 36.0843 32.1447C35.8123 32.2852 35.5843 32.3813 35.3763 32.5137C33.1063 33.9744 30.8424 33.9632 28.5764 32.5056C28.3673 32.3843 28.152 32.2743 27.9314 32.1761ZM39.3513 13.4622L39.4153 13.3389C39.0373 12.9002 38.6863 12.4352 38.2783 12.0248C36.8503 10.6026 35.0603 10.0506 33.1153 9.91923C30.8714 9.76861 28.6794 9.93035 26.7154 11.1959C25.824 11.7754 25.078 12.5565 24.5365 13.4774C29.4201 12.4326 34.4655 12.4274 39.3513 13.4622ZM31.9854 43.068C32.2122 43.0653 32.4288 42.9719 32.5877 42.8082C32.7466 42.6446 32.8349 42.4239 32.8333 42.1946C32.8245 41.9657 32.7278 41.7493 32.5636 41.5913C32.3995 41.4333 32.181 41.3462 31.9544 41.3485C31.7368 41.3607 31.5317 41.4547 31.3792 41.612C31.2268 41.7693 31.138 41.9785 31.1304 42.1986C31.1324 42.4277 31.223 42.6468 31.3828 42.8093C31.5425 42.9717 31.7588 43.0645 31.9854 43.068ZM32.8333 51.1052C32.8319 50.9918 32.8082 50.8798 32.7634 50.7757C32.7187 50.6717 32.6539 50.5777 32.5728 50.4993C32.4916 50.4209 32.3959 50.3596 32.2911 50.3191C32.1863 50.2785 32.0745 50.2595 31.9624 50.2632C31.7445 50.2695 31.5371 50.3596 31.3827 50.5151C31.2283 50.6707 31.1384 50.8799 31.1314 51.1002C31.1357 51.3285 31.2261 51.5467 31.384 51.7101C31.542 51.8735 31.7556 51.9699 31.9814 51.9796C32.208 51.9746 32.4238 51.8805 32.5829 51.7172C32.742 51.5539 32.8318 51.3344 32.8333 51.1052ZM32.8333 46.6575C32.8331 46.5439 32.8105 46.4316 32.7669 46.3269C32.7233 46.2223 32.6595 46.1274 32.5793 46.0479C32.4991 45.9685 32.404 45.9059 32.2996 45.8639C32.1953 45.8219 32.0837 45.8013 31.9714 45.8033C31.7449 45.8086 31.5298 45.9045 31.3733 46.07C31.2167 46.2354 31.1315 46.4569 31.1364 46.6858C31.1459 46.9059 31.2377 47.1142 31.3932 47.2686C31.5488 47.423 31.7564 47.512 31.9744 47.5177C32.1999 47.5177 32.4165 47.4281 32.5772 47.268C32.7379 47.108 32.8299 46.8905 32.8333 46.6625V46.6575Z" fill="#8F806C"/>
</svg>
