<svg width="64" height="64" viewBox="0 0 64 64" fill="none" xmlns="http://www.w3.org/2000/svg">
<g clip-path="url(#clip0_308_181)">
<path d="M20.9491 52.642H19.7772V53.9116H55.4491C55.5233 53.9122 55.5969 53.8976 55.6656 53.8687C55.7343 53.8399 55.7967 53.7974 55.8494 53.7436C55.902 53.6898 55.9438 53.6259 55.9723 53.5554C56.0009 53.4849 56.0155 53.4094 56.0155 53.333V23.1988C56.0151 22.9741 55.928 22.7588 55.7733 22.6001C55.618 22.4397 55.4075 22.3488 55.1874 22.347H42.9218V11.0206C42.922 10.7716 42.833 10.5313 42.6718 10.3456L42.6288 10.2973C42.5366 10.2023 42.427 10.1271 42.3063 10.076C42.1856 10.025 42.0562 9.99916 41.9257 10H20.703C20.5726 9.9996 20.4433 10.0256 20.3227 10.0767C20.202 10.1277 20.0923 10.2027 19.9999 10.2973C19.8366 10.4668 19.7369 10.6903 19.7187 10.9282V27.5703L20.953 29.4507V11.2737H41.6835V52.658H42.9179V23.5725H54.8163V52.642H51.1679V46.5629C51.1684 46.5056 51.1579 46.4487 51.1369 46.3956C51.1159 46.3425 51.0849 46.2942 51.0457 46.2535C51.0065 46.2127 50.9598 46.1804 50.9083 46.1583C50.8569 46.1363 50.8017 46.1249 50.746 46.1249H45.9608C45.8479 46.1249 45.7396 46.1711 45.6598 46.2532C45.5799 46.3353 45.5351 46.4467 45.5351 46.5629V52.65H36.5507V44.0356C36.5507 43.9591 36.536 43.8834 36.5076 43.8127C36.4791 43.742 36.4374 43.6778 36.3848 43.6237C36.3322 43.5696 36.2697 43.5267 36.201 43.4974C36.1323 43.4681 36.0587 43.453 35.9843 43.453H26.6405C26.5663 43.453 26.4929 43.4681 26.4244 43.4975C26.3559 43.5268 26.2937 43.5698 26.2414 43.6239C26.1891 43.6781 26.1478 43.7423 26.1197 43.813C26.0917 43.8836 26.0775 43.9593 26.078 44.0356V44.9557L26.2421 45.1647C26.2758 45.2055 26.3071 45.2485 26.3358 45.2932C26.5919 45.6689 26.7494 46.1062 26.7929 46.5629C26.8441 47.0042 26.7987 47.4518 26.6601 47.8727C26.5379 48.2464 26.3395 48.5889 26.078 48.8772V52.65H19.7616V49.6527H20.9335V52.642H20.9491ZM8.98818 47.7241C7.9999 47.8245 7.78506 46.9647 8.21084 46.2535L12.0312 41.3959L11.9218 41.2753H9.8749C9.13662 41.3959 8.85928 40.524 9.3124 39.9133L13.4257 34.69H12.2226C11.4687 34.69 11.2851 33.9587 11.7655 33.2516L15.5194 27.3935C15.7733 27.064 16.0468 26.5899 16.4921 26.5899C16.8827 26.5899 17.1093 26.9917 17.3358 27.277L21.3202 33.34C21.4255 33.4667 21.4918 33.6228 21.5105 33.7884C21.5293 33.954 21.4997 34.1215 21.4255 34.2698C21.3514 34.418 21.236 34.5402 21.0941 34.6207C20.9522 34.7013 20.7903 34.7366 20.6288 34.7221H19.5546L23.6249 39.9133C23.7331 40.0186 23.8129 40.151 23.8564 40.2976C23.8998 40.4442 23.9055 40.5999 23.8728 40.7494C23.8401 40.8989 23.7702 41.0372 23.6699 41.1505C23.5696 41.2638 23.4423 41.3484 23.3007 41.3959H20.9413L24.4999 45.9281L24.8905 46.4263C24.9687 46.5382 25.0186 46.6684 25.0357 46.8052C25.0529 46.9419 25.0367 47.0809 24.9887 47.2096C24.9406 47.3383 24.8622 47.4527 24.7606 47.5425C24.6589 47.6323 24.5371 47.6947 24.4062 47.7241H17.9765V54H14.9647V47.7241H8.98818ZM50.3202 52.642H46.3827V46.9888H50.3202V52.642ZM49.4062 26.0716H52.4686C52.4921 26.0716 52.5155 26.1078 52.5155 26.152V28.2011C52.5155 28.2373 52.4921 28.2774 52.4686 28.2774H49.4062C49.3827 28.2774 49.3593 28.2413 49.3593 28.2011V26.16C49.3593 26.1158 49.3827 26.0796 49.4062 26.0796V26.0716ZM49.4062 40.2267H52.4686C52.4921 40.2267 52.5155 40.2628 52.5155 40.299V42.3401C52.5155 42.3803 52.4921 42.4164 52.4686 42.4164H49.4062C49.3827 42.4164 49.3593 42.3843 49.3593 42.3401V40.307C49.3593 40.2709 49.3827 40.2347 49.4062 40.2347V40.2267ZM44.246 40.2267H47.3046C47.3319 40.2267 47.3515 40.2628 47.3515 40.299V42.3401C47.3515 42.3803 47.3515 42.4164 47.3046 42.4164H44.2421C44.2147 42.4164 44.1952 42.3843 44.1952 42.3401V40.307C44.1952 40.2709 44.1952 40.2347 44.2421 40.2347L44.246 40.2267ZM49.4062 35.5177H52.4686C52.4921 35.5177 52.5155 35.5498 52.5155 35.594V37.6351C52.5155 37.6753 52.4921 37.7115 52.4686 37.7115H49.4062C49.3827 37.7115 49.3593 37.6793 49.3593 37.6351V35.594C49.3593 35.5458 49.3827 35.5177 49.4062 35.5177ZM49.4062 30.8007H52.4686C52.4921 30.8007 52.5155 30.8328 52.5155 30.877V32.902C52.5155 32.9382 52.4921 32.9784 52.4686 32.9784H49.4062C49.3827 32.9784 49.3593 32.9422 49.3593 32.902V30.8931C49.3593 30.8489 49.3827 30.8167 49.4062 30.8167V30.8007ZM44.2421 26.0716H47.3007C47.328 26.0716 47.3476 26.1078 47.3476 26.152V28.2011C47.3476 28.2373 47.3476 28.2774 47.3007 28.2774H44.2421C44.2147 28.2774 44.1952 28.2413 44.1952 28.2011V26.16C44.1952 26.1158 44.1952 26.0796 44.2421 26.0796V26.0716ZM44.2421 35.5097H47.3007C47.328 35.5097 47.3476 35.5418 47.3476 35.586V37.6271C47.3476 37.6673 47.3476 37.7034 47.3007 37.7034H44.2421C44.2147 37.7034 44.1952 37.6713 44.1952 37.6271V35.594C44.1952 35.5458 44.1952 35.5177 44.2421 35.5177V35.5097ZM44.2421 30.7926H47.3007C47.328 30.7926 47.3476 30.8248 47.3476 30.869V32.902C47.3476 32.9382 47.3476 32.9784 47.3007 32.9784H44.2421C44.2147 32.9784 44.1952 32.9422 44.1952 32.902V30.8931C44.1952 30.8489 44.1952 30.8167 44.2421 30.8167V30.7926ZM35.4218 52.642H27.2187V44.6062H35.4218V52.642ZM23.9296 14.4719H27.2577C27.27 14.4719 27.2822 14.4744 27.2936 14.4793C27.305 14.4841 27.3153 14.4912 27.324 14.5002C27.3327 14.5091 27.3396 14.5198 27.3443 14.5315C27.349 14.5432 27.3515 14.5557 27.3515 14.5684V17.9956C27.3515 18.0083 27.349 18.0208 27.3443 18.0325C27.3396 18.0442 27.3327 18.0549 27.324 18.0638C27.3153 18.0728 27.305 18.0799 27.2936 18.0847C27.2822 18.0896 27.27 18.0921 27.2577 18.0921H23.9296C23.9043 18.0921 23.8801 18.0821 23.8619 18.0641C23.8437 18.0461 23.8329 18.0216 23.8319 17.9956V14.5724C23.8329 14.5465 23.8437 14.5219 23.8619 14.5039C23.8801 14.486 23.9043 14.4759 23.9296 14.476V14.4719ZM35.371 14.4719H38.703C38.7279 14.4719 38.7517 14.4821 38.7693 14.5002C38.7869 14.5183 38.7968 14.5428 38.7968 14.5684V17.9956C38.7968 18.0212 38.7869 18.0457 38.7693 18.0638C38.7517 18.0819 38.7279 18.0921 38.703 18.0921H35.371C35.3461 18.0921 35.3223 18.0819 35.3047 18.0638C35.2871 18.0457 35.2772 18.0212 35.2772 17.9956V14.5724C35.2772 14.5468 35.2871 14.5223 35.3047 14.5042C35.3223 14.4861 35.3461 14.476 35.371 14.476V14.4719ZM29.6483 14.4719H32.9999C33.0248 14.4719 33.0486 14.4821 33.0662 14.5002C33.0838 14.5183 33.0936 14.5428 33.0936 14.5684V17.9956C33.0936 18.0212 33.0838 18.0457 33.0662 18.0638C33.0486 18.0819 33.0248 18.0921 32.9999 18.0921H29.6483C29.6235 18.0921 29.5996 18.0819 29.582 18.0638C29.5645 18.0457 29.5546 18.0212 29.5546 17.9956V14.5724C29.5546 14.5468 29.5645 14.5223 29.582 14.5042C29.5996 14.4861 29.6235 14.476 29.6483 14.476V14.4719ZM23.9296 21.893H27.2577C27.27 21.893 27.2822 21.8955 27.2936 21.9003C27.305 21.9052 27.3153 21.9123 27.324 21.9212C27.3327 21.9302 27.3396 21.9408 27.3443 21.9525C27.349 21.9642 27.3515 21.9768 27.3515 21.9894V25.4167C27.3515 25.4294 27.349 25.4419 27.3443 25.4536C27.3396 25.4653 27.3327 25.4759 27.324 25.4849C27.3153 25.4938 27.305 25.5009 27.2936 25.5058C27.2822 25.5106 27.27 25.5131 27.2577 25.5131H23.9296C23.9043 25.5131 23.8801 25.5031 23.8619 25.4851C23.8437 25.4672 23.8329 25.4426 23.8319 25.4167V21.9894C23.8329 21.9635 23.8437 21.939 23.8619 21.921C23.8801 21.903 23.9043 21.893 23.9296 21.893ZM35.371 21.893H38.703C38.7279 21.893 38.7517 21.9032 38.7693 21.9212C38.7869 21.9393 38.7968 21.9639 38.7968 21.9894V25.4167C38.7968 25.4423 38.7869 25.4668 38.7693 25.4849C38.7517 25.503 38.7279 25.5131 38.703 25.5131H35.371C35.3461 25.5131 35.3223 25.503 35.3047 25.4849C35.2871 25.4668 35.2772 25.4423 35.2772 25.4167V21.9894C35.2772 21.9639 35.2871 21.9393 35.3047 21.9212C35.3223 21.9032 35.3461 21.893 35.371 21.893ZM29.6483 21.893H32.9999C33.0248 21.893 33.0486 21.9032 33.0662 21.9212C33.0838 21.9393 33.0936 21.9639 33.0936 21.9894V25.4167C33.0936 25.4423 33.0838 25.4668 33.0662 25.4849C33.0486 25.503 33.0248 25.5131 32.9999 25.5131H29.6483C29.6235 25.5131 29.5996 25.503 29.582 25.4849C29.5645 25.4668 29.5546 25.4423 29.5546 25.4167V21.9894C29.5546 21.9639 29.5645 21.9393 29.582 21.9212C29.5996 21.9032 29.6235 21.893 29.6483 21.893ZM23.9296 36.7311H27.2577C27.2826 36.7311 27.3064 36.7413 27.324 36.7593C27.3416 36.7774 27.3515 36.8019 27.3515 36.8275V40.2508C27.3515 40.2767 27.3417 40.3017 27.3243 40.3204C27.3068 40.3391 27.2829 40.3502 27.2577 40.3512H25.6718C25.6641 40.2324 25.6484 40.1143 25.6249 39.9976C25.5282 39.4863 25.2987 39.0115 24.9608 38.6235L23.8319 37.1891V36.8275C23.8329 36.8016 23.8437 36.7771 23.8619 36.7591C23.8801 36.7411 23.9043 36.7311 23.9296 36.7311ZM35.371 36.7311H38.703C38.7279 36.7311 38.7517 36.7413 38.7693 36.7593C38.7869 36.7774 38.7968 36.8019 38.7968 36.8275V40.2508C38.7968 40.2767 38.787 40.3017 38.7696 40.3204C38.7521 40.3391 38.7282 40.3502 38.703 40.3512H35.371C35.3458 40.3502 35.3219 40.3391 35.3045 40.3204C35.287 40.3017 35.2772 40.2767 35.2772 40.2508V36.8275C35.2772 36.8019 35.2871 36.7774 35.3047 36.7593C35.3223 36.7413 35.3461 36.7311 35.371 36.7311ZM29.6483 36.7311H32.9999C33.0248 36.7311 33.0486 36.7413 33.0662 36.7593C33.0838 36.7774 33.0936 36.8019 33.0936 36.8275V40.2508C33.0937 40.2767 33.0839 40.3017 33.0664 40.3204C33.049 40.3391 33.0251 40.3502 32.9999 40.3512H29.6483C29.6231 40.3502 29.5993 40.3391 29.5818 40.3204C29.5643 40.3017 29.5546 40.2767 29.5546 40.2508V36.8275C29.5546 36.8019 29.5645 36.7774 29.582 36.7593C29.5996 36.7413 29.6235 36.7311 29.6483 36.7311ZM23.9296 29.3141H27.2577C27.27 29.3141 27.2822 29.3165 27.2936 29.3214C27.305 29.3262 27.3153 29.3333 27.324 29.3423C27.3327 29.3513 27.3396 29.3619 27.3443 29.3736C27.349 29.3853 27.3515 29.3978 27.3515 29.4105V32.8337C27.3515 32.8464 27.349 32.8589 27.3443 32.8706C27.3396 32.8823 27.3327 32.893 27.324 32.9019C27.3153 32.9109 27.305 32.918 27.2936 32.9228C27.2822 32.9277 27.27 32.9302 27.2577 32.9302H23.9296C23.9043 32.9302 23.8801 32.9202 23.8619 32.9022C23.8437 32.8842 23.8329 32.8597 23.8319 32.8337V29.4105C23.8329 29.3845 23.8437 29.36 23.8619 29.342C23.8801 29.3241 23.9043 29.314 23.9296 29.3141ZM35.371 29.3141H38.703C38.7279 29.3141 38.7517 29.3242 38.7693 29.3423C38.7869 29.3604 38.7968 29.3849 38.7968 29.4105V32.8337C38.7968 32.8593 38.7869 32.8838 38.7693 32.9019C38.7517 32.92 38.7279 32.9302 38.703 32.9302H35.371C35.3461 32.9302 35.3223 32.92 35.3047 32.9019C35.2871 32.8838 35.2772 32.8593 35.2772 32.8337V29.4105C35.2772 29.3849 35.2871 29.3604 35.3047 29.3423C35.3223 29.3242 35.3461 29.3141 35.371 29.3141ZM29.6483 29.3141H32.9999C33.0248 29.3141 33.0486 29.3242 33.0662 29.3423C33.0838 29.3604 33.0936 29.3849 33.0936 29.4105V32.8337C33.0936 32.8593 33.0838 32.8838 33.0662 32.9019C33.0486 32.92 33.0248 32.9302 32.9999 32.9302H29.6483C29.6235 32.9302 29.5996 32.92 29.582 32.9019C29.5645 32.8838 29.5546 32.8593 29.5546 32.8337V29.4105C29.5546 29.3849 29.5645 29.3604 29.582 29.3423C29.5996 29.3242 29.6235 29.3141 29.6483 29.3141Z" fill="#8F806C"/>
</g>
<defs>
<clipPath id="clip0_308_181">
<rect width="48" height="44" fill="white" transform="translate(8 10)"/>
</clipPath>
</defs>
</svg>
