<svg width="56" height="57" viewBox="0 0 56 57" fill="none" xmlns="http://www.w3.org/2000/svg">
<g clip-path="url(#clip0_2108_496)">
<path d="M27.7106 14.042C37.5046 14.514 46.2366 17.8573 53.0413 25.134C56.2273 28.5167 56.188 28.0447 53.0806 31.7027C49.108 36.4227 43.7193 39.176 37.898 40.946C24.6033 44.9187 12.8426 41.8507 3.00929 32.2533C-1.08138 28.2413 -0.924043 28.674 3.00929 24.5833C9.69596 17.582 18.1133 14.4747 27.7106 14.042ZM19.018 18.526C13.6293 20.2567 8.98796 22.6953 5.25129 26.55C3.16662 28.7133 3.08796 28.2413 5.25129 30.2473C14.062 38.3893 24.328 41.4967 36.0886 38.2713C41.792 36.698 46.9053 33.9053 50.9173 29.4213C51.586 28.674 51.586 28.202 50.9173 27.4547C48.4 24.662 45.4106 22.5773 42.1066 20.886C40.2973 19.9813 38.4093 19.1553 36.2853 18.6047C41.3986 24.662 39.8646 31.6633 35.892 35.4787C31.3686 39.8053 24.4066 39.9233 19.726 35.7933C15.478 31.978 13.826 24.7407 19.018 18.526ZM27.632 35.636C32.3913 35.636 36.2853 31.6633 36.2853 26.8647C36.246 21.9873 32.3913 18.0933 27.632 18.0933C22.8726 18.0933 18.9786 22.0267 18.9786 26.8647C18.9786 31.6633 22.912 35.636 27.632 35.636Z" fill="#02464F"/>
<path d="M50.8386 49.5599C50.8386 50.1499 50.5239 50.5433 49.9733 50.7399C49.2653 50.9759 48.7933 50.6219 48.3606 50.1106C46.9446 48.4193 45.5286 46.7673 44.1126 45.0759C43.6406 44.5253 43.1686 44.0139 42.7359 43.4633C42.2246 42.7946 42.1459 42.0473 42.8146 41.4573C43.5226 40.8673 44.2306 41.1033 44.7813 41.7326C46.6693 43.9353 48.5179 46.1379 50.4059 48.3799C50.6419 48.6946 50.8779 49.0486 50.8386 49.5599Z" fill="#8F806C"/>
<path d="M4.46467 49.442C4.42533 48.97 4.66133 48.6553 4.93667 48.3013C6.78533 46.138 8.634 43.9353 10.522 41.772C11.0727 41.1426 11.7413 40.8673 12.4887 41.4573C13.1967 42.0473 13.1967 42.7553 12.646 43.424C10.7187 45.7446 8.752 48.026 6.78533 50.3466C6.392 50.8186 5.802 50.9366 5.212 50.622C4.58267 50.386 4.386 49.9533 4.46467 49.442Z" fill="#8F806C"/>
<path d="M4.42534 7.27661C4.38601 6.68661 4.66134 6.29327 5.17267 6.05727C5.84134 5.78194 6.39201 5.97861 6.82467 6.52928C8.00467 7.90594 9.18467 9.28261 10.3647 10.6986C11.0727 11.5246 11.7413 12.3506 12.4493 13.1766C13.0393 13.8453 13.1967 14.5926 12.4493 15.2613C11.6627 15.9299 10.994 15.5759 10.404 14.9073C8.55534 12.7439 6.70667 10.5413 4.85801 8.37794C4.62201 8.02394 4.38601 7.70928 4.42534 7.27661Z" fill="#8F806C"/>
<path d="M50.8386 7.23731C50.8779 7.63064 50.6812 7.98464 50.3666 8.29931C48.5179 10.4626 46.7086 12.5866 44.8992 14.75C44.2699 15.4973 43.5226 15.8513 42.7752 15.1826C41.9886 14.514 42.2639 13.7273 42.8932 13.0193C44.7419 10.8953 46.5512 8.73198 48.3606 6.56864C48.8326 6.01798 49.3832 5.82131 50.0126 6.05731C50.5632 6.21464 50.8386 6.60798 50.8386 7.23731Z" fill="#8F806C"/>
<path d="M28.9302 5.93933C28.9302 7.39467 28.9302 8.85 28.9302 10.3053C28.9302 11.21 28.5762 11.8393 27.7109 11.8393C26.7669 11.8787 26.3735 11.21 26.3735 10.266C26.3735 7.316 26.3735 4.366 26.3735 1.45533C26.3735 0.59 26.7275 0 27.6715 0C28.6155 0 28.9695 0.59 28.9695 1.45533C28.8909 2.95 28.8909 4.44467 28.9302 5.93933Z" fill="#8F806C"/>
<path d="M26.334 50.7006C26.334 49.2453 26.334 47.79 26.334 46.3346C26.334 45.4693 26.688 44.84 27.632 44.84C28.5367 44.84 28.93 45.43 28.93 46.3346C28.93 49.324 28.93 52.3133 28.93 55.3026C28.93 56.1286 28.4973 56.7186 27.7107 56.758C26.8453 56.7973 26.3733 56.2466 26.3733 55.342C26.334 53.7686 26.334 52.2346 26.334 50.7006Z" fill="#8F806C"/>
<path d="M26.452 20.8073C28.8907 20.0207 31.8013 21.4367 33.0993 23.8753C34.5153 26.55 33.8467 29.8933 31.526 31.7813C29.2053 33.6693 25.862 33.63 23.62 31.7027C21.378 29.7753 20.7487 26.5107 22.2433 23.954C22.8333 25.5273 23.738 26.7073 25.5473 26.5893C26.7667 26.5107 27.7107 25.842 28.0647 24.662C28.5367 23.01 28.0647 21.6727 26.452 20.8073Z" fill="#8F806C"/>
</g>
<defs>
<clipPath id="clip0_2108_496">
<rect width="56" height="57" fill="white"/>
</clipPath>
</defs>
</svg>
