<svg width="54" height="54" viewBox="0 0 54 54" fill="none" xmlns="http://www.w3.org/2000/svg">
<circle cx="27" cy="27" r="26.5" fill="#25D366" stroke="#25D366"/>
<path fill-rule="evenodd" clip-rule="evenodd" d="M37.3847 16.6034C34.6 13.8285 30.8963 12.2996 26.9501 12.2982C18.8186 12.2982 12.2008 18.8835 12.198 26.9781C12.1966 29.5657 12.8763 32.0915 14.1672 34.3173L12.0742 41.9255L19.8945 39.884C22.049 41.054 24.4751 41.6699 26.9438 41.6707H26.9501C35.0802 41.6707 41.6988 35.0846 41.7015 26.99C41.7029 23.067 40.1701 19.3791 37.3847 16.6041V16.6034ZM26.9501 39.1914H26.9452C24.7453 39.1907 22.5873 38.6022 20.7044 37.4907L20.2566 37.226L15.6158 38.4375L16.8544 33.9344L16.5629 33.4726C15.3357 31.5298 14.6871 29.2841 14.6885 26.9788C14.6913 20.2513 20.1916 14.7774 26.9551 14.7774C30.23 14.7788 33.3084 16.0494 35.6234 18.3562C37.9385 20.6624 39.2124 23.7287 39.211 26.9886C39.2082 33.7169 33.708 39.1907 26.9501 39.1907V39.1914ZM33.6754 30.0529C33.3069 29.8692 31.4948 28.9822 31.1566 28.8597C30.8185 28.7372 30.5731 28.676 30.3276 29.0434C30.0822 29.4109 29.3756 30.2373 29.1605 30.4816C28.9455 30.7265 28.7305 30.7568 28.3619 30.5731C27.9935 30.3893 26.8058 30.0022 25.3975 28.7527C24.3019 27.7798 23.562 26.579 23.347 26.2115C23.132 25.844 23.3244 25.6455 23.5082 25.4632C23.6737 25.2985 23.8768 25.0345 24.0614 24.8205C24.246 24.6065 24.3068 24.4531 24.4299 24.2088C24.553 23.9638 24.4914 23.7499 24.3995 23.5661C24.3075 23.3824 23.5705 21.5767 23.2628 20.8425C22.9636 20.1274 22.6595 20.2245 22.4338 20.2125C22.2188 20.202 21.9734 20.1999 21.7272 20.1999C21.4811 20.1999 21.0821 20.2914 20.744 20.6588C20.4059 21.0263 19.4538 21.9139 19.4538 23.7188C19.4538 25.5237 20.7744 27.2688 20.959 27.5138C21.1436 27.7588 23.5584 31.4636 27.2557 33.0531C28.1349 33.4311 28.8217 33.657 29.3572 33.826C30.24 34.1055 31.0434 34.0661 31.6786 33.9717C32.3867 33.8661 33.8594 33.084 34.1663 32.2273C34.4733 31.3706 34.4733 30.6357 34.3814 30.483C34.2894 30.3302 34.0433 30.238 33.6748 30.0543L33.6754 30.0529Z" fill="white"/>
</svg>
