<svg width="36" height="37" viewBox="0 0 36 37" fill="none" xmlns="http://www.w3.org/2000/svg">
<g clip-path="url(#clip0_383_688)">
<path d="M15.8611 1.4031e-07C18.7213 -0.000383595 21.5284 0.786352 23.9853 2.27694C26.4422 3.76753 28.4575 5.90652 29.818 8.46753C31.1784 11.0285 31.8333 13.9163 31.7135 16.8252C31.5936 19.734 30.7033 22.5558 29.137 24.9919L35.9998 32.6068L31.2668 37.012L24.6466 29.5868C22.5856 30.9827 20.2323 31.8683 17.7748 32.1726C15.3174 32.4768 12.8241 32.1914 10.4945 31.339C8.16486 30.4866 6.06357 29.091 4.35877 27.2639C2.65397 25.4368 1.393 23.2288 0.676742 20.8167C-0.0395128 18.4046 -0.191157 15.8553 0.233945 13.3729C0.659046 10.8904 1.64909 8.54371 3.12485 6.52054C4.60061 4.49736 6.52112 2.85389 8.73269 1.72164C10.9443 0.58938 13.3855 -0.00022515 15.8611 1.4031e-07ZM21.3217 9.84017L20.7656 9.11751C20.725 9.06992 20.6965 9.01291 20.6825 8.95149C20.6686 8.89007 20.6697 8.82611 20.6857 8.76522C20.7804 8.46411 21.1205 8.50024 21.3542 8.5153C22.0228 8.56649 23.6024 8.57853 23.9455 8.59359C24.0012 8.59385 24.0562 8.60693 24.1062 8.63184C24.1562 8.65674 24.2001 8.69284 24.2345 8.73743C24.2689 8.78202 24.293 8.83394 24.305 8.88933C24.3169 8.94472 24.3164 9.00213 24.3035 9.05729C24.2325 9.4126 23.913 11.1169 23.7976 11.7673C23.7562 11.9931 23.6911 12.2821 23.4131 12.3032C23.3509 12.3061 23.2891 12.293 23.2332 12.2651C23.1774 12.2372 23.1294 12.1954 23.0936 12.1436L22.5375 11.421L22.3127 11.1199L19.5794 13.2276V13.2758C19.5794 13.4976 19.5365 13.7173 19.4531 13.9222C19.3697 14.1272 19.2474 14.3134 19.0933 14.4702C18.9392 14.6271 18.7563 14.7515 18.5549 14.8364C18.3536 14.9213 18.1378 14.965 17.9199 14.965C17.702 14.965 17.4862 14.9213 17.2848 14.8364C17.0835 14.7515 16.9005 14.6271 16.7465 14.4702C16.5924 14.3134 16.4701 14.1272 16.3867 13.9222C16.3033 13.7173 16.2604 13.4976 16.2604 13.2758C16.2604 13.2397 16.2604 13.2005 16.2604 13.1644L14.3347 11.7492C14.0373 11.9588 13.6809 12.064 13.3195 12.0488C12.9581 12.0336 12.6114 11.8988 12.332 11.6649L10.4655 13.0168C10.5578 13.358 10.5426 13.72 10.4219 14.0518C10.3013 14.3836 10.0813 14.6685 9.79305 14.8662C9.50481 15.064 9.16284 15.1646 8.8154 15.1539C8.46797 15.1432 8.1326 15.0217 7.85663 14.8066C7.58066 14.5915 7.37802 14.2936 7.2773 13.9549C7.17658 13.6163 7.18287 13.254 7.29528 12.9192C7.40769 12.5844 7.62054 12.294 7.90381 12.0889C8.18707 11.8838 8.52644 11.7745 8.87404 11.7763C9.10536 11.7759 9.33417 11.8251 9.54552 11.9208L11.7404 10.328C11.7467 9.87996 11.9276 9.45284 12.2432 9.14057C12.5589 8.82829 12.9835 8.65645 13.4236 8.66284C13.8637 8.66923 14.2833 8.85333 14.5901 9.17463C14.8969 9.49594 15.0657 9.92813 15.0594 10.3761V10.4875L16.9851 11.9027C17.2697 11.7015 17.6092 11.5961 17.9557 11.6015C18.3022 11.6069 18.6383 11.7228 18.9168 11.9329L21.4371 9.97567L21.3306 9.84017H21.3217ZM21.298 14.1942H23.5876C23.6509 14.195 23.7114 14.2209 23.7562 14.2665C23.8009 14.312 23.8264 14.3736 23.8272 14.4381V23.4863C23.8264 23.5508 23.8009 23.6124 23.7562 23.6579C23.7114 23.7035 23.6509 23.7294 23.5876 23.7302H21.298C21.2345 23.7302 21.1735 23.7045 21.1286 23.6588C21.0837 23.613 21.0584 23.551 21.0584 23.4863V14.4531C21.0592 14.3887 21.0847 14.3271 21.1295 14.2815C21.1742 14.236 21.2347 14.21 21.298 14.2092V14.1942ZM16.7721 17.2956H19.0617C19.0932 17.2956 19.1243 17.3019 19.1534 17.3141C19.1825 17.3264 19.2089 17.3444 19.2311 17.367C19.2534 17.3897 19.271 17.4165 19.2831 17.4461C19.2951 17.4757 19.3013 17.5074 19.3013 17.5395V23.4863C19.3013 23.551 19.2761 23.613 19.2311 23.6588C19.1862 23.7045 19.1253 23.7302 19.0617 23.7302H16.7781C16.7145 23.7302 16.6536 23.7045 16.6086 23.6588C16.5637 23.613 16.5385 23.551 16.5385 23.4863V17.5395C16.5385 17.5074 16.5447 17.4757 16.5567 17.4461C16.5687 17.4165 16.5864 17.3897 16.6086 17.367C16.6309 17.3444 16.6573 17.3264 16.6864 17.3141C16.7154 17.3019 16.7466 17.2956 16.7781 17.2956H16.7721ZM12.2463 14.1942H14.5329C14.5671 14.1915 14.6015 14.1964 14.6337 14.2084C14.6659 14.2204 14.6952 14.2394 14.7196 14.2639C14.744 14.2885 14.7629 14.3181 14.7751 14.3507C14.7873 14.3833 14.7924 14.4183 14.7902 14.4531V23.4863C14.7902 23.551 14.765 23.613 14.72 23.6588C14.6751 23.7045 14.6142 23.7302 14.5506 23.7302H12.2522C12.2207 23.7302 12.1896 23.7239 12.1605 23.7117C12.1314 23.6994 12.105 23.6814 12.0828 23.6588C12.0605 23.6361 12.0429 23.6093 12.0308 23.5797C12.0188 23.5501 12.0126 23.5184 12.0126 23.4863V14.4531C12.0133 14.3887 12.0388 14.3271 12.0836 14.2815C12.1284 14.236 12.1889 14.21 12.2522 14.2092L12.2463 14.1942ZM7.72038 17.8075H10.007C10.0705 17.8075 10.1315 17.8331 10.1764 17.8789C10.2213 17.9246 10.2466 17.9867 10.2466 18.0513V23.4863C10.2466 23.551 10.2213 23.613 10.1764 23.6588C10.1315 23.7045 10.0705 23.7302 10.007 23.7302H7.7263C7.66275 23.7302 7.6018 23.7045 7.55687 23.6588C7.51193 23.613 7.48669 23.551 7.48669 23.4863V18.0393C7.48669 17.9746 7.51193 17.9126 7.55687 17.8668C7.6018 17.8211 7.66275 17.7954 7.7263 17.7954L7.72038 17.8075ZM25.8239 6.00106C23.5155 3.65782 20.4804 2.20172 17.2356 1.88082C13.9909 1.55992 10.7372 2.39408 8.02881 4.24119C5.32046 6.08829 3.32503 8.83408 2.38244 12.0108C1.43985 15.1875 1.60841 18.5986 2.85942 21.663C4.11044 24.7273 6.3665 27.2554 9.24327 28.8166C12.12 30.3777 15.4396 30.8753 18.6363 30.2245C21.8331 29.5738 24.7093 27.815 26.775 25.2478C28.8408 22.6806 29.9682 19.4638 29.9652 16.1453C29.9662 14.26 29.6007 12.3931 28.89 10.6522C28.1792 8.91117 27.1372 7.33047 25.8239 6.00106Z" fill="#02464F"/>
</g>
<defs>
<clipPath id="clip0_383_688">
<rect width="36" height="37" fill="white"/>
</clipPath>
</defs>
</svg>
