<svg width="28" height="36" viewBox="0 0 28 36" fill="none" xmlns="http://www.w3.org/2000/svg">
<path d="M17.5913 13.9543C17.5913 16.0009 15.9247 17.6755 13.8879 17.6755C11.851 17.6755 10.1844 16.0009 10.1844 13.9543C10.1844 11.9077 11.851 10.2332 13.8879 10.2332C15.9247 10.2332 17.5913 11.9077 17.5913 13.9543ZM27.7757 13.9543C27.7757 25.2666 19.1282 32.3554 15.4248 34.8672C14.9619 35.2021 14.4249 35.3509 13.8879 35.3509C13.3509 35.3509 12.8139 35.2021 12.3324 34.8672C8.629 32.3554 0 25.2852 0 13.9543C0 5.99105 5.96252 0 13.8879 0C21.7947 0 27.7757 5.99105 27.7757 13.9543ZM21.2947 13.9543C21.2947 9.84244 17.9802 6.51201 13.8879 6.51201C9.79557 6.51201 6.481 9.84244 6.481 13.9543C6.481 18.0662 9.79557 21.3966 13.8879 21.3966C17.9802 21.3966 21.2947 18.0662 21.2947 13.9543Z" fill="#02464F"/>
</svg>
